STARTFONT 2.1
FONT -FontForge-Pacifico-Book-R-Normal--8-80-72-72-P-47-ISO10646-1
SIZE 8 72 72
FONTBOUNDINGBOX 18 17 -5 -4
COMMENT "Generated by fontforge, http://fontforge.sourceforge.net"
COMMENT "Copyright 2018 The Pacifico Project Authors (https://github.com/googlefonts/Pacifico)"
STARTPROPERTIES 40
FOUNDRY "FontForge"
FAMILY_NAME "Pacifico"
WEIGHT_NAME "Book"
SLANT "R"
SETWIDTH_NAME "Normal"
ADD_STYLE_NAME ""
PIXEL_SIZE 8
POINT_SIZE 80
RESOLUTION_X 72
RESOLUTION_Y 72
SPACING "P"
AVERAGE_WIDTH 47
CHARSET_REGISTRY "ISO10646"
CHARSET_ENCODING "1"
FONTNAME_REGISTRY ""
CHARSET_COLLECTIONS "ISO8859-2 ISO8859-5 ISO8859-9 ISO8859-4 ISO10646-1"
FONT_NAME "Pacifico-Regular"
FACE_NAME "Pacifico Regular"
COPYRIGHT "Copyright 2018 The Pacifico Project Authors (https://github.com/googlefonts/Pacifico)"
FONT_VERSION "3.001"
FONT_ASCENT 6
FONT_DESCENT 2
UNDERLINE_POSITION -1
UNDERLINE_THICKNESS 1
X_HEIGHT 3
CAP_HEIGHT 6
DEFAULT_CHAR 1
RAW_ASCENT 800
RAW_DESCENT 200
NORM_SPACE 2
RELATIVE_WEIGHT 40
RELATIVE_SETWIDTH 50
SUPERSCRIPT_X 0
SUPERSCRIPT_Y 2
SUPERSCRIPT_SIZE 4
SUBSCRIPT_X 0
SUBSCRIPT_Y 0
SUBSCRIPT_SIZE 4
AVG_LOWERCASE_WIDTH 38
AVG_UPPERCASE_WIDTH 65
ENDPROPERTIES
CHARS 1514
STARTCHAR NULL.dup1
ENCODING 0
SWIDTH 0 0
DWIDTH 0 0
BBX 1 1 0 0
BITMAP
00
ENDCHAR
STARTCHAR nonmarkingreturn
ENCODING 13
SWIDTH 265 0
DWIDTH 2 0
BBX 1 1 0 0
BITMAP
00
ENDCHAR
STARTCHAR space
ENCODING 32
SWIDTH 265 0
DWIDTH 2 0
BBX 1 1 0 0
BITMAP
00
ENDCHAR
STARTCHAR exclam
ENCODING 33
SWIDTH 340 0
DWIDTH 3 0
BBX 3 7 0 0
BITMAP
20
60
40
40
40
C0
C0
ENDCHAR
STARTCHAR quotedbl
ENCODING 34
SWIDTH 510 0
DWIDTH 4 0
BBX 3 3 1 4
BITMAP
A0
A0
A0
ENDCHAR
STARTCHAR numbersign
ENCODING 35
SWIDTH 700 0
DWIDTH 6 0
BBX 5 5 0 0
BITMAP
28
78
50
F8
50
ENDCHAR
STARTCHAR dollar
ENCODING 36
SWIDTH 524 0
DWIDTH 4 0
BBX 4 8 0 -1
BITMAP
20
20
70
70
60
B0
60
40
ENDCHAR
STARTCHAR percent
ENCODING 37
SWIDTH 896 0
DWIDTH 7 0
BBX 7 7 0 0
BITMAP
64
A8
B8
70
16
2A
26
ENDCHAR
STARTCHAR ampersand
ENCODING 38
SWIDTH 851 0
DWIDTH 7 0
BBX 7 8 0 0
BITMAP
30
28
68
30
62
54
CC
7C
ENDCHAR
STARTCHAR quotesingle
ENCODING 39
SWIDTH 290 0
DWIDTH 2 0
BBX 1 3 1 4
BITMAP
80
80
80
ENDCHAR
STARTCHAR parenleft
ENCODING 40
SWIDTH 613 0
DWIDTH 5 0
BBX 5 9 1 -1
BITMAP
38
40
C0
80
80
80
80
90
E0
ENDCHAR
STARTCHAR parenright
ENCODING 41
SWIDTH 613 0
DWIDTH 5 0
BBX 6 9 -1 -1
BITMAP
38
28
0C
08
08
08
08
10
E0
ENDCHAR
STARTCHAR asterisk
ENCODING 42
SWIDTH 520 0
DWIDTH 4 0
BBX 3 4 1 4
BITMAP
40
E0
E0
40
ENDCHAR
STARTCHAR plus
ENCODING 43
SWIDTH 700 0
DWIDTH 6 0
BBX 4 5 1 0
BITMAP
20
40
F0
40
40
ENDCHAR
STARTCHAR comma
ENCODING 44
SWIDTH 257 0
DWIDTH 2 0
BBX 2 3 0 -1
BITMAP
C0
80
80
ENDCHAR
STARTCHAR hyphen
ENCODING 45
SWIDTH 403 0
DWIDTH 3 0
BBX 3 1 0 2
BITMAP
E0
ENDCHAR
STARTCHAR period
ENCODING 46
SWIDTH 257 0
DWIDTH 2 0
BBX 2 2 0 0
BITMAP
C0
C0
ENDCHAR
STARTCHAR slash
ENCODING 47
SWIDTH 509 0
DWIDTH 4 0
BBX 4 8 0 0
BITMAP
10
10
30
20
60
40
C0
80
ENDCHAR
STARTCHAR zero
ENCODING 48
SWIDTH 543 0
DWIDTH 4 0
BBX 4 5 0 0
BITMAP
70
50
90
90
60
ENDCHAR
STARTCHAR one
ENCODING 49
SWIDTH 376 0
DWIDTH 3 0
BBX 3 5 0 0
BITMAP
60
E0
40
40
40
ENDCHAR
STARTCHAR two
ENCODING 50
SWIDTH 560 0
DWIDTH 4 0
BBX 4 5 0 0
BITMAP
70
50
10
20
F0
ENDCHAR
STARTCHAR three
ENCODING 51
SWIDTH 520 0
DWIDTH 4 0
BBX 4 5 0 0
BITMAP
70
90
60
90
E0
ENDCHAR
STARTCHAR four
ENCODING 52
SWIDTH 577 0
DWIDTH 5 0
BBX 4 5 0 0
BITMAP
20
50
50
F0
10
ENDCHAR
STARTCHAR five
ENCODING 53
SWIDTH 518 0
DWIDTH 4 0
BBX 4 5 0 0
BITMAP
70
40
60
90
60
ENDCHAR
STARTCHAR six
ENCODING 54
SWIDTH 541 0
DWIDTH 4 0
BBX 4 5 0 0
BITMAP
70
50
F0
D0
60
ENDCHAR
STARTCHAR seven
ENCODING 55
SWIDTH 497 0
DWIDTH 4 0
BBX 4 5 0 0
BITMAP
F0
20
60
40
40
ENDCHAR
STARTCHAR eight
ENCODING 56
SWIDTH 512 0
DWIDTH 4 0
BBX 4 5 0 0
BITMAP
70
50
60
90
60
ENDCHAR
STARTCHAR nine
ENCODING 57
SWIDTH 541 0
DWIDTH 4 0
BBX 4 5 0 0
BITMAP
70
50
70
90
60
ENDCHAR
STARTCHAR colon
ENCODING 58
SWIDTH 257 0
DWIDTH 2 0
BBX 2 4 0 0
BITMAP
40
C0
C0
C0
ENDCHAR
STARTCHAR semicolon
ENCODING 59
SWIDTH 257 0
DWIDTH 2 0
BBX 2 5 0 -1
BITMAP
40
C0
C0
80
80
ENDCHAR
STARTCHAR less
ENCODING 60
SWIDTH 700 0
DWIDTH 6 0
BBX 4 4 1 1
BITMAP
30
C0
C0
30
ENDCHAR
STARTCHAR equal
ENCODING 61
SWIDTH 700 0
DWIDTH 6 0
BBX 4 3 1 1
BITMAP
F0
00
F0
ENDCHAR
STARTCHAR greater
ENCODING 62
SWIDTH 700 0
DWIDTH 6 0
BBX 4 4 1 1
BITMAP
C0
70
70
80
ENDCHAR
STARTCHAR question
ENCODING 63
SWIDTH 476 0
DWIDTH 4 0
BBX 3 7 1 0
BITMAP
E0
A0
60
C0
80
80
80
ENDCHAR
STARTCHAR at
ENCODING 64
SWIDTH 1015 0
DWIDTH 8 0
BBX 8 8 0 -2
BITMAP
1E
63
5D
95
A9
96
42
3C
ENDCHAR
STARTCHAR A
ENCODING 65
SWIDTH 786 0
DWIDTH 6 0
BBX 7 7 0 0
BITMAP
1E
24
44
48
C8
4A
7E
ENDCHAR
STARTCHAR B
ENCODING 66
SWIDTH 827 0
DWIDTH 7 0
BBX 7 7 0 0
BITMAP
7C
82
26
58
44
44
78
ENDCHAR
STARTCHAR C
ENCODING 67
SWIDTH 686 0
DWIDTH 5 0
BBX 6 7 1 0
BITMAP
70
88
90
80
80
84
78
ENDCHAR
STARTCHAR D
ENCODING 68
SWIDTH 836 0
DWIDTH 7 0
BBX 7 7 0 0
BITMAP
78
84
26
46
44
4C
78
ENDCHAR
STARTCHAR E
ENCODING 69
SWIDTH 686 0
DWIDTH 5 0
BBX 7 7 0 0
BITMAP
38
44
44
30
C0
C2
7C
ENDCHAR
STARTCHAR F
ENCODING 70
SWIDTH 712 0
DWIDTH 6 0
BBX 7 7 0 0
BITMAP
3E
50
50
3C
10
90
E0
ENDCHAR
STARTCHAR G
ENCODING 71
SWIDTH 811 0
DWIDTH 6 0
BBX 6 11 1 -4
BITMAP
70
C8
88
80
98
8C
7C
18
30
30
20
ENDCHAR
STARTCHAR H
ENCODING 72
SWIDTH 873 0
DWIDTH 7 0
BBX 8 8 0 0
BITMAP
02
65
A5
26
7C
2C
45
46
ENDCHAR
STARTCHAR I
ENCODING 73
SWIDTH 495 0
DWIDTH 4 0
BBX 4 7 0 0
BITMAP
70
20
20
20
60
40
F0
ENDCHAR
STARTCHAR J
ENCODING 74
SWIDTH 743 0
DWIDTH 6 0
BBX 5 8 1 -1
BITMAP
F8
88
98
10
70
90
A0
E0
ENDCHAR
STARTCHAR K
ENCODING 75
SWIDTH 937 0
DWIDTH 8 0
BBX 9 7 0 0
BITMAP
7900
5200
5600
3800
1400
9480
6300
ENDCHAR
STARTCHAR L
ENCODING 76
SWIDTH 673 0
DWIDTH 5 0
BBX 6 7 0 0
BITMAP
38
24
44
40
40
E4
FC
ENDCHAR
STARTCHAR M
ENCODING 77
SWIDTH 1232 0
DWIDTH 10 0
BBX 11 7 0 0
BITMAP
6D80
B680
2480
2480
2480
64A0
4CC0
ENDCHAR
STARTCHAR N
ENCODING 78
SWIDTH 884 0
DWIDTH 7 0
BBX 8 7 0 0
BITMAP
6C
B6
24
24
24
65
46
ENDCHAR
STARTCHAR O
ENCODING 79
SWIDTH 816 0
DWIDTH 7 0
BBX 5 7 1 0
BITMAP
70
88
88
88
88
98
70
ENDCHAR
STARTCHAR P
ENCODING 80
SWIDTH 805 0
DWIDTH 6 0
BBX 7 8 0 -1
BITMAP
3C
44
56
94
B8
B0
A0
60
ENDCHAR
STARTCHAR Q
ENCODING 81
SWIDTH 816 0
DWIDTH 7 0
BBX 6 10 1 -3
BITMAP
70
C8
88
88
88
88
F0
20
14
18
ENDCHAR
STARTCHAR R
ENCODING 82
SWIDTH 880 0
DWIDTH 7 0
BBX 8 7 0 0
BITMAP
3C
54
54
B8
A8
65
66
ENDCHAR
STARTCHAR S
ENCODING 83
SWIDTH 693 0
DWIDTH 6 0
BBX 6 7 0 0
BITMAP
38
4C
48
30
88
88
78
ENDCHAR
STARTCHAR T
ENCODING 84
SWIDTH 697 0
DWIDTH 6 0
BBX 7 7 0 0
BITMAP
7E
90
90
10
10
10
30
ENDCHAR
STARTCHAR U
ENCODING 85
SWIDTH 890 0
DWIDTH 7 0
BBX 8 7 0 0
BITMAP
62
A6
24
24
64
4D
37
ENDCHAR
STARTCHAR V
ENCODING 86
SWIDTH 763 0
DWIDTH 6 0
BBX 6 7 1 0
BITMAP
98
98
98
8C
90
90
60
ENDCHAR
STARTCHAR W
ENCODING 87
SWIDTH 1217 0
DWIDTH 10 0
BBX 10 7 1 0
BITMAP
8980
8A80
8A80
99C0
9900
AA00
6C00
ENDCHAR
STARTCHAR X
ENCODING 88
SWIDTH 712 0
DWIDTH 6 0
BBX 7 7 0 0
BITMAP
64
A8
10
30
30
5A
8C
ENDCHAR
STARTCHAR Y
ENCODING 89
SWIDTH 851 0
DWIDTH 7 0
BBX 8 10 0 -3
BITMAP
62
A6
24
24
2C
37
1C
34
28
38
ENDCHAR
STARTCHAR Z
ENCODING 90
SWIDTH 721 0
DWIDTH 6 0
BBX 7 7 0 0
BITMAP
7C
8C
48
10
30
E2
DC
ENDCHAR
STARTCHAR bracketleft
ENCODING 91
SWIDTH 405 0
DWIDTH 3 0
BBX 3 9 1 -1
BITMAP
60
80
80
80
80
80
80
80
C0
ENDCHAR
STARTCHAR backslash
ENCODING 92
SWIDTH 509 0
DWIDTH 4 0
BBX 3 8 1 0
BITMAP
80
80
80
40
40
40
40
20
ENDCHAR
STARTCHAR bracketright
ENCODING 93
SWIDTH 405 0
DWIDTH 3 0
BBX 3 9 0 -1
BITMAP
E0
20
20
20
20
40
40
40
C0
ENDCHAR
STARTCHAR asciicircum
ENCODING 94
SWIDTH 700 0
DWIDTH 6 0
BBX 4 5 1 0
BITMAP
20
60
60
A0
90
ENDCHAR
STARTCHAR underscore
ENCODING 95
SWIDTH 354 0
DWIDTH 3 0
BBX 3 1 0 -1
BITMAP
E0
ENDCHAR
STARTCHAR grave
ENCODING 96
SWIDTH 600 0
DWIDTH 5 0
BBX 2 3 1 5
BITMAP
80
80
40
ENDCHAR
STARTCHAR a
ENCODING 97
SWIDTH 470 0
DWIDTH 4 0
BBX 5 4 0 0
BITMAP
60
60
A8
D0
ENDCHAR
STARTCHAR b
ENCODING 98
SWIDTH 473 0
DWIDTH 4 0
BBX 5 8 0 0
BITMAP
20
50
60
60
E0
B8
60
60
ENDCHAR
STARTCHAR c
ENCODING 99
SWIDTH 368 0
DWIDTH 3 0
BBX 4 4 0 0
BITMAP
60
A0
90
60
ENDCHAR
STARTCHAR d
ENCODING 100
SWIDTH 515 0
DWIDTH 4 0
BBX 5 8 0 0
BITMAP
18
18
18
28
70
F0
A8
58
ENDCHAR
STARTCHAR e
ENCODING 101
SWIDTH 393 0
DWIDTH 3 0
BBX 4 4 0 0
BITMAP
60
A0
D0
60
ENDCHAR
STARTCHAR f
ENCODING 102
SWIDTH 371 0
DWIDTH 3 0
BBX 4 11 0 -3
BITMAP
30
50
50
60
60
40
B0
A0
A0
40
40
ENDCHAR
STARTCHAR g
ENCODING 103
SWIDTH 479 0
DWIDTH 4 0
BBX 5 8 0 -4
BITMAP
60
60
A8
F0
60
A0
C0
C0
ENDCHAR
STARTCHAR h
ENCODING 104
SWIDTH 502 0
DWIDTH 4 0
BBX 5 8 0 0
BITMAP
20
50
60
60
70
D0
E8
D0
ENDCHAR
STARTCHAR i
ENCODING 105
SWIDTH 246 0
DWIDTH 2 0
BBX 3 6 0 0
BITMAP
40
00
40
80
A0
40
ENDCHAR
STARTCHAR j
ENCODING 106
SWIDTH 254 0
DWIDTH 2 0
BBX 5 10 -2 -4
BITMAP
10
00
10
10
28
30
20
60
A0
C0
ENDCHAR
STARTCHAR k
ENCODING 107
SWIDTH 525 0
DWIDTH 4 0
BBX 5 8 0 0
BITMAP
20
50
60
60
70
D0
E8
78
ENDCHAR
STARTCHAR l
ENCODING 108
SWIDTH 326 0
DWIDTH 3 0
BBX 4 8 0 0
BITMAP
20
50
60
60
A0
C0
90
60
ENDCHAR
STARTCHAR m
ENCODING 109
SWIDTH 744 0
DWIDTH 6 0
BBX 7 4 0 0
BITMAP
7C
F4
FA
AC
ENDCHAR
STARTCHAR n
ENCODING 110
SWIDTH 496 0
DWIDTH 4 0
BBX 5 4 0 0
BITMAP
70
D0
E8
B0
ENDCHAR
STARTCHAR o
ENCODING 111
SWIDTH 451 0
DWIDTH 4 0
BBX 5 4 0 0
BITMAP
60
B8
A0
60
ENDCHAR
STARTCHAR p
ENCODING 112
SWIDTH 481 0
DWIDTH 4 0
BBX 6 8 -1 -4
BITMAP
70
28
74
78
C0
C0
C0
C0
ENDCHAR
STARTCHAR q
ENCODING 113
SWIDTH 500 0
DWIDTH 4 0
BBX 5 8 0 -3
BITMAP
10
70
60
B8
F0
30
30
30
ENDCHAR
STARTCHAR r
ENCODING 114
SWIDTH 455 0
DWIDTH 4 0
BBX 5 4 0 0
BITMAP
70
B8
D0
80
ENDCHAR
STARTCHAR s
ENCODING 115
SWIDTH 427 0
DWIDTH 3 0
BBX 4 4 0 0
BITMAP
60
40
B0
F0
ENDCHAR
STARTCHAR t
ENCODING 116
SWIDTH 393 0
DWIDTH 3 0
BBX 4 8 0 0
BITMAP
20
50
60
60
F0
40
50
70
ENDCHAR
STARTCHAR u
ENCODING 117
SWIDTH 462 0
DWIDTH 4 0
BBX 5 4 0 0
BITMAP
50
A0
A8
70
ENDCHAR
STARTCHAR v
ENCODING 118
SWIDTH 449 0
DWIDTH 4 0
BBX 5 4 0 0
BITMAP
B0
B8
A0
40
ENDCHAR
STARTCHAR w
ENCODING 119
SWIDTH 700 0
DWIDTH 6 0
BBX 7 4 0 0
BITMAP
AC
AE
D8
50
ENDCHAR
STARTCHAR x
ENCODING 120
SWIDTH 529 0
DWIDTH 4 0
BBX 5 4 0 0
BITMAP
70
20
A8
F8
ENDCHAR
STARTCHAR y
ENCODING 121
SWIDTH 479 0
DWIDTH 4 0
BBX 5 8 0 -4
BITMAP
50
A0
A8
70
60
A0
C0
C0
ENDCHAR
STARTCHAR z
ENCODING 122
SWIDTH 445 0
DWIDTH 4 0
BBX 5 4 0 0
BITMAP
F0
60
C8
70
ENDCHAR
STARTCHAR braceleft
ENCODING 123
SWIDTH 490 0
DWIDTH 4 0
BBX 5 9 0 -1
BITMAP
38
20
20
20
C0
20
60
40
30
ENDCHAR
STARTCHAR bar
ENCODING 124
SWIDTH 326 0
DWIDTH 3 0
BBX 3 10 0 -2
BITMAP
20
40
40
40
40
40
40
40
80
80
ENDCHAR
STARTCHAR braceright
ENCODING 125
SWIDTH 490 0
DWIDTH 4 0
BBX 4 9 0 -1
BITMAP
E0
20
20
20
30
60
40
40
C0
ENDCHAR
STARTCHAR asciitilde
ENCODING 126
SWIDTH 700 0
DWIDTH 6 0
BBX 4 2 1 2
BITMAP
D0
B0
ENDCHAR
STARTCHAR uni00A0
ENCODING 160
SWIDTH 265 0
DWIDTH 2 0
BBX 1 1 0 0
BITMAP
00
ENDCHAR
STARTCHAR exclamdown
ENCODING 161
SWIDTH 340 0
DWIDTH 3 0
BBX 2 7 0 -3
BITMAP
40
40
40
40
80
80
80
ENDCHAR
STARTCHAR cent
ENCODING 162
SWIDTH 466 0
DWIDTH 4 0
BBX 3 6 0 -1
BITMAP
20
60
A0
E0
60
40
ENDCHAR
STARTCHAR sterling
ENCODING 163
SWIDTH 525 0
DWIDTH 4 0
BBX 4 5 0 0
BITMAP
70
50
E0
40
F0
ENDCHAR
STARTCHAR currency
ENCODING 164
SWIDTH 700 0
DWIDTH 6 0
BBX 4 4 1 0
BITMAP
F0
90
90
F0
ENDCHAR
STARTCHAR yen
ENCODING 165
SWIDTH 497 0
DWIDTH 4 0
BBX 4 5 0 0
BITMAP
90
60
F0
F0
40
ENDCHAR
STARTCHAR brokenbar
ENCODING 166
SWIDTH 326 0
DWIDTH 3 0
BBX 3 10 0 -2
BITMAP
20
40
40
40
40
00
40
40
80
80
ENDCHAR
STARTCHAR section
ENCODING 167
SWIDTH 607 0
DWIDTH 5 0
BBX 3 7 1 0
BITMAP
60
A0
C0
A0
E0
A0
E0
ENDCHAR
STARTCHAR dieresis
ENCODING 168
SWIDTH 600 0
DWIDTH 5 0
BBX 3 1 1 5
BITMAP
A0
ENDCHAR
STARTCHAR copyright
ENCODING 169
SWIDTH 647 0
DWIDTH 5 0
BBX 4 5 1 3
BITMAP
60
F0
90
F0
60
ENDCHAR
STARTCHAR ordfeminine
ENCODING 170
SWIDTH 393 0
DWIDTH 3 0
BBX 2 3 1 4
BITMAP
C0
C0
C0
ENDCHAR
STARTCHAR guillemotleft
ENCODING 171
SWIDTH 615 0
DWIDTH 5 0
BBX 5 3 0 0
BITMAP
58
A0
58
ENDCHAR
STARTCHAR logicalnot
ENCODING 172
SWIDTH 700 0
DWIDTH 6 0
BBX 4 2 1 1
BITMAP
F0
10
ENDCHAR
STARTCHAR uni00AD
ENCODING 173
SWIDTH 403 0
DWIDTH 3 0
BBX 3 1 0 2
BITMAP
E0
ENDCHAR
STARTCHAR registered
ENCODING 174
SWIDTH 647 0
DWIDTH 5 0
BBX 4 5 1 3
BITMAP
60
F0
D0
F0
60
ENDCHAR
STARTCHAR macron
ENCODING 175
SWIDTH 600 0
DWIDTH 5 0
BBX 3 1 1 4
BITMAP
E0
ENDCHAR
STARTCHAR degree
ENCODING 176
SWIDTH 385 0
DWIDTH 3 0
BBX 2 3 1 4
BITMAP
C0
C0
C0
ENDCHAR
STARTCHAR plusminus
ENCODING 177
SWIDTH 700 0
DWIDTH 6 0
BBX 4 5 1 0
BITMAP
20
F0
40
40
F0
ENDCHAR
STARTCHAR uni00B2
ENCODING 178
SWIDTH 450 0
DWIDTH 4 0
BBX 4 4 0 3
BITMAP
60
70
20
F0
ENDCHAR
STARTCHAR uni00B3
ENCODING 179
SWIDTH 450 0
DWIDTH 4 0
BBX 3 4 1 3
BITMAP
E0
40
60
C0
ENDCHAR
STARTCHAR acute
ENCODING 180
SWIDTH 600 0
DWIDTH 5 0
BBX 2 3 2 5
BITMAP
40
40
80
ENDCHAR
STARTCHAR uni00B5
ENCODING 181
SWIDTH 462 0
DWIDTH 4 0
BBX 5 6 0 -2
BITMAP
50
A0
A8
F0
80
80
ENDCHAR
STARTCHAR paragraph
ENCODING 182
SWIDTH 739 0
DWIDTH 6 0
BBX 5 7 1 0
BITMAP
F0
F8
F0
50
50
50
50
ENDCHAR
STARTCHAR periodcentered
ENCODING 183
SWIDTH 257 0
DWIDTH 2 0
BBX 2 2 0 1
BITMAP
40
C0
ENDCHAR
STARTCHAR cedilla
ENCODING 184
SWIDTH 600 0
DWIDTH 5 0
BBX 3 3 0 -2
BITMAP
60
20
C0
ENDCHAR
STARTCHAR uni00B9
ENCODING 185
SWIDTH 450 0
DWIDTH 4 0
BBX 2 4 1 3
BITMAP
C0
40
40
40
ENDCHAR
STARTCHAR ordmasculine
ENCODING 186
SWIDTH 408 0
DWIDTH 3 0
BBX 2 3 1 4
BITMAP
C0
C0
C0
ENDCHAR
STARTCHAR guillemotright
ENCODING 187
SWIDTH 615 0
DWIDTH 5 0
BBX 5 3 0 0
BITMAP
D0
68
F0
ENDCHAR
STARTCHAR onequarter
ENCODING 188
SWIDTH 955 0
DWIDTH 8 0
BBX 6 7 1 0
BITMAP
C8
50
50
68
2C
5C
04
ENDCHAR
STARTCHAR onehalf
ENCODING 189
SWIDTH 1024 0
DWIDTH 8 0
BBX 7 7 1 0
BITMAP
C8
50
50
6E
2A
44
0E
ENDCHAR
STARTCHAR threequarters
ENCODING 190
SWIDTH 1035 0
DWIDTH 8 0
BBX 7 7 1 0
BITMAP
E8
48
70
D4
2A
2E
04
ENDCHAR
STARTCHAR questiondown
ENCODING 191
SWIDTH 476 0
DWIDTH 4 0
BBX 3 8 0 -4
BITMAP
20
20
20
40
40
80
A0
E0
ENDCHAR
STARTCHAR Agrave
ENCODING 192
SWIDTH 786 0
DWIDTH 6 0
BBX 7 10 0 0
BITMAP
10
08
00
1E
24
44
48
C8
4A
7E
ENDCHAR
STARTCHAR Aacute
ENCODING 193
SWIDTH 786 0
DWIDTH 6 0
BBX 7 10 0 0
BITMAP
02
0C
00
1E
24
44
48
C8
4A
7E
ENDCHAR
STARTCHAR Acircumflex
ENCODING 194
SWIDTH 786 0
DWIDTH 6 0
BBX 7 11 0 0
BITMAP
04
0C
14
00
1E
24
44
48
C8
4A
7E
ENDCHAR
STARTCHAR Atilde
ENCODING 195
SWIDTH 786 0
DWIDTH 6 0
BBX 7 10 0 0
BITMAP
0A
14
00
1E
24
44
48
C8
4A
7E
ENDCHAR
STARTCHAR Adieresis
ENCODING 196
SWIDTH 786 0
DWIDTH 6 0
BBX 7 9 0 0
BITMAP
1C
00
1E
24
44
48
C8
4A
7E
ENDCHAR
STARTCHAR Aring
ENCODING 197
SWIDTH 786 0
DWIDTH 6 0
BBX 7 10 0 0
BITMAP
0C
0C
0C
1E
24
44
48
C8
4A
7E
ENDCHAR
STARTCHAR AE
ENCODING 198
SWIDTH 1015 0
DWIDTH 8 0
BBX 9 7 0 0
BITMAP
1F80
6400
4400
4F00
C800
4C80
7780
ENDCHAR
STARTCHAR Ccedilla
ENCODING 199
SWIDTH 686 0
DWIDTH 5 0
BBX 6 9 1 -2
BITMAP
70
88
90
80
80
84
78
20
60
ENDCHAR
STARTCHAR Egrave
ENCODING 200
SWIDTH 686 0
DWIDTH 5 0
BBX 7 10 0 0
BITMAP
20
10
00
38
44
44
30
C0
C2
7C
ENDCHAR
STARTCHAR Eacute
ENCODING 201
SWIDTH 686 0
DWIDTH 5 0
BBX 7 10 0 0
BITMAP
04
18
00
38
44
44
30
C0
C2
7C
ENDCHAR
STARTCHAR Ecircumflex
ENCODING 202
SWIDTH 686 0
DWIDTH 5 0
BBX 7 11 0 0
BITMAP
08
18
28
00
38
44
44
30
C0
C2
7C
ENDCHAR
STARTCHAR Edieresis
ENCODING 203
SWIDTH 686 0
DWIDTH 5 0
BBX 7 9 0 0
BITMAP
38
00
38
44
44
30
C0
C2
7C
ENDCHAR
STARTCHAR Igrave
ENCODING 204
SWIDTH 495 0
DWIDTH 4 0
BBX 4 10 0 0
BITMAP
40
20
00
70
20
20
20
60
40
F0
ENDCHAR
STARTCHAR Iacute
ENCODING 205
SWIDTH 495 0
DWIDTH 4 0
BBX 5 10 0 0
BITMAP
08
30
00
70
20
20
20
60
40
F0
ENDCHAR
STARTCHAR Icircumflex
ENCODING 206
SWIDTH 495 0
DWIDTH 4 0
BBX 4 11 0 0
BITMAP
10
30
50
00
70
20
20
20
60
40
F0
ENDCHAR
STARTCHAR Idieresis
ENCODING 207
SWIDTH 495 0
DWIDTH 4 0
BBX 4 9 0 0
BITMAP
70
00
70
20
20
20
60
40
F0
ENDCHAR
STARTCHAR Eth
ENCODING 208
SWIDTH 821 0
DWIDTH 7 0
BBX 6 7 0 0
BITMAP
38
24
64
F4
44
4C
70
ENDCHAR
STARTCHAR Ntilde
ENCODING 209
SWIDTH 884 0
DWIDTH 7 0
BBX 8 10 0 0
BITMAP
14
1C
00
6C
B6
24
24
24
65
46
ENDCHAR
STARTCHAR Ograve
ENCODING 210
SWIDTH 816 0
DWIDTH 7 0
BBX 5 10 1 0
BITMAP
40
20
00
70
88
88
88
88
98
70
ENDCHAR
STARTCHAR Oacute
ENCODING 211
SWIDTH 816 0
DWIDTH 7 0
BBX 5 10 1 0
BITMAP
08
10
00
70
88
88
88
88
98
70
ENDCHAR
STARTCHAR Ocircumflex
ENCODING 212
SWIDTH 816 0
DWIDTH 7 0
BBX 5 11 1 0
BITMAP
10
30
30
00
70
88
88
88
88
98
70
ENDCHAR
STARTCHAR Otilde
ENCODING 213
SWIDTH 816 0
DWIDTH 7 0
BBX 5 10 1 0
BITMAP
28
50
00
70
88
88
88
88
98
70
ENDCHAR
STARTCHAR Odieresis
ENCODING 214
SWIDTH 816 0
DWIDTH 7 0
BBX 5 9 1 0
BITMAP
30
00
70
88
88
88
88
98
70
ENDCHAR
STARTCHAR multiply
ENCODING 215
SWIDTH 700 0
DWIDTH 6 0
BBX 4 4 1 1
BITMAP
90
60
60
B0
ENDCHAR
STARTCHAR Oslash
ENCODING 216
SWIDTH 816 0
DWIDTH 7 0
BBX 5 9 1 -1
BITMAP
10
70
A8
A8
A8
A8
D8
F0
40
ENDCHAR
STARTCHAR Ugrave
ENCODING 217
SWIDTH 890 0
DWIDTH 7 0
BBX 8 10 0 0
BITMAP
20
18
00
62
A6
24
24
64
4D
37
ENDCHAR
STARTCHAR Uacute
ENCODING 218
SWIDTH 890 0
DWIDTH 7 0
BBX 8 10 0 0
BITMAP
04
08
00
62
A6
24
24
64
4D
37
ENDCHAR
STARTCHAR Ucircumflex
ENCODING 219
SWIDTH 890 0
DWIDTH 7 0
BBX 8 11 0 0
BITMAP
08
08
14
00
62
A6
24
24
64
4D
37
ENDCHAR
STARTCHAR Udieresis
ENCODING 220
SWIDTH 890 0
DWIDTH 7 0
BBX 8 9 0 0
BITMAP
14
00
62
A6
24
24
64
4D
37
ENDCHAR
STARTCHAR Yacute
ENCODING 221
SWIDTH 851 0
DWIDTH 7 0
BBX 8 13 0 -3
BITMAP
06
08
00
62
A6
24
24
2C
37
1C
34
28
38
ENDCHAR
STARTCHAR Thorn
ENCODING 222
SWIDTH 776 0
DWIDTH 6 0
BBX 6 9 0 -1
BITMAP
10
10
3C
54
74
AC
B0
A0
60
ENDCHAR
STARTCHAR germandbls
ENCODING 223
SWIDTH 596 0
DWIDTH 5 0
BBX 6 9 0 -2
BITMAP
30
48
50
60
B8
AC
B0
80
80
ENDCHAR
STARTCHAR agrave
ENCODING 224
SWIDTH 470 0
DWIDTH 4 0
BBX 5 8 0 0
BITMAP
40
40
20
00
60
60
A8
D0
ENDCHAR
STARTCHAR aacute
ENCODING 225
SWIDTH 470 0
DWIDTH 4 0
BBX 5 8 0 0
BITMAP
10
10
20
00
60
60
A8
D0
ENDCHAR
STARTCHAR acircumflex
ENCODING 226
SWIDTH 470 0
DWIDTH 4 0
BBX 5 8 0 0
BITMAP
20
30
50
00
60
60
A8
D0
ENDCHAR
STARTCHAR atilde
ENCODING 227
SWIDTH 470 0
DWIDTH 4 0
BBX 5 7 0 0
BITMAP
50
70
00
60
60
A8
D0
ENDCHAR
STARTCHAR adieresis
ENCODING 228
SWIDTH 470 0
DWIDTH 4 0
BBX 5 6 0 0
BITMAP
50
00
60
60
A8
D0
ENDCHAR
STARTCHAR aring
ENCODING 229
SWIDTH 470 0
DWIDTH 4 0
BBX 5 7 0 0
BITMAP
20
50
20
60
60
A8
D0
ENDCHAR
STARTCHAR ae
ENCODING 230
SWIDTH 653 0
DWIDTH 5 0
BBX 6 4 0 0
BITMAP
78
E8
B4
5C
ENDCHAR
STARTCHAR ccedilla
ENCODING 231
SWIDTH 368 0
DWIDTH 3 0
BBX 4 6 0 -2
BITMAP
60
A0
90
60
20
C0
ENDCHAR
STARTCHAR egrave
ENCODING 232
SWIDTH 393 0
DWIDTH 3 0
BBX 4 8 0 0
BITMAP
40
40
40
00
60
A0
D0
60
ENDCHAR
STARTCHAR eacute
ENCODING 233
SWIDTH 393 0
DWIDTH 3 0
BBX 4 8 0 0
BITMAP
10
20
20
00
60
A0
D0
60
ENDCHAR
STARTCHAR ecircumflex
ENCODING 234
SWIDTH 393 0
DWIDTH 3 0
BBX 4 8 0 0
BITMAP
20
60
50
00
60
A0
D0
60
ENDCHAR
STARTCHAR edieresis
ENCODING 235
SWIDTH 393 0
DWIDTH 3 0
BBX 4 6 0 0
BITMAP
70
00
60
A0
D0
60
ENDCHAR
STARTCHAR igrave
ENCODING 236
SWIDTH 246 0
DWIDTH 2 0
BBX 3 8 0 0
BITMAP
80
80
40
00
40
80
A0
40
ENDCHAR
STARTCHAR iacute
ENCODING 237
SWIDTH 246 0
DWIDTH 2 0
BBX 3 8 0 0
BITMAP
20
20
40
00
40
80
A0
40
ENDCHAR
STARTCHAR icircumflex
ENCODING 238
SWIDTH 246 0
DWIDTH 2 0
BBX 3 8 0 0
BITMAP
40
A0
A0
00
40
80
A0
40
ENDCHAR
STARTCHAR idieresis
ENCODING 239
SWIDTH 246 0
DWIDTH 2 0
BBX 3 6 0 0
BITMAP
A0
00
40
80
A0
40
ENDCHAR
STARTCHAR eth
ENCODING 240
SWIDTH 451 0
DWIDTH 4 0
BBX 4 8 0 0
BITMAP
50
30
60
10
70
90
A0
60
ENDCHAR
STARTCHAR ntilde
ENCODING 241
SWIDTH 496 0
DWIDTH 4 0
BBX 5 7 0 0
BITMAP
48
70
00
70
D0
E8
B0
ENDCHAR
STARTCHAR ograve
ENCODING 242
SWIDTH 451 0
DWIDTH 4 0
BBX 5 8 0 0
BITMAP
40
40
40
00
60
B8
A0
60
ENDCHAR
STARTCHAR oacute
ENCODING 243
SWIDTH 451 0
DWIDTH 4 0
BBX 5 8 0 0
BITMAP
10
20
20
00
60
B8
A0
60
ENDCHAR
STARTCHAR ocircumflex
ENCODING 244
SWIDTH 451 0
DWIDTH 4 0
BBX 5 8 0 0
BITMAP
20
60
60
00
60
B8
A0
60
ENDCHAR
STARTCHAR otilde
ENCODING 245
SWIDTH 451 0
DWIDTH 4 0
BBX 5 7 0 0
BITMAP
50
B0
00
60
B8
A0
60
ENDCHAR
STARTCHAR odieresis
ENCODING 246
SWIDTH 451 0
DWIDTH 4 0
BBX 5 6 0 0
BITMAP
70
00
60
B8
A0
60
ENDCHAR
STARTCHAR divide
ENCODING 247
SWIDTH 700 0
DWIDTH 6 0
BBX 4 5 1 0
BITMAP
60
00
F0
00
40
ENDCHAR
STARTCHAR oslash
ENCODING 248
SWIDTH 459 0
DWIDTH 4 0
BBX 5 6 0 -1
BITMAP
20
60
D8
E0
60
40
ENDCHAR
STARTCHAR ugrave
ENCODING 249
SWIDTH 462 0
DWIDTH 4 0
BBX 5 8 0 0
BITMAP
40
40
20
00
50
A0
A8
70
ENDCHAR
STARTCHAR uacute
ENCODING 250
SWIDTH 462 0
DWIDTH 4 0
BBX 5 8 0 0
BITMAP
10
10
20
00
50
A0
A8
70
ENDCHAR
STARTCHAR ucircumflex
ENCODING 251
SWIDTH 462 0
DWIDTH 4 0
BBX 5 8 0 0
BITMAP
20
50
50
00
50
A0
A8
70
ENDCHAR
STARTCHAR udieresis
ENCODING 252
SWIDTH 462 0
DWIDTH 4 0
BBX 5 6 0 0
BITMAP
50
00
50
A0
A8
70
ENDCHAR
STARTCHAR yacute
ENCODING 253
SWIDTH 479 0
DWIDTH 4 0
BBX 5 12 0 -4
BITMAP
10
10
20
00
50
A0
A8
70
60
A0
C0
C0
ENDCHAR
STARTCHAR thorn
ENCODING 254
SWIDTH 508 0
DWIDTH 4 0
BBX 5 10 0 -3
BITMAP
40
40
40
70
D0
F8
F0
80
80
80
ENDCHAR
STARTCHAR ydieresis
ENCODING 255
SWIDTH 479 0
DWIDTH 4 0
BBX 5 10 0 -4
BITMAP
50
00
50
A0
A8
70
60
A0
C0
C0
ENDCHAR
STARTCHAR Amacron
ENCODING 256
SWIDTH 786 0
DWIDTH 6 0
BBX 7 8 0 0
BITMAP
0C
1E
24
44
48
C8
4A
7E
ENDCHAR
STARTCHAR amacron
ENCODING 257
SWIDTH 470 0
DWIDTH 4 0
BBX 5 5 0 0
BITMAP
70
60
60
A8
D0
ENDCHAR
STARTCHAR Abreve
ENCODING 258
SWIDTH 786 0
DWIDTH 6 0
BBX 7 9 0 0
BITMAP
12
0C
1E
24
44
48
C8
4A
7E
ENDCHAR
STARTCHAR abreve
ENCODING 259
SWIDTH 470 0
DWIDTH 4 0
BBX 5 6 0 0
BITMAP
50
70
60
60
A8
D0
ENDCHAR
STARTCHAR Aogonek
ENCODING 260
SWIDTH 786 0
DWIDTH 6 0
BBX 7 9 0 -2
BITMAP
1E
24
44
48
C8
4A
7E
08
06
ENDCHAR
STARTCHAR aogonek
ENCODING 261
SWIDTH 470 0
DWIDTH 4 0
BBX 5 6 0 -2
BITMAP
60
60
A8
F0
20
30
ENDCHAR
STARTCHAR Cacute
ENCODING 262
SWIDTH 686 0
DWIDTH 5 0
BBX 6 10 1 0
BITMAP
08
10
00
70
88
90
80
80
84
78
ENDCHAR
STARTCHAR cacute
ENCODING 263
SWIDTH 368 0
DWIDTH 3 0
BBX 4 8 0 0
BITMAP
10
20
20
00
60
A0
90
60
ENDCHAR
STARTCHAR Ccircumflex
ENCODING 264
SWIDTH 686 0
DWIDTH 5 0
BBX 6 11 1 0
BITMAP
10
30
30
00
70
88
90
80
80
84
78
ENDCHAR
STARTCHAR ccircumflex
ENCODING 265
SWIDTH 368 0
DWIDTH 3 0
BBX 4 8 0 0
BITMAP
20
60
60
00
60
A0
90
60
ENDCHAR
STARTCHAR Cdotaccent
ENCODING 266
SWIDTH 686 0
DWIDTH 5 0
BBX 6 9 1 0
BITMAP
30
00
70
88
90
80
80
84
78
ENDCHAR
STARTCHAR cdotaccent
ENCODING 267
SWIDTH 368 0
DWIDTH 3 0
BBX 4 6 0 0
BITMAP
60
00
60
A0
90
60
ENDCHAR
STARTCHAR Ccaron
ENCODING 268
SWIDTH 686 0
DWIDTH 5 0
BBX 6 10 1 0
BITMAP
30
30
00
70
88
90
80
80
84
78
ENDCHAR
STARTCHAR ccaron
ENCODING 269
SWIDTH 368 0
DWIDTH 3 0
BBX 4 8 0 0
BITMAP
50
60
20
00
60
A0
90
60
ENDCHAR
STARTCHAR Dcaron
ENCODING 270
SWIDTH 836 0
DWIDTH 7 0
BBX 7 10 0 0
BITMAP
28
10
00
78
84
26
46
44
4C
78
ENDCHAR
STARTCHAR dcaron
ENCODING 271
SWIDTH 470 0
DWIDTH 4 0
BBX 5 8 0 0
BITMAP
08
18
10
10
70
60
A8
D0
ENDCHAR
STARTCHAR Dcroat
ENCODING 272
SWIDTH 821 0
DWIDTH 7 0
BBX 6 7 0 0
BITMAP
38
24
64
F4
44
4C
70
ENDCHAR
STARTCHAR dcroat
ENCODING 273
SWIDTH 470 0
DWIDTH 4 0
BBX 5 7 0 0
BITMAP
10
70
10
70
60
A8
D0
ENDCHAR
STARTCHAR Emacron
ENCODING 274
SWIDTH 686 0
DWIDTH 5 0
BBX 7 8 0 0
BITMAP
18
38
44
44
30
C0
C2
7C
ENDCHAR
STARTCHAR emacron
ENCODING 275
SWIDTH 393 0
DWIDTH 3 0
BBX 4 5 0 0
BITMAP
60
60
A0
D0
60
ENDCHAR
STARTCHAR Ebreve
ENCODING 276
SWIDTH 686 0
DWIDTH 5 0
BBX 7 9 0 0
BITMAP
24
18
38
44
44
30
C0
C2
7C
ENDCHAR
STARTCHAR ebreve
ENCODING 277
SWIDTH 393 0
DWIDTH 3 0
BBX 4 6 0 0
BITMAP
50
60
60
A0
D0
60
ENDCHAR
STARTCHAR Edotaccent
ENCODING 278
SWIDTH 686 0
DWIDTH 5 0
BBX 7 9 0 0
BITMAP
18
00
38
44
44
30
C0
C2
7C
ENDCHAR
STARTCHAR edotaccent
ENCODING 279
SWIDTH 393 0
DWIDTH 3 0
BBX 4 6 0 0
BITMAP
60
00
60
A0
D0
60
ENDCHAR
STARTCHAR Eogonek
ENCODING 280
SWIDTH 686 0
DWIDTH 5 0
BBX 7 9 0 -2
BITMAP
38
44
44
30
C0
C2
7C
10
18
ENDCHAR
STARTCHAR eogonek
ENCODING 281
SWIDTH 393 0
DWIDTH 3 0
BBX 4 6 0 -2
BITMAP
60
A0
D0
60
40
60
ENDCHAR
STARTCHAR Ecaron
ENCODING 282
SWIDTH 686 0
DWIDTH 5 0
BBX 7 10 0 0
BITMAP
18
18
00
38
44
44
30
C0
C2
7C
ENDCHAR
STARTCHAR ecaron
ENCODING 283
SWIDTH 393 0
DWIDTH 3 0
BBX 4 8 0 0
BITMAP
50
60
20
00
60
A0
D0
60
ENDCHAR
STARTCHAR Gcircumflex
ENCODING 284
SWIDTH 811 0
DWIDTH 6 0
BBX 6 15 1 -4
BITMAP
10
30
30
00
70
C8
88
80
98
8C
7C
18
30
30
20
ENDCHAR
STARTCHAR gcircumflex
ENCODING 285
SWIDTH 479 0
DWIDTH 4 0
BBX 5 12 0 -4
BITMAP
20
30
50
00
60
60
A8
F0
60
A0
C0
C0
ENDCHAR
STARTCHAR Gbreve
ENCODING 286
SWIDTH 811 0
DWIDTH 6 0
BBX 6 13 1 -4
BITMAP
48
30
70
C8
88
80
98
8C
7C
18
30
30
20
ENDCHAR
STARTCHAR gbreve
ENCODING 287
SWIDTH 479 0
DWIDTH 4 0
BBX 5 10 0 -4
BITMAP
50
70
60
60
A8
F0
60
A0
C0
C0
ENDCHAR
STARTCHAR Gdotaccent
ENCODING 288
SWIDTH 811 0
DWIDTH 6 0
BBX 6 13 1 -4
BITMAP
30
00
70
C8
88
80
98
8C
7C
18
30
30
20
ENDCHAR
STARTCHAR gdotaccent
ENCODING 289
SWIDTH 479 0
DWIDTH 4 0
BBX 5 10 0 -4
BITMAP
20
00
60
60
A8
F0
60
A0
C0
C0
ENDCHAR
STARTCHAR uni0122
ENCODING 290
SWIDTH 811 0
DWIDTH 6 0
BBX 6 11 1 -4
BITMAP
70
C8
88
80
98
8C
7C
58
70
30
20
ENDCHAR
STARTCHAR uni0123
ENCODING 291
SWIDTH 479 0
DWIDTH 4 0
BBX 5 11 0 -4
BITMAP
20
20
00
60
60
A8
F0
60
A0
C0
C0
ENDCHAR
STARTCHAR Hcircumflex
ENCODING 292
SWIDTH 873 0
DWIDTH 7 0
BBX 8 11 0 0
BITMAP
08
18
14
02
65
A5
26
7C
2C
45
46
ENDCHAR
STARTCHAR hcircumflex
ENCODING 293
SWIDTH 502 0
DWIDTH 4 0
BBX 5 12 0 0
BITMAP
20
30
50
00
20
50
60
60
70
D0
E8
D0
ENDCHAR
STARTCHAR Hbar
ENCODING 294
SWIDTH 856 0
DWIDTH 7 0
BBX 7 7 0 0
BITMAP
24
7E
44
FE
44
44
4C
ENDCHAR
STARTCHAR hbar
ENCODING 295
SWIDTH 502 0
DWIDTH 4 0
BBX 5 7 0 0
BITMAP
40
F0
40
70
D0
E8
50
ENDCHAR
STARTCHAR Itilde
ENCODING 296
SWIDTH 495 0
DWIDTH 4 0
BBX 5 10 0 0
BITMAP
28
50
00
70
20
20
20
60
40
F0
ENDCHAR
STARTCHAR itilde
ENCODING 297
SWIDTH 246 0
DWIDTH 2 0
BBX 3 7 0 0
BITMAP
A0
E0
00
40
80
A0
40
ENDCHAR
STARTCHAR Imacron
ENCODING 298
SWIDTH 495 0
DWIDTH 4 0
BBX 4 8 0 0
BITMAP
30
70
20
20
20
60
40
F0
ENDCHAR
STARTCHAR imacron
ENCODING 299
SWIDTH 246 0
DWIDTH 2 0
BBX 3 5 0 0
BITMAP
E0
40
80
A0
40
ENDCHAR
STARTCHAR Ibreve
ENCODING 300
SWIDTH 495 0
DWIDTH 4 0
BBX 5 9 0 0
BITMAP
48
30
70
20
20
20
60
40
F0
ENDCHAR
STARTCHAR ibreve
ENCODING 301
SWIDTH 246 0
DWIDTH 2 0
BBX 3 6 0 0
BITMAP
A0
E0
40
80
A0
40
ENDCHAR
STARTCHAR Iogonek
ENCODING 302
SWIDTH 495 0
DWIDTH 4 0
BBX 4 9 0 -2
BITMAP
70
20
20
20
60
40
F0
40
60
ENDCHAR
STARTCHAR iogonek
ENCODING 303
SWIDTH 246 0
DWIDTH 2 0
BBX 3 8 0 -2
BITMAP
40
00
40
80
A0
40
80
C0
ENDCHAR
STARTCHAR Idotaccent
ENCODING 304
SWIDTH 495 0
DWIDTH 4 0
BBX 4 9 0 0
BITMAP
30
00
70
20
20
20
60
40
F0
ENDCHAR
STARTCHAR dotlessi
ENCODING 305
SWIDTH 246 0
DWIDTH 2 0
BBX 3 4 0 0
BITMAP
40
80
A0
40
ENDCHAR
STARTCHAR Jcircumflex
ENCODING 308
SWIDTH 743 0
DWIDTH 6 0
BBX 5 12 1 -1
BITMAP
20
30
50
00
F8
88
98
10
70
90
A0
E0
ENDCHAR
STARTCHAR jcircumflex
ENCODING 309
SWIDTH 254 0
DWIDTH 2 0
BBX 5 12 -2 -4
BITMAP
10
28
28
00
10
10
28
30
20
60
A0
C0
ENDCHAR
STARTCHAR uni0136
ENCODING 310
SWIDTH 937 0
DWIDTH 8 0
BBX 9 9 0 -2
BITMAP
7900
5200
5600
3800
1400
9480
6300
0800
1000
ENDCHAR
STARTCHAR uni0137
ENCODING 311
SWIDTH 525 0
DWIDTH 4 0
BBX 5 11 0 -3
BITMAP
20
50
60
60
70
D0
E8
78
00
40
40
ENDCHAR
STARTCHAR kgreenlandic
ENCODING 312
SWIDTH 465 0
DWIDTH 4 0
BBX 5 4 0 0
BITMAP
70
B0
C8
B0
ENDCHAR
STARTCHAR Lacute
ENCODING 313
SWIDTH 673 0
DWIDTH 5 0
BBX 6 10 0 0
BITMAP
04
08
00
38
24
44
40
40
E4
FC
ENDCHAR
STARTCHAR lacute
ENCODING 314
SWIDTH 326 0
DWIDTH 3 0
BBX 5 11 0 0
BITMAP
08
30
00
20
50
60
60
A0
C0
90
60
ENDCHAR
STARTCHAR uni013B
ENCODING 315
SWIDTH 673 0
DWIDTH 5 0
BBX 6 9 0 -2
BITMAP
38
24
44
40
40
E4
FC
20
20
ENDCHAR
STARTCHAR uni013C
ENCODING 316
SWIDTH 326 0
DWIDTH 3 0
BBX 4 11 0 -3
BITMAP
20
50
60
60
A0
C0
90
60
00
40
40
ENDCHAR
STARTCHAR Lcaron
ENCODING 317
SWIDTH 673 0
DWIDTH 5 0
BBX 7 7 0 0
BITMAP
3A
26
44
40
40
E2
FC
ENDCHAR
STARTCHAR lcaron
ENCODING 318
SWIDTH 237 0
DWIDTH 2 0
BBX 4 8 0 0
BITMAP
10
60
40
40
40
80
A0
40
ENDCHAR
STARTCHAR Ldot
ENCODING 319
SWIDTH 673 0
DWIDTH 5 0
BBX 6 7 0 0
BITMAP
38
24
44
58
40
E4
FC
ENDCHAR
STARTCHAR ldot
ENCODING 320
SWIDTH 363 0
DWIDTH 3 0
BBX 4 8 0 0
BITMAP
60
40
40
60
40
80
90
60
ENDCHAR
STARTCHAR Lslash
ENCODING 321
SWIDTH 673 0
DWIDTH 5 0
BBX 6 9 0 0
BITMAP
1C
20
38
24
44
40
40
E4
FC
ENDCHAR
STARTCHAR lslash
ENCODING 322
SWIDTH 326 0
DWIDTH 3 0
BBX 5 9 0 0
BITMAP
38
40
20
50
60
A0
C0
90
60
ENDCHAR
STARTCHAR Nacute
ENCODING 323
SWIDTH 884 0
DWIDTH 7 0
BBX 8 10 0 0
BITMAP
06
08
00
6C
B6
24
24
24
65
46
ENDCHAR
STARTCHAR nacute
ENCODING 324
SWIDTH 496 0
DWIDTH 4 0
BBX 5 8 0 0
BITMAP
10
10
20
00
70
D0
E8
B0
ENDCHAR
STARTCHAR uni0145
ENCODING 325
SWIDTH 884 0
DWIDTH 7 0
BBX 8 9 0 -2
BITMAP
6C
B6
24
24
24
65
46
10
10
ENDCHAR
STARTCHAR uni0146
ENCODING 326
SWIDTH 496 0
DWIDTH 4 0
BBX 5 7 0 -3
BITMAP
70
D0
E8
B0
00
40
40
ENDCHAR
STARTCHAR Ncaron
ENCODING 327
SWIDTH 884 0
DWIDTH 7 0
BBX 8 10 0 0
BITMAP
14
08
00
6C
B6
24
24
24
65
46
ENDCHAR
STARTCHAR ncaron
ENCODING 328
SWIDTH 496 0
DWIDTH 4 0
BBX 5 8 0 0
BITMAP
50
30
20
00
70
D0
E8
B0
ENDCHAR
STARTCHAR napostrophe
ENCODING 329
SWIDTH 496 0
DWIDTH 4 0
BBX 5 7 0 0
BITMAP
80
80
00
70
D0
E8
B0
ENDCHAR
STARTCHAR Eng
ENCODING 330
SWIDTH 884 0
DWIDTH 7 0
BBX 8 10 0 -3
BITMAP
6C
B6
24
24
24
65
4F
08
48
30
ENDCHAR
STARTCHAR eng
ENCODING 331
SWIDTH 495 0
DWIDTH 4 0
BBX 5 7 0 -3
BITMAP
70
D0
E8
B0
20
A0
C0
ENDCHAR
STARTCHAR Omacron
ENCODING 332
SWIDTH 816 0
DWIDTH 7 0
BBX 5 8 1 0
BITMAP
30
70
88
88
88
88
98
70
ENDCHAR
STARTCHAR omacron
ENCODING 333
SWIDTH 451 0
DWIDTH 4 0
BBX 5 5 0 0
BITMAP
60
60
B8
A0
60
ENDCHAR
STARTCHAR Obreve
ENCODING 334
SWIDTH 816 0
DWIDTH 7 0
BBX 5 9 1 0
BITMAP
48
30
70
88
88
88
88
98
70
ENDCHAR
STARTCHAR obreve
ENCODING 335
SWIDTH 451 0
DWIDTH 4 0
BBX 5 6 0 0
BITMAP
50
60
60
B8
A0
60
ENDCHAR
STARTCHAR Ohungarumlaut
ENCODING 336
SWIDTH 816 0
DWIDTH 7 0
BBX 5 10 1 0
BITMAP
28
30
00
70
88
88
88
88
98
70
ENDCHAR
STARTCHAR ohungarumlaut
ENCODING 337
SWIDTH 451 0
DWIDTH 4 0
BBX 5 8 0 0
BITMAP
30
50
60
00
60
B8
A0
60
ENDCHAR
STARTCHAR OE
ENCODING 338
SWIDTH 1124 0
DWIDTH 9 0
BBX 9 7 1 0
BITMAP
7780
CC00
8C00
8F00
8800
9880
7780
ENDCHAR
STARTCHAR oe
ENCODING 339
SWIDTH 668 0
DWIDTH 5 0
BBX 6 4 0 0
BITMAP
78
B8
B4
7C
ENDCHAR
STARTCHAR Racute
ENCODING 340
SWIDTH 880 0
DWIDTH 7 0
BBX 8 10 0 0
BITMAP
04
08
00
3C
54
54
B8
A8
65
66
ENDCHAR
STARTCHAR racute
ENCODING 341
SWIDTH 455 0
DWIDTH 4 0
BBX 5 8 0 0
BITMAP
10
10
20
00
70
B8
D0
80
ENDCHAR
STARTCHAR uni0156
ENCODING 342
SWIDTH 880 0
DWIDTH 7 0
BBX 8 9 0 -2
BITMAP
3C
54
54
B8
A8
65
66
10
10
ENDCHAR
STARTCHAR uni0157
ENCODING 343
SWIDTH 455 0
DWIDTH 4 0
BBX 5 7 0 -3
BITMAP
70
B8
D0
80
00
80
80
ENDCHAR
STARTCHAR Rcaron
ENCODING 344
SWIDTH 880 0
DWIDTH 7 0
BBX 8 10 0 0
BITMAP
14
08
00
3C
54
54
B8
A8
65
66
ENDCHAR
STARTCHAR rcaron
ENCODING 345
SWIDTH 455 0
DWIDTH 4 0
BBX 5 8 0 0
BITMAP
50
50
20
00
70
B8
D0
80
ENDCHAR
STARTCHAR Sacute
ENCODING 346
SWIDTH 693 0
DWIDTH 6 0
BBX 6 10 0 0
BITMAP
0C
10
00
38
4C
48
30
88
88
78
ENDCHAR
STARTCHAR sacute
ENCODING 347
SWIDTH 427 0
DWIDTH 3 0
BBX 4 8 0 0
BITMAP
10
20
20
00
60
40
B0
F0
ENDCHAR
STARTCHAR Scircumflex
ENCODING 348
SWIDTH 693 0
DWIDTH 6 0
BBX 6 11 0 0
BITMAP
10
18
28
00
38
4C
48
30
88
88
78
ENDCHAR
STARTCHAR scircumflex
ENCODING 349
SWIDTH 427 0
DWIDTH 3 0
BBX 4 8 0 0
BITMAP
20
60
50
00
60
40
B0
F0
ENDCHAR
STARTCHAR Scedilla
ENCODING 350
SWIDTH 693 0
DWIDTH 6 0
BBX 6 9 0 -2
BITMAP
38
4C
48
30
88
88
70
10
60
ENDCHAR
STARTCHAR scedilla
ENCODING 351
SWIDTH 427 0
DWIDTH 3 0
BBX 4 6 0 -2
BITMAP
60
40
B0
F0
20
C0
ENDCHAR
STARTCHAR Scaron
ENCODING 352
SWIDTH 693 0
DWIDTH 6 0
BBX 6 10 0 0
BITMAP
28
10
00
38
4C
48
30
88
88
78
ENDCHAR
STARTCHAR scaron
ENCODING 353
SWIDTH 427 0
DWIDTH 3 0
BBX 4 8 0 0
BITMAP
50
60
20
00
60
40
B0
F0
ENDCHAR
STARTCHAR uni0162
ENCODING 354
SWIDTH 697 0
DWIDTH 6 0
BBX 7 9 0 -2
BITMAP
7E
90
90
10
10
10
30
30
30
ENDCHAR
STARTCHAR uni0163
ENCODING 355
SWIDTH 393 0
DWIDTH 3 0
BBX 4 9 0 -2
BITMAP
20
50
60
F0
40
50
60
20
40
ENDCHAR
STARTCHAR Tcaron
ENCODING 356
SWIDTH 697 0
DWIDTH 6 0
BBX 7 10 0 0
BITMAP
14
18
00
7E
90
90
10
10
10
30
ENDCHAR
STARTCHAR tcaron
ENCODING 357
SWIDTH 343 0
DWIDTH 3 0
BBX 4 8 0 0
BITMAP
10
50
40
40
E0
40
50
60
ENDCHAR
STARTCHAR Tbar
ENCODING 358
SWIDTH 697 0
DWIDTH 6 0
BBX 7 7 0 0
BITMAP
7E
90
90
78
10
10
30
ENDCHAR
STARTCHAR tbar
ENCODING 359
SWIDTH 343 0
DWIDTH 3 0
BBX 4 7 0 0
BITMAP
40
40
40
E0
E0
50
60
ENDCHAR
STARTCHAR Utilde
ENCODING 360
SWIDTH 890 0
DWIDTH 7 0
BBX 8 10 0 0
BITMAP
14
1C
00
62
A6
24
24
64
4D
37
ENDCHAR
STARTCHAR utilde
ENCODING 361
SWIDTH 462 0
DWIDTH 4 0
BBX 5 7 0 0
BITMAP
50
70
00
50
A0
A8
70
ENDCHAR
STARTCHAR Umacron
ENCODING 362
SWIDTH 890 0
DWIDTH 7 0
BBX 8 8 0 0
BITMAP
1C
62
A6
24
24
64
4D
37
ENDCHAR
STARTCHAR umacron
ENCODING 363
SWIDTH 462 0
DWIDTH 4 0
BBX 5 5 0 0
BITMAP
70
50
A0
A8
70
ENDCHAR
STARTCHAR Ubreve
ENCODING 364
SWIDTH 890 0
DWIDTH 7 0
BBX 8 9 0 0
BITMAP
14
1C
62
A6
24
24
64
4D
37
ENDCHAR
STARTCHAR ubreve
ENCODING 365
SWIDTH 462 0
DWIDTH 4 0
BBX 5 6 0 0
BITMAP
50
70
50
A0
A8
70
ENDCHAR
STARTCHAR Uring
ENCODING 366
SWIDTH 890 0
DWIDTH 7 0
BBX 8 10 0 0
BITMAP
08
14
08
62
A6
24
24
64
4D
37
ENDCHAR
STARTCHAR uring
ENCODING 367
SWIDTH 462 0
DWIDTH 4 0
BBX 5 7 0 0
BITMAP
20
50
20
50
A0
A8
70
ENDCHAR
STARTCHAR Uhungarumlaut
ENCODING 368
SWIDTH 890 0
DWIDTH 7 0
BBX 8 10 0 0
BITMAP
0C
14
00
62
A6
24
24
64
4D
37
ENDCHAR
STARTCHAR uhungarumlaut
ENCODING 369
SWIDTH 462 0
DWIDTH 4 0
BBX 5 8 0 0
BITMAP
30
30
50
00
50
A0
A8
70
ENDCHAR
STARTCHAR Uogonek
ENCODING 370
SWIDTH 890 0
DWIDTH 7 0
BBX 8 9 0 -2
BITMAP
62
A6
24
24
64
4D
36
02
03
ENDCHAR
STARTCHAR uogonek
ENCODING 371
SWIDTH 462 0
DWIDTH 4 0
BBX 5 6 0 -2
BITMAP
50
A0
A8
70
20
30
ENDCHAR
STARTCHAR Wcircumflex
ENCODING 372
SWIDTH 1217 0
DWIDTH 10 0
BBX 10 11 1 0
BITMAP
0800
0C00
1400
0000
8980
8A80
8A80
99C0
9900
AA00
6C00
ENDCHAR
STARTCHAR wcircumflex
ENCODING 373
SWIDTH 700 0
DWIDTH 6 0
BBX 7 8 0 0
BITMAP
10
30
30
00
AC
AE
D8
50
ENDCHAR
STARTCHAR Ycircumflex
ENCODING 374
SWIDTH 851 0
DWIDTH 7 0
BBX 8 14 0 -3
BITMAP
08
0C
14
00
62
A6
24
24
2C
37
1C
34
28
38
ENDCHAR
STARTCHAR ycircumflex
ENCODING 375
SWIDTH 479 0
DWIDTH 4 0
BBX 5 12 0 -4
BITMAP
20
50
50
00
50
A0
A8
70
60
A0
C0
C0
ENDCHAR
STARTCHAR Ydieresis
ENCODING 376
SWIDTH 851 0
DWIDTH 7 0
BBX 8 12 0 -3
BITMAP
14
00
62
A6
24
24
2C
37
1C
34
28
38
ENDCHAR
STARTCHAR Zacute
ENCODING 377
SWIDTH 721 0
DWIDTH 6 0
BBX 7 10 0 0
BITMAP
0C
18
00
7C
8C
48
10
30
E2
DC
ENDCHAR
STARTCHAR zacute
ENCODING 378
SWIDTH 445 0
DWIDTH 4 0
BBX 5 8 0 0
BITMAP
10
10
20
00
F0
60
C8
70
ENDCHAR
STARTCHAR Zdotaccent
ENCODING 379
SWIDTH 721 0
DWIDTH 6 0
BBX 7 9 0 0
BITMAP
10
00
7C
8C
48
10
30
E2
DC
ENDCHAR
STARTCHAR zdotaccent
ENCODING 380
SWIDTH 445 0
DWIDTH 4 0
BBX 5 6 0 0
BITMAP
20
00
F0
60
C8
70
ENDCHAR
STARTCHAR Zcaron
ENCODING 381
SWIDTH 721 0
DWIDTH 6 0
BBX 7 10 0 0
BITMAP
28
10
00
7C
8C
48
10
30
E2
DC
ENDCHAR
STARTCHAR zcaron
ENCODING 382
SWIDTH 445 0
DWIDTH 4 0
BBX 5 8 0 0
BITMAP
50
50
20
00
F0
60
C8
70
ENDCHAR
STARTCHAR uni018F
ENCODING 399
SWIDTH 792 0
DWIDTH 6 0
BBX 6 7 0 0
BITMAP
38
44
04
7C
C4
4C
78
ENDCHAR
STARTCHAR florin
ENCODING 402
SWIDTH 478 0
DWIDTH 4 0
BBX 5 9 -1 -2
BITMAP
18
10
10
78
20
20
20
20
E0
ENDCHAR
STARTCHAR Ohorn
ENCODING 416
SWIDTH 816 0
DWIDTH 7 0
BBX 6 9 1 0
BITMAP
04
04
78
88
88
88
88
98
70
ENDCHAR
STARTCHAR ohorn
ENCODING 417
SWIDTH 451 0
DWIDTH 4 0
BBX 5 5 0 0
BITMAP
10
70
B8
A0
60
ENDCHAR
STARTCHAR Uhorn
ENCODING 431
SWIDTH 890 0
DWIDTH 7 0
BBX 8 9 0 0
BITMAP
01
01
62
A6
24
24
64
4D
37
ENDCHAR
STARTCHAR uhorn
ENCODING 432
SWIDTH 512 0
DWIDTH 4 0
BBX 5 5 0 0
BITMAP
08
50
A0
A8
70
ENDCHAR
STARTCHAR uni01C4
ENCODING 452
SWIDTH 1531 0
DWIDTH 12 0
BBX 12 10 1 0
BITMAP
00A0
0040
0000
F1F0
0A20
CA40
88C0
8880
9B90
E3F0
ENDCHAR
STARTCHAR uni01C5
ENCODING 453
SWIDTH 1191 0
DWIDTH 10 0
BBX 9 8 1 0
BITMAP
0280
F280
0900
C800
8B80
8B00
9A00
E780
ENDCHAR
STARTCHAR uni01C6
ENCODING 454
SWIDTH 895 0
DWIDTH 7 0
BBX 8 7 0 0
BITMAP
15
16
10
7E
64
A9
DE
ENDCHAR
STARTCHAR uni01C7
ENCODING 455
SWIDTH 1276 0
DWIDTH 10 0
BBX 10 8 0 -1
BITMAP
39C0
2E40
4A40
40C0
4180
E280
FC80
0300
ENDCHAR
STARTCHAR uni01C8
ENCODING 456
SWIDTH 927 0
DWIDTH 7 0
BBX 8 11 0 -4
BITMAP
3C
26
40
42
42
E3
FE
04
0C
0C
08
ENDCHAR
STARTCHAR uni01C9
ENCODING 457
SWIDTH 610 0
DWIDTH 5 0
BBX 6 12 0 -4
BITMAP
20
50
58
60
A8
D0
94
78
30
50
60
60
ENDCHAR
STARTCHAR uni01CA
ENCODING 458
SWIDTH 1497 0
DWIDTH 12 0
BBX 12 8 0 -1
BITMAP
6CF0
B710
2530
2420
24E0
65A0
4740
00C0
ENDCHAR
STARTCHAR uni01CB
ENCODING 459
SWIDTH 1138 0
DWIDTH 9 0
BBX 10 11 0 -4
BITMAP
6C00
B680
2400
2480
2480
6540
4780
0100
0300
0500
0600
ENDCHAR
STARTCHAR uni01CC
ENCODING 460
SWIDTH 750 0
DWIDTH 6 0
BBX 7 10 0 -4
BITMAP
04
00
74
D4
EA
BC
08
18
28
30
ENDCHAR
STARTCHAR Gcaron
ENCODING 486
SWIDTH 811 0
DWIDTH 6 0
BBX 6 14 1 -4
BITMAP
28
30
00
70
C8
88
80
98
8C
7C
18
30
30
20
ENDCHAR
STARTCHAR gcaron
ENCODING 487
SWIDTH 479 0
DWIDTH 4 0
BBX 5 12 0 -4
BITMAP
50
30
20
00
60
60
A8
F0
60
A0
C0
C0
ENDCHAR
STARTCHAR uni01EA
ENCODING 490
SWIDTH 816 0
DWIDTH 7 0
BBX 5 9 1 -2
BITMAP
70
88
88
88
88
98
60
40
30
ENDCHAR
STARTCHAR uni01EB
ENCODING 491
SWIDTH 451 0
DWIDTH 4 0
BBX 5 6 0 -2
BITMAP
60
A0
B8
60
40
60
ENDCHAR
STARTCHAR Aringacute
ENCODING 506
SWIDTH 786 0
DWIDTH 6 0
BBX 8 11 0 0
BITMAP
01
0E
0C
00
1E
24
44
48
C8
4A
7E
ENDCHAR
STARTCHAR aringacute
ENCODING 507
SWIDTH 470 0
DWIDTH 4 0
BBX 5 8 0 0
BITMAP
08
28
50
20
60
60
A8
D0
ENDCHAR
STARTCHAR AEacute
ENCODING 508
SWIDTH 1015 0
DWIDTH 8 0
BBX 9 10 0 0
BITMAP
0100
0600
0000
1F80
6400
4400
4F00
C800
4C80
7780
ENDCHAR
STARTCHAR aeacute
ENCODING 509
SWIDTH 653 0
DWIDTH 5 0
BBX 6 8 0 0
BITMAP
08
08
10
00
78
E8
B4
5C
ENDCHAR
STARTCHAR Oslashacute
ENCODING 510
SWIDTH 816 0
DWIDTH 7 0
BBX 5 11 1 -1
BITMAP
10
20
10
70
A8
A8
A8
A8
D8
F0
40
ENDCHAR
STARTCHAR oslashacute
ENCODING 511
SWIDTH 459 0
DWIDTH 4 0
BBX 5 9 0 -1
BITMAP
20
20
40
20
60
D8
E0
60
40
ENDCHAR
STARTCHAR uni0200
ENCODING 512
SWIDTH 786 0
DWIDTH 6 0
BBX 7 10 0 0
BITMAP
14
14
00
1E
24
44
48
C8
4A
7E
ENDCHAR
STARTCHAR uni0201
ENCODING 513
SWIDTH 470 0
DWIDTH 4 0
BBX 5 8 0 0
BITMAP
60
60
50
00
60
60
A8
D0
ENDCHAR
STARTCHAR uni0202
ENCODING 514
SWIDTH 786 0
DWIDTH 6 0
BBX 7 9 0 0
BITMAP
0C
12
1E
24
44
48
C8
4A
7E
ENDCHAR
STARTCHAR uni0203
ENCODING 515
SWIDTH 470 0
DWIDTH 4 0
BBX 5 7 0 0
BITMAP
70
50
00
60
60
A8
D0
ENDCHAR
STARTCHAR uni0204
ENCODING 516
SWIDTH 686 0
DWIDTH 5 0
BBX 7 10 0 0
BITMAP
28
28
00
38
44
44
30
C0
C2
7C
ENDCHAR
STARTCHAR uni0205
ENCODING 517
SWIDTH 393 0
DWIDTH 3 0
BBX 4 8 0 0
BITMAP
A0
A0
60
00
60
A0
D0
60
ENDCHAR
STARTCHAR uni0206
ENCODING 518
SWIDTH 686 0
DWIDTH 5 0
BBX 7 9 0 0
BITMAP
18
24
38
44
44
30
C0
C2
7C
ENDCHAR
STARTCHAR uni0207
ENCODING 519
SWIDTH 393 0
DWIDTH 3 0
BBX 4 7 0 0
BITMAP
60
50
00
60
A0
D0
60
ENDCHAR
STARTCHAR uni0208
ENCODING 520
SWIDTH 495 0
DWIDTH 4 0
BBX 4 10 0 0
BITMAP
50
50
00
70
20
20
20
60
40
F0
ENDCHAR
STARTCHAR uni0209
ENCODING 521
SWIDTH 246 0
DWIDTH 2 0
BBX 4 8 -1 0
BITMAP
A0
60
60
00
20
40
50
20
ENDCHAR
STARTCHAR uni020A
ENCODING 522
SWIDTH 495 0
DWIDTH 4 0
BBX 5 9 0 0
BITMAP
30
48
70
20
20
20
60
40
F0
ENDCHAR
STARTCHAR uni020B
ENCODING 523
SWIDTH 246 0
DWIDTH 2 0
BBX 3 7 0 0
BITMAP
E0
A0
00
40
80
A0
40
ENDCHAR
STARTCHAR uni020C
ENCODING 524
SWIDTH 816 0
DWIDTH 7 0
BBX 5 10 1 0
BITMAP
50
30
00
70
88
88
88
88
98
70
ENDCHAR
STARTCHAR uni020D
ENCODING 525
SWIDTH 451 0
DWIDTH 4 0
BBX 5 8 0 0
BITMAP
A0
A0
60
00
60
B8
A0
60
ENDCHAR
STARTCHAR uni020E
ENCODING 526
SWIDTH 816 0
DWIDTH 7 0
BBX 5 9 1 0
BITMAP
30
48
70
88
88
88
88
98
70
ENDCHAR
STARTCHAR uni020F
ENCODING 527
SWIDTH 451 0
DWIDTH 4 0
BBX 5 7 0 0
BITMAP
60
90
00
60
B8
A0
60
ENDCHAR
STARTCHAR uni0210
ENCODING 528
SWIDTH 880 0
DWIDTH 7 0
BBX 8 10 0 0
BITMAP
28
18
00
3C
54
54
B8
A8
65
66
ENDCHAR
STARTCHAR uni0211
ENCODING 529
SWIDTH 455 0
DWIDTH 4 0
BBX 5 8 0 0
BITMAP
A0
60
60
00
70
B8
D0
80
ENDCHAR
STARTCHAR uni0212
ENCODING 530
SWIDTH 880 0
DWIDTH 7 0
BBX 8 9 0 0
BITMAP
1C
14
3C
54
54
B8
A8
65
66
ENDCHAR
STARTCHAR uni0213
ENCODING 531
SWIDTH 455 0
DWIDTH 4 0
BBX 5 7 0 0
BITMAP
70
50
00
70
B8
D0
80
ENDCHAR
STARTCHAR uni0214
ENCODING 532
SWIDTH 890 0
DWIDTH 7 0
BBX 8 10 0 0
BITMAP
18
18
00
62
A6
24
24
64
4D
37
ENDCHAR
STARTCHAR uni0215
ENCODING 533
SWIDTH 462 0
DWIDTH 4 0
BBX 5 8 0 0
BITMAP
A0
60
60
00
50
A0
A8
70
ENDCHAR
STARTCHAR uni0216
ENCODING 534
SWIDTH 890 0
DWIDTH 7 0
BBX 8 9 0 0
BITMAP
1C
14
62
A6
24
24
64
4D
37
ENDCHAR
STARTCHAR uni0217
ENCODING 535
SWIDTH 462 0
DWIDTH 4 0
BBX 5 7 0 0
BITMAP
70
50
00
50
A0
A8
70
ENDCHAR
STARTCHAR uni0218
ENCODING 536
SWIDTH 693 0
DWIDTH 6 0
BBX 6 9 0 -2
BITMAP
38
4C
48
30
88
88
78
20
20
ENDCHAR
STARTCHAR uni0219
ENCODING 537
SWIDTH 427 0
DWIDTH 3 0
BBX 4 7 0 -3
BITMAP
60
40
B0
F0
00
40
40
ENDCHAR
STARTCHAR uni021A
ENCODING 538
SWIDTH 697 0
DWIDTH 6 0
BBX 7 9 0 -2
BITMAP
7E
90
90
10
10
10
30
20
20
ENDCHAR
STARTCHAR uni021B
ENCODING 539
SWIDTH 393 0
DWIDTH 3 0
BBX 4 11 0 -3
BITMAP
20
50
60
60
F0
40
50
70
00
40
40
ENDCHAR
STARTCHAR uni022A
ENCODING 554
SWIDTH 816 0
DWIDTH 7 0
BBX 5 10 1 0
BITMAP
30
30
00
70
88
88
88
88
98
70
ENDCHAR
STARTCHAR uni022B
ENCODING 555
SWIDTH 451 0
DWIDTH 4 0
BBX 5 7 0 0
BITMAP
70
70
00
60
B8
A0
60
ENDCHAR
STARTCHAR uni022C
ENCODING 556
SWIDTH 816 0
DWIDTH 7 0
BBX 5 10 1 0
BITMAP
30
58
00
70
88
88
88
88
98
70
ENDCHAR
STARTCHAR uni022D
ENCODING 557
SWIDTH 451 0
DWIDTH 4 0
BBX 5 7 0 0
BITMAP
70
B0
00
60
B8
A0
60
ENDCHAR
STARTCHAR uni0230
ENCODING 560
SWIDTH 816 0
DWIDTH 7 0
BBX 5 10 1 0
BITMAP
30
30
00
70
88
88
88
88
98
70
ENDCHAR
STARTCHAR uni0231
ENCODING 561
SWIDTH 451 0
DWIDTH 4 0
BBX 5 7 0 0
BITMAP
70
60
00
60
B8
A0
60
ENDCHAR
STARTCHAR uni0232
ENCODING 562
SWIDTH 851 0
DWIDTH 7 0
BBX 8 11 0 -3
BITMAP
1C
62
A6
24
24
2C
37
1C
34
28
38
ENDCHAR
STARTCHAR uni0233
ENCODING 563
SWIDTH 479 0
DWIDTH 4 0
BBX 5 9 0 -4
BITMAP
70
50
A0
A8
70
60
A0
C0
C0
ENDCHAR
STARTCHAR uni0237
ENCODING 567
SWIDTH 254 0
DWIDTH 2 0
BBX 5 8 -2 -4
BITMAP
10
10
28
30
20
60
A0
C0
ENDCHAR
STARTCHAR uni0259
ENCODING 601
SWIDTH 458 0
DWIDTH 4 0
BBX 4 4 0 0
BITMAP
E0
30
E0
60
ENDCHAR
STARTCHAR uni02BC
ENCODING 700
SWIDTH 600 0
DWIDTH 5 0
BBX 1 2 2 5
BITMAP
80
80
ENDCHAR
STARTCHAR circumflex
ENCODING 710
SWIDTH 600 0
DWIDTH 5 0
BBX 3 3 1 5
BITMAP
40
A0
A0
ENDCHAR
STARTCHAR caron
ENCODING 711
SWIDTH 600 0
DWIDTH 5 0
BBX 3 3 1 5
BITMAP
A0
60
40
ENDCHAR
STARTCHAR uni02C9
ENCODING 713
SWIDTH 600 0
DWIDTH 5 0
BBX 3 1 1 4
BITMAP
E0
ENDCHAR
STARTCHAR breve
ENCODING 728
SWIDTH 600 0
DWIDTH 5 0
BBX 3 2 1 4
BITMAP
A0
E0
ENDCHAR
STARTCHAR dotaccent
ENCODING 729
SWIDTH 600 0
DWIDTH 5 0
BBX 1 1 2 5
BITMAP
80
ENDCHAR
STARTCHAR ring
ENCODING 730
SWIDTH 600 0
DWIDTH 5 0
BBX 3 3 1 4
BITMAP
40
A0
40
ENDCHAR
STARTCHAR ogonek
ENCODING 731
SWIDTH 600 0
DWIDTH 5 0
BBX 2 3 1 -2
BITMAP
80
80
C0
ENDCHAR
STARTCHAR tilde
ENCODING 732
SWIDTH 600 0
DWIDTH 5 0
BBX 3 2 1 5
BITMAP
A0
E0
ENDCHAR
STARTCHAR hungarumlaut
ENCODING 733
SWIDTH 600 0
DWIDTH 5 0
BBX 3 3 1 5
BITMAP
60
60
A0
ENDCHAR
STARTCHAR gravecomb
ENCODING 768
SWIDTH 0 0
DWIDTH 0 0
BBX 2 3 -4 5
BITMAP
80
80
40
ENDCHAR
STARTCHAR acutecomb
ENCODING 769
SWIDTH 0 0
DWIDTH 0 0
BBX 2 3 -3 5
BITMAP
40
40
80
ENDCHAR
STARTCHAR uni0302
ENCODING 770
SWIDTH 0 0
DWIDTH 0 0
BBX 3 3 -4 5
BITMAP
60
60
A0
ENDCHAR
STARTCHAR tildecomb
ENCODING 771
SWIDTH 0 0
DWIDTH 0 0
BBX 3 2 -4 5
BITMAP
60
E0
ENDCHAR
STARTCHAR uni0304
ENCODING 772
SWIDTH 0 0
DWIDTH 0 0
BBX 3 1 -4 4
BITMAP
E0
ENDCHAR
STARTCHAR uni0306
ENCODING 774
SWIDTH 0 0
DWIDTH 0 0
BBX 3 2 -4 4
BITMAP
A0
60
ENDCHAR
STARTCHAR uni0307
ENCODING 775
SWIDTH 0 0
DWIDTH 0 0
BBX 1 1 -3 5
BITMAP
80
ENDCHAR
STARTCHAR uni0308
ENCODING 776
SWIDTH 0 0
DWIDTH 0 0
BBX 3 1 -4 5
BITMAP
A0
ENDCHAR
STARTCHAR hookabovecomb
ENCODING 777
SWIDTH 0 0
DWIDTH 0 0
BBX 2 3 -3 4
BITMAP
C0
40
80
ENDCHAR
STARTCHAR uni030A
ENCODING 778
SWIDTH 0 0
DWIDTH 0 0
BBX 2 3 -3 4
BITMAP
C0
C0
C0
ENDCHAR
STARTCHAR uni030B
ENCODING 779
SWIDTH 0 0
DWIDTH 0 0
BBX 3 3 -3 5
BITMAP
A0
C0
C0
ENDCHAR
STARTCHAR uni030C
ENCODING 780
SWIDTH 0 0
DWIDTH 0 0
BBX 2 3 -3 5
BITMAP
C0
C0
80
ENDCHAR
STARTCHAR uni030F
ENCODING 783
SWIDTH 0 0
DWIDTH 0 0
BBX 3 3 -4 5
BITMAP
C0
C0
A0
ENDCHAR
STARTCHAR uni0311
ENCODING 785
SWIDTH 0 0
DWIDTH 0 0
BBX 3 2 -4 5
BITMAP
60
A0
ENDCHAR
STARTCHAR uni0312
ENCODING 786
SWIDTH 0 0
DWIDTH 0 0
BBX 1 2 -3 5
BITMAP
80
80
ENDCHAR
STARTCHAR uni031B
ENCODING 795
SWIDTH 0 0
DWIDTH 0 0
BBX 2 2 -3 3
BITMAP
40
C0
ENDCHAR
STARTCHAR dotbelowcomb
ENCODING 803
SWIDTH 0 0
DWIDTH 0 0
BBX 2 1 -4 -2
BITMAP
C0
ENDCHAR
STARTCHAR uni0324
ENCODING 804
SWIDTH 0 0
DWIDTH 0 0
BBX 2 1 -4 -2
BITMAP
C0
ENDCHAR
STARTCHAR uni0326
ENCODING 806
SWIDTH 0 0
DWIDTH 0 0
BBX 1 2 -4 -3
BITMAP
80
80
ENDCHAR
STARTCHAR uni0327
ENCODING 807
SWIDTH 0 0
DWIDTH 0 0
BBX 2 3 -4 -2
BITMAP
C0
40
C0
ENDCHAR
STARTCHAR uni0328
ENCODING 808
SWIDTH 0 0
DWIDTH 0 0
BBX 2 3 -4 -2
BITMAP
40
80
C0
ENDCHAR
STARTCHAR uni032E
ENCODING 814
SWIDTH 0 0
DWIDTH 0 0
BBX 4 2 -5 -3
BITMAP
90
60
ENDCHAR
STARTCHAR uni0331
ENCODING 817
SWIDTH 0 0
DWIDTH 0 0
BBX 2 1 -4 -1
BITMAP
C0
ENDCHAR
STARTCHAR uni0394
ENCODING 916
SWIDTH 700 0
DWIDTH 6 0
BBX 5 7 0 0
BITMAP
10
30
30
30
48
48
F8
ENDCHAR
STARTCHAR uni03A9
ENCODING 937
SWIDTH 816 0
DWIDTH 7 0
BBX 6 7 0 0
BITMAP
38
64
44
44
44
4C
EC
ENDCHAR
STARTCHAR uni03BC
ENCODING 956
SWIDTH 462 0
DWIDTH 4 0
BBX 5 6 0 -2
BITMAP
50
A0
A8
F0
80
80
ENDCHAR
STARTCHAR pi
ENCODING 960
SWIDTH 496 0
DWIDTH 4 0
BBX 5 4 0 0
BITMAP
F0
50
A8
90
ENDCHAR
STARTCHAR uni0400
ENCODING 1024
SWIDTH 686 0
DWIDTH 5 0
BBX 7 10 0 0
BITMAP
20
10
00
38
44
44
30
C0
C2
7C
ENDCHAR
STARTCHAR uni0401
ENCODING 1025
SWIDTH 686 0
DWIDTH 5 0
BBX 7 9 0 0
BITMAP
38
00
38
44
44
30
C0
C2
7C
ENDCHAR
STARTCHAR uni0402
ENCODING 1026
SWIDTH 974 0
DWIDTH 8 0
BBX 9 11 0 -4
BITMAP
7E00
9000
9000
1E00
1200
1280
3300
0600
0A00
0C00
0C00
ENDCHAR
STARTCHAR uni0403
ENCODING 1027
SWIDTH 635 0
DWIDTH 5 0
BBX 7 10 0 0
BITMAP
08
10
00
7E
B0
A0
20
20
20
20
ENDCHAR
STARTCHAR uni0404
ENCODING 1028
SWIDTH 687 0
DWIDTH 6 0
BBX 6 7 1 0
BITMAP
70
C8
90
E0
80
84
78
ENDCHAR
STARTCHAR uni0405
ENCODING 1029
SWIDTH 693 0
DWIDTH 6 0
BBX 6 7 0 0
BITMAP
38
4C
48
30
88
88
78
ENDCHAR
STARTCHAR uni0406
ENCODING 1030
SWIDTH 495 0
DWIDTH 4 0
BBX 4 7 0 0
BITMAP
70
20
20
20
60
40
F0
ENDCHAR
STARTCHAR uni0407
ENCODING 1031
SWIDTH 495 0
DWIDTH 4 0
BBX 4 9 0 0
BITMAP
70
00
70
20
20
20
60
40
F0
ENDCHAR
STARTCHAR uni0408
ENCODING 1032
SWIDTH 743 0
DWIDTH 6 0
BBX 5 8 1 -1
BITMAP
F8
88
98
10
70
90
A0
E0
ENDCHAR
STARTCHAR uni0409
ENCODING 1033
SWIDTH 1158 0
DWIDTH 9 0
BBX 9 7 0 0
BITMAP
0C00
0C00
0F80
1480
1480
A480
E700
ENDCHAR
STARTCHAR uni040A
ENCODING 1034
SWIDTH 1182 0
DWIDTH 9 0
BBX 9 7 0 0
BITMAP
6400
A400
2780
7C80
2480
4480
4700
ENDCHAR
STARTCHAR uni040B
ENCODING 1035
SWIDTH 979 0
DWIDTH 8 0
BBX 9 7 0 0
BITMAP
7E00
9000
9000
1E00
1200
1280
3300
ENDCHAR
STARTCHAR uni040C
ENCODING 1036
SWIDTH 937 0
DWIDTH 8 0
BBX 9 10 0 0
BITMAP
0200
0400
0000
7900
5200
5600
3800
1400
9480
6300
ENDCHAR
STARTCHAR uni040D
ENCODING 1037
SWIDTH 890 0
DWIDTH 7 0
BBX 8 10 0 0
BITMAP
20
10
00
62
A6
24
24
64
4D
37
ENDCHAR
STARTCHAR uni040E
ENCODING 1038
SWIDTH 824 0
DWIDTH 7 0
BBX 8 11 0 -2
BITMAP
14
1C
62
A6
24
2C
34
0F
34
28
38
ENDCHAR
STARTCHAR uni040F
ENCODING 1039
SWIDTH 890 0
DWIDTH 7 0
BBX 8 8 0 -1
BITMAP
62
A6
24
24
64
4D
37
20
ENDCHAR
STARTCHAR uni0410
ENCODING 1040
SWIDTH 786 0
DWIDTH 6 0
BBX 7 7 0 0
BITMAP
1E
24
44
48
C8
4A
7E
ENDCHAR
STARTCHAR uni0411
ENCODING 1041
SWIDTH 917 0
DWIDTH 7 0
BBX 7 7 0 0
BITMAP
7E
90
90
3E
22
22
2E
ENDCHAR
STARTCHAR uni0412
ENCODING 1042
SWIDTH 827 0
DWIDTH 7 0
BBX 7 7 0 0
BITMAP
7C
82
26
58
44
44
78
ENDCHAR
STARTCHAR uni0413
ENCODING 1043
SWIDTH 635 0
DWIDTH 5 0
BBX 7 7 0 0
BITMAP
7E
B0
A0
20
20
20
20
ENDCHAR
STARTCHAR uni0414
ENCODING 1044
SWIDTH 964 0
DWIDTH 8 0
BBX 8 7 0 0
BITMAP
3C
42
12
23
22
E2
DC
ENDCHAR
STARTCHAR uni0415
ENCODING 1045
SWIDTH 686 0
DWIDTH 5 0
BBX 7 7 0 0
BITMAP
38
44
44
30
C0
C2
7C
ENDCHAR
STARTCHAR uni0416
ENCODING 1046
SWIDTH 1234 0
DWIDTH 10 0
BBX 11 7 0 0
BITMAP
74C0
1480
1500
0E00
1500
A520
E4C0
ENDCHAR
STARTCHAR uni0417
ENCODING 1047
SWIDTH 725 0
DWIDTH 6 0
BBX 6 7 0 0
BITMAP
38
48
08
38
4C
C8
70
ENDCHAR
STARTCHAR uni0418
ENCODING 1048
SWIDTH 890 0
DWIDTH 7 0
BBX 8 7 0 0
BITMAP
62
A6
24
24
64
4D
37
ENDCHAR
STARTCHAR uni0419
ENCODING 1049
SWIDTH 890 0
DWIDTH 7 0
BBX 8 9 0 0
BITMAP
14
1C
62
A6
24
24
64
4D
37
ENDCHAR
STARTCHAR uni041A
ENCODING 1050
SWIDTH 937 0
DWIDTH 8 0
BBX 9 7 0 0
BITMAP
7900
5200
5600
3800
1400
9480
6300
ENDCHAR
STARTCHAR uni041B
ENCODING 1051
SWIDTH 861 0
DWIDTH 7 0
BBX 8 7 0 0
BITMAP
0C
0C
0C
14
14
B5
E6
ENDCHAR
STARTCHAR uni041C
ENCODING 1052
SWIDTH 1133 0
DWIDTH 9 0
BBX 10 7 0 0
BITMAP
1900
1B00
1B00
1D00
1D00
AD40
E980
ENDCHAR
STARTCHAR uni041D
ENCODING 1053
SWIDTH 873 0
DWIDTH 7 0
BBX 8 8 0 0
BITMAP
02
65
A5
26
7C
2C
45
46
ENDCHAR
STARTCHAR uni041E
ENCODING 1054
SWIDTH 816 0
DWIDTH 7 0
BBX 5 7 1 0
BITMAP
70
88
88
88
88
98
70
ENDCHAR
STARTCHAR uni041F
ENCODING 1055
SWIDTH 892 0
DWIDTH 7 0
BBX 8 7 0 0
BITMAP
7F
92
A6
24
24
25
27
ENDCHAR
STARTCHAR uni0420
ENCODING 1056
SWIDTH 805 0
DWIDTH 6 0
BBX 7 8 0 -1
BITMAP
3C
44
56
94
B8
B0
A0
60
ENDCHAR
STARTCHAR uni0421
ENCODING 1057
SWIDTH 686 0
DWIDTH 5 0
BBX 6 7 1 0
BITMAP
70
88
90
80
80
84
78
ENDCHAR
STARTCHAR uni0422
ENCODING 1058
SWIDTH 697 0
DWIDTH 6 0
BBX 7 7 0 0
BITMAP
7E
90
90
10
10
10
30
ENDCHAR
STARTCHAR uni0423
ENCODING 1059
SWIDTH 824 0
DWIDTH 7 0
BBX 8 9 0 -2
BITMAP
62
A6
24
2C
34
0F
34
28
38
ENDCHAR
STARTCHAR uni0424
ENCODING 1060
SWIDTH 977 0
DWIDTH 8 0
BBX 8 11 0 -2
BITMAP
40
7C
08
3E
49
4B
D2
7E
10
50
60
ENDCHAR
STARTCHAR uni0425
ENCODING 1061
SWIDTH 712 0
DWIDTH 6 0
BBX 7 7 0 0
BITMAP
64
A8
10
30
30
5A
8C
ENDCHAR
STARTCHAR uni0426
ENCODING 1062
SWIDTH 890 0
DWIDTH 7 0
BBX 8 10 0 -3
BITMAP
62
A6
24
24
64
4C
37
06
0A
0C
ENDCHAR
STARTCHAR uni0427
ENCODING 1063
SWIDTH 773 0
DWIDTH 6 0
BBX 5 7 1 0
BITMAP
88
88
98
98
F0
10
10
ENDCHAR
STARTCHAR uni0428
ENCODING 1064
SWIDTH 1272 0
DWIDTH 10 0
BBX 11 7 0 0
BITMAP
6640
A4C0
24C0
2480
6C80
4DA0
36E0
ENDCHAR
STARTCHAR uni0429
ENCODING 1065
SWIDTH 1272 0
DWIDTH 10 0
BBX 11 10 0 -3
BITMAP
6640
A4C0
2480
2480
6C80
4D80
36E0
00C0
0140
0180
ENDCHAR
STARTCHAR uni042A
ENCODING 1066
SWIDTH 863 0
DWIDTH 7 0
BBX 6 7 1 0
BITMAP
E0
20
78
C4
44
48
38
ENDCHAR
STARTCHAR uni042B
ENCODING 1067
SWIDTH 1078 0
DWIDTH 9 0
BBX 8 7 0 0
BITMAP
21
41
79
CD
4D
4B
73
ENDCHAR
STARTCHAR uni042C
ENCODING 1068
SWIDTH 721 0
DWIDTH 6 0
BBX 6 7 0 0
BITMAP
20
40
78
CC
4C
48
70
ENDCHAR
STARTCHAR uni042D
ENCODING 1069
SWIDTH 755 0
DWIDTH 6 0
BBX 6 7 0 0
BITMAP
78
4C
04
3C
04
88
70
ENDCHAR
STARTCHAR uni042E
ENCODING 1070
SWIDTH 1246 0
DWIDTH 10 0
BBX 10 7 0 0
BITMAP
6780
AAC0
2C40
7840
28C0
4C80
4700
ENDCHAR
STARTCHAR uni042F
ENCODING 1071
SWIDTH 850 0
DWIDTH 7 0
BBX 8 7 0 0
BITMAP
3C
24
64
3C
0C
95
E6
ENDCHAR
STARTCHAR uni0430
ENCODING 1072
SWIDTH 470 0
DWIDTH 4 0
BBX 5 4 0 0
BITMAP
60
60
A8
D0
ENDCHAR
STARTCHAR uni0431
ENCODING 1073
SWIDTH 473 0
DWIDTH 4 0
BBX 5 8 0 0
BITMAP
30
40
60
20
70
B8
A0
60
ENDCHAR
STARTCHAR uni0432
ENCODING 1074
SWIDTH 473 0
DWIDTH 4 0
BBX 5 8 0 0
BITMAP
20
50
60
60
E0
B8
60
60
ENDCHAR
STARTCHAR uni0433
ENCODING 1075
SWIDTH 380 0
DWIDTH 3 0
BBX 4 4 0 0
BITMAP
E0
20
D0
E0
ENDCHAR
STARTCHAR uni0434
ENCODING 1076
SWIDTH 479 0
DWIDTH 4 0
BBX 5 8 0 -4
BITMAP
60
60
A8
F0
60
A0
C0
C0
ENDCHAR
STARTCHAR uni0435
ENCODING 1077
SWIDTH 393 0
DWIDTH 3 0
BBX 4 4 0 0
BITMAP
60
A0
D0
60
ENDCHAR
STARTCHAR uni0436
ENCODING 1078
SWIDTH 717 0
DWIDTH 6 0
BBX 7 4 0 0
BITMAP
5C
2C
B2
DC
ENDCHAR
STARTCHAR uni0437
ENCODING 1079
SWIDTH 435 0
DWIDTH 3 0
BBX 4 8 0 -4
BITMAP
60
20
50
F0
60
A0
C0
C0
ENDCHAR
STARTCHAR uni0438
ENCODING 1080
SWIDTH 462 0
DWIDTH 4 0
BBX 5 4 0 0
BITMAP
50
A0
A8
70
ENDCHAR
STARTCHAR uni0439
ENCODING 1081
SWIDTH 462 0
DWIDTH 4 0
BBX 5 6 0 0
BITMAP
50
60
50
A0
A8
70
ENDCHAR
STARTCHAR uni043A
ENCODING 1082
SWIDTH 465 0
DWIDTH 4 0
BBX 5 4 0 0
BITMAP
70
B0
C8
B0
ENDCHAR
STARTCHAR uni043B
ENCODING 1083
SWIDTH 549 0
DWIDTH 4 0
BBX 5 4 0 0
BITMAP
30
30
D8
D8
ENDCHAR
STARTCHAR uni043C
ENCODING 1084
SWIDTH 734 0
DWIDTH 6 0
BBX 7 4 0 0
BITMAP
28
28
DA
D4
ENDCHAR
STARTCHAR uni043D
ENCODING 1085
SWIDTH 475 0
DWIDTH 4 0
BBX 5 4 0 0
BITMAP
50
E0
A8
B0
ENDCHAR
STARTCHAR uni043E
ENCODING 1086
SWIDTH 451 0
DWIDTH 4 0
BBX 5 4 0 0
BITMAP
60
B8
A0
60
ENDCHAR
STARTCHAR uni043F
ENCODING 1087
SWIDTH 496 0
DWIDTH 4 0
BBX 5 4 0 0
BITMAP
70
D0
E8
B0
ENDCHAR
STARTCHAR uni0440
ENCODING 1088
SWIDTH 481 0
DWIDTH 4 0
BBX 6 8 -1 -4
BITMAP
70
28
74
78
C0
C0
C0
C0
ENDCHAR
STARTCHAR uni0441
ENCODING 1089
SWIDTH 368 0
DWIDTH 3 0
BBX 4 4 0 0
BITMAP
60
A0
90
60
ENDCHAR
STARTCHAR uni0442
ENCODING 1090
SWIDTH 744 0
DWIDTH 6 0
BBX 7 4 0 0
BITMAP
7C
F4
FA
AC
ENDCHAR
STARTCHAR uni0443
ENCODING 1091
SWIDTH 479 0
DWIDTH 4 0
BBX 5 8 0 -4
BITMAP
50
A0
A8
70
60
A0
C0
C0
ENDCHAR
STARTCHAR uni0444
ENCODING 1092
SWIDTH 721 0
DWIDTH 6 0
BBX 7 10 0 -3
BITMAP
10
10
10
68
78
AA
FC
20
20
20
ENDCHAR
STARTCHAR uni0445
ENCODING 1093
SWIDTH 529 0
DWIDTH 4 0
BBX 5 4 0 0
BITMAP
70
20
A8
F8
ENDCHAR
STARTCHAR uni0446
ENCODING 1094
SWIDTH 501 0
DWIDTH 4 0
BBX 5 7 0 -3
BITMAP
50
A0
A8
70
20
60
60
ENDCHAR
STARTCHAR uni0447
ENCODING 1095
SWIDTH 555 0
DWIDTH 4 0
BBX 5 5 0 0
BITMAP
20
78
70
A8
38
ENDCHAR
STARTCHAR uni0448
ENCODING 1096
SWIDTH 693 0
DWIDTH 6 0
BBX 7 4 0 0
BITMAP
58
A8
AA
7C
ENDCHAR
STARTCHAR uni0449
ENCODING 1097
SWIDTH 732 0
DWIDTH 6 0
BBX 7 7 0 -3
BITMAP
58
A8
AA
7C
08
18
18
ENDCHAR
STARTCHAR uni044A
ENCODING 1098
SWIDTH 542 0
DWIDTH 4 0
BBX 5 4 0 0
BITMAP
E0
70
58
78
ENDCHAR
STARTCHAR uni044B
ENCODING 1099
SWIDTH 702 0
DWIDTH 6 0
BBX 7 4 0 0
BITMAP
48
E8
9A
6C
ENDCHAR
STARTCHAR uni044C
ENCODING 1100
SWIDTH 517 0
DWIDTH 4 0
BBX 5 4 0 0
BITMAP
40
E0
98
78
ENDCHAR
STARTCHAR uni044D
ENCODING 1101
SWIDTH 466 0
DWIDTH 4 0
BBX 5 4 0 0
BITMAP
60
78
90
60
ENDCHAR
STARTCHAR uni044E
ENCODING 1102
SWIDTH 676 0
DWIDTH 5 0
BBX 6 4 0 0
BITMAP
78
EC
A8
98
ENDCHAR
STARTCHAR uni044F
ENCODING 1103
SWIDTH 543 0
DWIDTH 4 0
BBX 5 4 0 0
BITMAP
30
50
F8
F8
ENDCHAR
STARTCHAR uni0450
ENCODING 1104
SWIDTH 393 0
DWIDTH 3 0
BBX 4 8 0 0
BITMAP
40
40
40
00
60
A0
D0
60
ENDCHAR
STARTCHAR uni0451
ENCODING 1105
SWIDTH 393 0
DWIDTH 3 0
BBX 4 6 0 0
BITMAP
70
00
60
A0
D0
60
ENDCHAR
STARTCHAR uni0452
ENCODING 1106
SWIDTH 514 0
DWIDTH 4 0
BBX 5 11 0 -4
BITMAP
40
F0
40
70
D0
D8
70
20
60
A0
C0
ENDCHAR
STARTCHAR uni0453
ENCODING 1107
SWIDTH 380 0
DWIDTH 3 0
BBX 4 8 0 0
BITMAP
20
20
40
00
E0
20
D0
E0
ENDCHAR
STARTCHAR uni0454
ENCODING 1108
SWIDTH 379 0
DWIDTH 3 0
BBX 4 4 0 0
BITMAP
60
C0
90
60
ENDCHAR
STARTCHAR uni0455
ENCODING 1109
SWIDTH 427 0
DWIDTH 3 0
BBX 4 4 0 0
BITMAP
60
40
B0
F0
ENDCHAR
STARTCHAR uni0456
ENCODING 1110
SWIDTH 246 0
DWIDTH 2 0
BBX 3 6 0 0
BITMAP
40
00
40
80
A0
40
ENDCHAR
STARTCHAR uni0457
ENCODING 1111
SWIDTH 246 0
DWIDTH 2 0
BBX 3 6 0 0
BITMAP
A0
00
40
80
A0
40
ENDCHAR
STARTCHAR uni0458
ENCODING 1112
SWIDTH 254 0
DWIDTH 2 0
BBX 5 10 -2 -4
BITMAP
10
00
10
10
28
30
20
60
A0
C0
ENDCHAR
STARTCHAR uni0459
ENCODING 1113
SWIDTH 794 0
DWIDTH 6 0
BBX 7 4 0 0
BITMAP
30
3C
D6
DE
ENDCHAR
STARTCHAR uni045A
ENCODING 1114
SWIDTH 751 0
DWIDTH 6 0
BBX 7 4 0 0
BITMAP
50
F8
A6
9C
ENDCHAR
STARTCHAR uni045B
ENCODING 1115
SWIDTH 502 0
DWIDTH 4 0
BBX 5 7 0 0
BITMAP
40
F0
40
70
D0
E8
50
ENDCHAR
STARTCHAR uni045C
ENCODING 1116
SWIDTH 465 0
DWIDTH 4 0
BBX 5 8 0 0
BITMAP
10
10
20
00
70
B0
C8
B0
ENDCHAR
STARTCHAR uni045D
ENCODING 1117
SWIDTH 462 0
DWIDTH 4 0
BBX 5 8 0 0
BITMAP
40
40
20
00
50
A0
A8
70
ENDCHAR
STARTCHAR uni045E
ENCODING 1118
SWIDTH 479 0
DWIDTH 4 0
BBX 5 10 0 -4
BITMAP
50
60
50
A0
A8
70
60
A0
C0
C0
ENDCHAR
STARTCHAR uni045F
ENCODING 1119
SWIDTH 600 0
DWIDTH 5 0
BBX 5 5 0 -1
BITMAP
50
A0
A8
70
40
ENDCHAR
STARTCHAR uni0462
ENCODING 1122
SWIDTH 721 0
DWIDTH 6 0
BBX 6 7 0 0
BITMAP
20
F0
78
CC
4C
48
70
ENDCHAR
STARTCHAR uni0463
ENCODING 1123
SWIDTH 517 0
DWIDTH 4 0
BBX 5 6 0 0
BITMAP
40
40
E0
E0
98
78
ENDCHAR
STARTCHAR uni046A
ENCODING 1130
SWIDTH 1234 0
DWIDTH 10 0
BBX 11 7 0 0
BITMAP
3FC0
1080
1100
0E00
1500
A520
E4C0
ENDCHAR
STARTCHAR uni046B
ENCODING 1131
SWIDTH 788 0
DWIDTH 6 0
BBX 7 7 0 0
BITMAP
08
08
18
3C
18
BA
D6
ENDCHAR
STARTCHAR uni0472
ENCODING 1138
SWIDTH 816 0
DWIDTH 7 0
BBX 5 7 1 0
BITMAP
70
C8
88
F8
88
98
70
ENDCHAR
STARTCHAR uni0473
ENCODING 1139
SWIDTH 451 0
DWIDTH 4 0
BBX 5 4 0 0
BITMAP
60
A0
F8
60
ENDCHAR
STARTCHAR uni0474
ENCODING 1140
SWIDTH 797 0
DWIDTH 6 0
BBX 7 7 1 0
BITMAP
8E
88
88
88
90
90
60
ENDCHAR
STARTCHAR uni0475
ENCODING 1141
SWIDTH 420 0
DWIDTH 3 0
BBX 4 4 0 0
BITMAP
90
A0
A0
40
ENDCHAR
STARTCHAR uni048A
ENCODING 1162
SWIDTH 890 0
DWIDTH 7 0
BBX 8 12 0 -2
BITMAP
14
1C
00
62
A6
24
24
64
4D
37
02
04
ENDCHAR
STARTCHAR uni048B
ENCODING 1163
SWIDTH 462 0
DWIDTH 4 0
BBX 5 8 0 -1
BITMAP
10
70
00
50
A0
A8
70
20
ENDCHAR
STARTCHAR uni048C
ENCODING 1164
SWIDTH 721 0
DWIDTH 6 0
BBX 6 7 0 0
BITMAP
20
F0
78
CC
4C
48
70
ENDCHAR
STARTCHAR uni048D
ENCODING 1165
SWIDTH 517 0
DWIDTH 4 0
BBX 5 6 0 0
BITMAP
40
40
E0
E0
98
78
ENDCHAR
STARTCHAR uni048E
ENCODING 1166
SWIDTH 805 0
DWIDTH 6 0
BBX 7 8 0 -1
BITMAP
3C
44
5E
96
B8
B0
A0
60
ENDCHAR
STARTCHAR uni048F
ENCODING 1167
SWIDTH 481 0
DWIDTH 4 0
BBX 6 8 -1 -4
BITMAP
70
28
74
78
C0
C0
C0
C0
ENDCHAR
STARTCHAR uni0490
ENCODING 1168
SWIDTH 645 0
DWIDTH 5 0
BBX 7 10 0 0
BITMAP
02
02
02
7E
B0
A0
20
20
20
20
ENDCHAR
STARTCHAR uni0491
ENCODING 1169
SWIDTH 394 0
DWIDTH 3 0
BBX 3 6 0 0
BITMAP
20
20
60
80
80
80
ENDCHAR
STARTCHAR uni0492
ENCODING 1170
SWIDTH 635 0
DWIDTH 5 0
BBX 7 7 0 0
BITMAP
7E
B0
A0
70
20
20
20
ENDCHAR
STARTCHAR uni0493
ENCODING 1171
SWIDTH 380 0
DWIDTH 3 0
BBX 4 4 0 0
BITMAP
E0
20
F0
E0
ENDCHAR
STARTCHAR uni0494
ENCODING 1172
SWIDTH 884 0
DWIDTH 7 0
BBX 8 11 0 -4
BITMAP
7E
B0
A0
2C
36
25
26
0C
1C
14
18
ENDCHAR
STARTCHAR uni0495
ENCODING 1173
SWIDTH 441 0
DWIDTH 4 0
BBX 4 7 0 -3
BITMAP
E0
20
D0
F0
60
A0
40
ENDCHAR
STARTCHAR uni0496
ENCODING 1174
SWIDTH 1234 0
DWIDTH 10 0
BBX 11 10 0 -3
BITMAP
74C0
1480
1500
0E00
1500
A520
E4C0
0180
0180
0180
ENDCHAR
STARTCHAR uni0497
ENCODING 1175
SWIDTH 803 0
DWIDTH 6 0
BBX 7 7 0 -3
BITMAP
5C
2C
B2
DE
0C
14
08
ENDCHAR
STARTCHAR uni0498
ENCODING 1176
SWIDTH 725 0
DWIDTH 6 0
BBX 6 10 0 -3
BITMAP
38
48
08
38
4C
C8
78
30
50
60
ENDCHAR
STARTCHAR uni0499
ENCODING 1177
SWIDTH 445 0
DWIDTH 4 0
BBX 4 7 0 -3
BITMAP
60
A0
70
F0
60
60
40
ENDCHAR
STARTCHAR uni049A
ENCODING 1178
SWIDTH 937 0
DWIDTH 8 0
BBX 8 10 0 -3
BITMAP
79
52
56
38
14
95
63
06
0A
0C
ENDCHAR
STARTCHAR uni049B
ENCODING 1179
SWIDTH 531 0
DWIDTH 4 0
BBX 5 7 0 -3
BITMAP
70
B0
C8
B8
30
50
60
ENDCHAR
STARTCHAR uni049C
ENCODING 1180
SWIDTH 937 0
DWIDTH 8 0
BBX 9 7 0 0
BITMAP
7900
5200
5E00
3800
1C00
9C80
6300
ENDCHAR
STARTCHAR uni049D
ENCODING 1181
SWIDTH 485 0
DWIDTH 4 0
BBX 5 4 0 0
BITMAP
70
F0
E8
B0
ENDCHAR
STARTCHAR uni049E
ENCODING 1182
SWIDTH 937 0
DWIDTH 8 0
BBX 9 7 0 0
BITMAP
7900
7A00
5600
3800
1400
9480
6300
ENDCHAR
STARTCHAR uni049F
ENCODING 1183
SWIDTH 473 0
DWIDTH 4 0
BBX 5 7 0 0
BITMAP
40
F0
40
70
B0
C8
70
ENDCHAR
STARTCHAR uni04A0
ENCODING 1184
SWIDTH 937 0
DWIDTH 8 0
BBX 9 7 0 0
BITMAP
7900
1200
1400
3800
1400
9480
6300
ENDCHAR
STARTCHAR uni04A1
ENCODING 1185
SWIDTH 555 0
DWIDTH 4 0
BBX 5 4 0 0
BITMAP
D8
68
68
58
ENDCHAR
STARTCHAR uni04A2
ENCODING 1186
SWIDTH 907 0
DWIDTH 7 0
BBX 8 11 0 -3
BITMAP
02
65
A5
26
7C
2C
45
47
06
0A
0C
ENDCHAR
STARTCHAR uni04A3
ENCODING 1187
SWIDTH 515 0
DWIDTH 4 0
BBX 5 7 0 -3
BITMAP
50
E0
A8
90
20
60
60
ENDCHAR
STARTCHAR uni04A4
ENCODING 1188
SWIDTH 873 0
DWIDTH 7 0
BBX 9 7 0 0
BITMAP
6380
A400
2400
7C00
2C00
4500
4600
ENDCHAR
STARTCHAR uni04A5
ENCODING 1189
SWIDTH 475 0
DWIDTH 4 0
BBX 5 5 0 0
BITMAP
10
50
E0
A8
B0
ENDCHAR
STARTCHAR uni04A8
ENCODING 1192
SWIDTH 997 0
DWIDTH 8 0
BBX 8 7 1 0
BITMAP
6C
D2
B2
A2
B2
95
7E
ENDCHAR
STARTCHAR uni04A9
ENCODING 1193
SWIDTH 574 0
DWIDTH 5 0
BBX 6 4 0 0
BITMAP
50
A8
B4
78
ENDCHAR
STARTCHAR uni04AA
ENCODING 1194
SWIDTH 781 0
DWIDTH 6 0
BBX 6 11 1 -4
BITMAP
70
C8
90
80
80
8C
78
10
30
50
20
ENDCHAR
STARTCHAR uni04AB
ENCODING 1195
SWIDTH 431 0
DWIDTH 3 0
BBX 4 7 0 -3
BITMAP
60
A0
90
70
60
A0
40
ENDCHAR
STARTCHAR uni04AC
ENCODING 1196
SWIDTH 697 0
DWIDTH 6 0
BBX 7 10 0 -3
BITMAP
7E
90
90
10
10
10
30
30
50
60
ENDCHAR
STARTCHAR uni04AD
ENCODING 1197
SWIDTH 784 0
DWIDTH 6 0
BBX 7 7 0 -3
BITMAP
7C
F4
FA
A6
0C
14
18
ENDCHAR
STARTCHAR uni04AE
ENCODING 1198
SWIDTH 677 0
DWIDTH 5 0
BBX 5 7 1 0
BITMAP
88
D0
70
60
20
20
60
ENDCHAR
STARTCHAR uni04AF
ENCODING 1199
SWIDTH 472 0
DWIDTH 4 0
BBX 5 7 0 -3
BITMAP
B0
78
60
40
40
40
40
ENDCHAR
STARTCHAR uni04B0
ENCODING 1200
SWIDTH 677 0
DWIDTH 5 0
BBX 5 7 1 0
BITMAP
88
D0
70
60
70
20
60
ENDCHAR
STARTCHAR uni04B1
ENCODING 1201
SWIDTH 472 0
DWIDTH 4 0
BBX 5 7 0 -3
BITMAP
B0
78
60
40
E0
40
40
ENDCHAR
STARTCHAR uni04B2
ENCODING 1202
SWIDTH 716 0
DWIDTH 6 0
BBX 7 10 0 -3
BITMAP
64
A8
10
30
30
5A
8C
18
38
18
ENDCHAR
STARTCHAR uni04B3
ENCODING 1203
SWIDTH 601 0
DWIDTH 5 0
BBX 6 7 0 -3
BITMAP
70
20
A4
F8
10
30
20
ENDCHAR
STARTCHAR uni04B4
ENCODING 1204
SWIDTH 1040 0
DWIDTH 8 0
BBX 9 10 0 -3
BITMAP
7D00
9100
9300
1200
1200
3600
1B80
0300
0500
0600
ENDCHAR
STARTCHAR uni04B5
ENCODING 1205
SWIDTH 501 0
DWIDTH 4 0
BBX 5 9 0 -3
BITMAP
70
00
50
A0
A8
70
20
60
60
ENDCHAR
STARTCHAR uni04B6
ENCODING 1206
SWIDTH 804 0
DWIDTH 6 0
BBX 6 10 1 -3
BITMAP
88
88
98
98
F0
10
1C
18
28
30
ENDCHAR
STARTCHAR uni04B7
ENCODING 1207
SWIDTH 631 0
DWIDTH 5 0
BBX 6 8 0 -3
BITMAP
20
78
70
A4
B8
10
30
30
ENDCHAR
STARTCHAR uni04B8
ENCODING 1208
SWIDTH 773 0
DWIDTH 6 0
BBX 5 7 1 0
BITMAP
88
88
B8
B8
F0
50
10
ENDCHAR
STARTCHAR uni04B9
ENCODING 1209
SWIDTH 575 0
DWIDTH 5 0
BBX 6 5 0 0
BITMAP
20
78
50
A4
38
ENDCHAR
STARTCHAR uni04BA
ENCODING 1210
SWIDTH 755 0
DWIDTH 6 0
BBX 6 7 1 0
BITMAP
C0
80
80
F0
98
94
98
ENDCHAR
STARTCHAR uni04BB
ENCODING 1211
SWIDTH 502 0
DWIDTH 4 0
BBX 5 8 0 0
BITMAP
20
50
60
60
70
D0
E8
D0
ENDCHAR
STARTCHAR uni04BC
ENCODING 1212
SWIDTH 808 0
DWIDTH 6 0
BBX 7 7 0 0
BITMAP
1C
26
A6
7C
20
22
1E
ENDCHAR
STARTCHAR uni04BD
ENCODING 1213
SWIDTH 483 0
DWIDTH 4 0
BBX 5 4 0 0
BITMAP
30
50
E8
70
ENDCHAR
STARTCHAR uni04BE
ENCODING 1214
SWIDTH 808 0
DWIDTH 6 0
BBX 7 9 0 -2
BITMAP
1C
26
A6
7C
20
22
1E
10
18
ENDCHAR
STARTCHAR uni04BF
ENCODING 1215
SWIDTH 483 0
DWIDTH 4 0
BBX 5 6 0 -2
BITMAP
30
50
E8
30
20
30
ENDCHAR
STARTCHAR uni04C0
ENCODING 1216
SWIDTH 495 0
DWIDTH 4 0
BBX 4 7 0 0
BITMAP
70
20
20
20
60
40
F0
ENDCHAR
STARTCHAR uni04C1
ENCODING 1217
SWIDTH 1234 0
DWIDTH 10 0
BBX 11 9 0 0
BITMAP
0500
0600
74C0
1480
1500
0E00
1500
A520
E4C0
ENDCHAR
STARTCHAR uni04C2
ENCODING 1218
SWIDTH 717 0
DWIDTH 6 0
BBX 7 6 0 0
BITMAP
28
30
5C
2C
B2
DC
ENDCHAR
STARTCHAR uni04C3
ENCODING 1219
SWIDTH 937 0
DWIDTH 8 0
BBX 8 10 0 -3
BITMAP
79
52
56
38
14
95
63
06
0A
0C
ENDCHAR
STARTCHAR uni04C4
ENCODING 1220
SWIDTH 531 0
DWIDTH 4 0
BBX 5 7 0 -3
BITMAP
70
B0
C8
B8
30
50
60
ENDCHAR
STARTCHAR uni04C5
ENCODING 1221
SWIDTH 861 0
DWIDTH 7 0
BBX 8 9 0 -2
BITMAP
0C
0C
0C
14
14
B5
E6
06
04
ENDCHAR
STARTCHAR uni04C6
ENCODING 1222
SWIDTH 549 0
DWIDTH 4 0
BBX 5 6 0 -2
BITMAP
30
30
D8
D8
10
10
ENDCHAR
STARTCHAR uni04C7
ENCODING 1223
SWIDTH 907 0
DWIDTH 7 0
BBX 8 11 0 -3
BITMAP
02
65
A5
26
7C
2C
45
47
06
0A
0C
ENDCHAR
STARTCHAR uni04C8
ENCODING 1224
SWIDTH 515 0
DWIDTH 4 0
BBX 5 7 0 -3
BITMAP
50
E0
A8
90
20
60
60
ENDCHAR
STARTCHAR uni04C9
ENCODING 1225
SWIDTH 873 0
DWIDTH 7 0
BBX 8 10 0 -2
BITMAP
02
65
A5
26
7C
2C
45
46
02
04
ENDCHAR
STARTCHAR uni04CA
ENCODING 1226
SWIDTH 475 0
DWIDTH 4 0
BBX 5 5 0 -1
BITMAP
50
E0
A8
B0
20
ENDCHAR
STARTCHAR uni04CB
ENCODING 1227
SWIDTH 773 0
DWIDTH 6 0
BBX 5 10 1 -3
BITMAP
88
88
98
98
F0
10
10
60
E0
60
ENDCHAR
STARTCHAR uni04CC
ENCODING 1228
SWIDTH 555 0
DWIDTH 4 0
BBX 5 6 0 -1
BITMAP
20
78
70
A8
38
10
ENDCHAR
STARTCHAR uni04CD
ENCODING 1229
SWIDTH 1133 0
DWIDTH 9 0
BBX 10 9 0 -2
BITMAP
1900
1B00
1B00
1D00
1D00
AD40
E9C0
0080
0100
ENDCHAR
STARTCHAR uni04CE
ENCODING 1230
SWIDTH 734 0
DWIDTH 6 0
BBX 7 6 0 -2
BITMAP
28
28
DA
D4
04
08
ENDCHAR
STARTCHAR uni04CF
ENCODING 1231
SWIDTH 222 0
DWIDTH 2 0
BBX 2 7 0 0
BITMAP
40
40
40
40
40
80
80
ENDCHAR
STARTCHAR uni04D0
ENCODING 1232
SWIDTH 786 0
DWIDTH 6 0
BBX 7 9 0 0
BITMAP
12
0C
1E
24
44
48
C8
4A
7E
ENDCHAR
STARTCHAR uni04D1
ENCODING 1233
SWIDTH 470 0
DWIDTH 4 0
BBX 5 6 0 0
BITMAP
50
60
60
60
A8
D0
ENDCHAR
STARTCHAR uni04D2
ENCODING 1234
SWIDTH 786 0
DWIDTH 6 0
BBX 7 9 0 0
BITMAP
1C
00
1E
24
44
48
C8
4A
7E
ENDCHAR
STARTCHAR uni04D3
ENCODING 1235
SWIDTH 470 0
DWIDTH 4 0
BBX 5 6 0 0
BITMAP
50
00
60
60
A8
D0
ENDCHAR
STARTCHAR uni04D4
ENCODING 1236
SWIDTH 1015 0
DWIDTH 8 0
BBX 9 7 0 0
BITMAP
1F80
6400
4400
4F00
C800
4C80
7780
ENDCHAR
STARTCHAR uni04D5
ENCODING 1237
SWIDTH 653 0
DWIDTH 5 0
BBX 6 4 0 0
BITMAP
78
E8
B4
5C
ENDCHAR
STARTCHAR uni04D6
ENCODING 1238
SWIDTH 686 0
DWIDTH 5 0
BBX 7 9 0 0
BITMAP
24
18
38
44
44
30
C0
C2
7C
ENDCHAR
STARTCHAR uni04D7
ENCODING 1239
SWIDTH 393 0
DWIDTH 3 0
BBX 4 6 0 0
BITMAP
50
60
60
A0
D0
60
ENDCHAR
STARTCHAR uni04D8
ENCODING 1240
SWIDTH 792 0
DWIDTH 6 0
BBX 6 7 0 0
BITMAP
38
44
04
7C
C4
4C
78
ENDCHAR
STARTCHAR uni04D9
ENCODING 1241
SWIDTH 455 0
DWIDTH 4 0
BBX 5 4 0 0
BITMAP
60
F8
A0
E0
ENDCHAR
STARTCHAR uni04DA
ENCODING 1242
SWIDTH 792 0
DWIDTH 6 0
BBX 6 9 0 0
BITMAP
38
00
38
44
04
7C
C4
4C
78
ENDCHAR
STARTCHAR uni04DB
ENCODING 1243
SWIDTH 455 0
DWIDTH 4 0
BBX 5 6 0 0
BITMAP
70
00
60
F8
A0
E0
ENDCHAR
STARTCHAR uni04DC
ENCODING 1244
SWIDTH 1234 0
DWIDTH 10 0
BBX 11 9 0 0
BITMAP
0700
0000
74C0
1480
1500
0E00
1500
A520
E4C0
ENDCHAR
STARTCHAR uni04DD
ENCODING 1245
SWIDTH 717 0
DWIDTH 6 0
BBX 7 6 0 0
BITMAP
28
00
5C
2C
B2
DC
ENDCHAR
STARTCHAR uni04DE
ENCODING 1246
SWIDTH 725 0
DWIDTH 6 0
BBX 6 9 0 0
BITMAP
28
00
38
48
08
38
4C
C8
70
ENDCHAR
STARTCHAR uni04DF
ENCODING 1247
SWIDTH 435 0
DWIDTH 3 0
BBX 4 10 0 -4
BITMAP
60
00
60
20
50
F0
60
A0
C0
C0
ENDCHAR
STARTCHAR uni04E0
ENCODING 1248
SWIDTH 744 0
DWIDTH 6 0
BBX 6 7 0 0
BITMAP
3C
4C
08
38
4C
C8
70
ENDCHAR
STARTCHAR uni04E1
ENCODING 1249
SWIDTH 435 0
DWIDTH 3 0
BBX 4 8 0 -4
BITMAP
F0
60
D0
60
60
A0
C0
C0
ENDCHAR
STARTCHAR uni04E2
ENCODING 1250
SWIDTH 890 0
DWIDTH 7 0
BBX 8 8 0 0
BITMAP
1C
62
A6
24
24
64
4D
37
ENDCHAR
STARTCHAR uni04E3
ENCODING 1251
SWIDTH 462 0
DWIDTH 4 0
BBX 5 5 0 0
BITMAP
70
50
A0
A8
70
ENDCHAR
STARTCHAR uni04E4
ENCODING 1252
SWIDTH 890 0
DWIDTH 7 0
BBX 8 9 0 0
BITMAP
14
00
62
A6
24
24
64
4D
37
ENDCHAR
STARTCHAR uni04E5
ENCODING 1253
SWIDTH 462 0
DWIDTH 4 0
BBX 5 6 0 0
BITMAP
50
00
50
A0
A8
70
ENDCHAR
STARTCHAR uni04E6
ENCODING 1254
SWIDTH 816 0
DWIDTH 7 0
BBX 5 9 1 0
BITMAP
30
00
70
88
88
88
88
98
70
ENDCHAR
STARTCHAR uni04E7
ENCODING 1255
SWIDTH 451 0
DWIDTH 4 0
BBX 5 6 0 0
BITMAP
70
00
60
B8
A0
60
ENDCHAR
STARTCHAR uni04E8
ENCODING 1256
SWIDTH 816 0
DWIDTH 7 0
BBX 5 7 1 0
BITMAP
70
88
88
F8
88
98
70
ENDCHAR
STARTCHAR uni04E9
ENCODING 1257
SWIDTH 451 0
DWIDTH 4 0
BBX 5 4 0 0
BITMAP
60
F8
A0
60
ENDCHAR
STARTCHAR uni04EA
ENCODING 1258
SWIDTH 816 0
DWIDTH 7 0
BBX 5 9 1 0
BITMAP
30
00
70
88
88
F8
88
98
70
ENDCHAR
STARTCHAR uni04EB
ENCODING 1259
SWIDTH 451 0
DWIDTH 4 0
BBX 5 6 0 0
BITMAP
70
00
60
F8
A0
60
ENDCHAR
STARTCHAR uni04EC
ENCODING 1260
SWIDTH 755 0
DWIDTH 6 0
BBX 6 9 0 0
BITMAP
28
00
78
4C
04
3C
04
88
70
ENDCHAR
STARTCHAR uni04ED
ENCODING 1261
SWIDTH 466 0
DWIDTH 4 0
BBX 5 6 0 0
BITMAP
50
00
60
78
90
60
ENDCHAR
STARTCHAR uni04EE
ENCODING 1262
SWIDTH 824 0
DWIDTH 7 0
BBX 8 10 0 -2
BITMAP
1C
62
A6
24
2C
34
0F
34
28
38
ENDCHAR
STARTCHAR uni04EF
ENCODING 1263
SWIDTH 479 0
DWIDTH 4 0
BBX 5 9 0 -4
BITMAP
70
50
A0
A8
70
60
A0
C0
C0
ENDCHAR
STARTCHAR uni04F0
ENCODING 1264
SWIDTH 824 0
DWIDTH 7 0
BBX 8 11 0 -2
BITMAP
1C
00
62
A6
24
2C
34
0F
34
28
38
ENDCHAR
STARTCHAR uni04F1
ENCODING 1265
SWIDTH 479 0
DWIDTH 4 0
BBX 5 10 0 -4
BITMAP
50
00
50
A0
A8
70
60
A0
C0
C0
ENDCHAR
STARTCHAR uni04F2
ENCODING 1266
SWIDTH 824 0
DWIDTH 7 0
BBX 8 12 0 -2
BITMAP
14
14
00
62
A6
24
2C
34
0F
34
28
38
ENDCHAR
STARTCHAR uni04F3
ENCODING 1267
SWIDTH 479 0
DWIDTH 4 0
BBX 5 12 0 -4
BITMAP
30
30
50
00
50
A0
A8
70
60
A0
C0
C0
ENDCHAR
STARTCHAR uni04F4
ENCODING 1268
SWIDTH 773 0
DWIDTH 6 0
BBX 5 9 1 0
BITMAP
50
00
88
88
98
98
F0
10
10
ENDCHAR
STARTCHAR uni04F5
ENCODING 1269
SWIDTH 555 0
DWIDTH 4 0
BBX 5 6 0 0
BITMAP
28
20
78
70
A8
38
ENDCHAR
STARTCHAR uni04F6
ENCODING 1270
SWIDTH 600 0
DWIDTH 5 0
BBX 7 10 0 -3
BITMAP
7E
B0
A0
20
20
20
30
60
60
60
ENDCHAR
STARTCHAR uni04F7
ENCODING 1271
SWIDTH 441 0
DWIDTH 4 0
BBX 4 7 0 -3
BITMAP
E0
20
D0
F0
60
A0
40
ENDCHAR
STARTCHAR uni04F8
ENCODING 1272
SWIDTH 1078 0
DWIDTH 9 0
BBX 8 9 0 0
BITMAP
0E
00
21
41
79
CD
4D
4B
73
ENDCHAR
STARTCHAR uni04F9
ENCODING 1273
SWIDTH 702 0
DWIDTH 6 0
BBX 7 6 0 0
BITMAP
28
00
48
E8
9A
6C
ENDCHAR
STARTCHAR uni04FA
ENCODING 1274
SWIDTH 635 0
DWIDTH 5 0
BBX 8 10 -1 -3
BITMAP
3F
58
50
38
10
10
10
30
60
E0
ENDCHAR
STARTCHAR uni04FB
ENCODING 1275
SWIDTH 441 0
DWIDTH 4 0
BBX 4 7 0 -3
BITMAP
E0
20
F0
F0
60
A0
40
ENDCHAR
STARTCHAR uni04FC
ENCODING 1276
SWIDTH 716 0
DWIDTH 6 0
BBX 7 10 0 -3
BITMAP
64
A8
10
30
30
5A
8C
18
38
18
ENDCHAR
STARTCHAR uni04FD
ENCODING 1277
SWIDTH 601 0
DWIDTH 5 0
BBX 6 7 0 -3
BITMAP
70
20
A4
F8
10
30
20
ENDCHAR
STARTCHAR uni04FE
ENCODING 1278
SWIDTH 712 0
DWIDTH 6 0
BBX 7 7 0 0
BITMAP
64
A8
18
78
30
52
8C
ENDCHAR
STARTCHAR uni04FF
ENCODING 1279
SWIDTH 529 0
DWIDTH 4 0
BBX 5 4 0 0
BITMAP
70
70
A8
F8
ENDCHAR
STARTCHAR uni0510
ENCODING 1296
SWIDTH 706 0
DWIDTH 6 0
BBX 5 7 0 0
BITMAP
38
48
40
70
C8
C8
78
ENDCHAR
STARTCHAR uni0511
ENCODING 1297
SWIDTH 392 0
DWIDTH 3 0
BBX 4 4 0 0
BITMAP
60
40
90
E0
ENDCHAR
STARTCHAR uni0512
ENCODING 1298
SWIDTH 884 0
DWIDTH 7 0
BBX 8 10 0 -3
BITMAP
0C
0C
0C
14
14
B5
E7
06
0A
0C
ENDCHAR
STARTCHAR uni0513
ENCODING 1299
SWIDTH 631 0
DWIDTH 5 0
BBX 6 7 0 -3
BITMAP
30
30
D0
DC
10
30
30
ENDCHAR
STARTCHAR uni051A
ENCODING 1306
SWIDTH 816 0
DWIDTH 7 0
BBX 6 10 1 -3
BITMAP
70
C8
88
88
88
88
F0
20
14
18
ENDCHAR
STARTCHAR uni051B
ENCODING 1307
SWIDTH 500 0
DWIDTH 4 0
BBX 5 8 0 -3
BITMAP
10
70
60
B8
F0
30
30
30
ENDCHAR
STARTCHAR uni051C
ENCODING 1308
SWIDTH 1217 0
DWIDTH 10 0
BBX 10 7 1 0
BITMAP
8980
8A80
8A80
99C0
9900
AA00
6C00
ENDCHAR
STARTCHAR uni051D
ENCODING 1309
SWIDTH 700 0
DWIDTH 6 0
BBX 7 4 0 0
BITMAP
AC
AE
D8
50
ENDCHAR
STARTCHAR uni0524
ENCODING 1316
SWIDTH 892 0
DWIDTH 7 0
BBX 8 10 0 -3
BITMAP
7F
92
A6
24
24
24
23
06
0A
0C
ENDCHAR
STARTCHAR uni0525
ENCODING 1317
SWIDTH 536 0
DWIDTH 4 0
BBX 5 7 0 -3
BITMAP
70
D0
E8
98
30
50
60
ENDCHAR
STARTCHAR uni0526
ENCODING 1318
SWIDTH 818 0
DWIDTH 7 0
BBX 7 10 1 -3
BITMAP
40
C0
80
B0
D8
90
9E
18
28
30
ENDCHAR
STARTCHAR uni0527
ENCODING 1319
SWIDTH 542 0
DWIDTH 4 0
BBX 5 11 0 -3
BITMAP
20
50
60
60
70
D0
E8
D8
30
50
60
ENDCHAR
STARTCHAR uni0528
ENCODING 1320
SWIDTH 873 0
DWIDTH 7 0
BBX 9 11 -1 -3
BITMAP
0100
3280
5280
1300
3E00
1600
3280
2300
2000
A000
C000
ENDCHAR
STARTCHAR uni0529
ENCODING 1321
SWIDTH 475 0
DWIDTH 4 0
BBX 6 7 -1 -3
BITMAP
28
70
54
58
40
C0
C0
ENDCHAR
STARTCHAR uni052E
ENCODING 1326
SWIDTH 884 0
DWIDTH 7 0
BBX 8 10 0 -3
BITMAP
0C
0C
0C
14
14
B5
E7
06
0A
0C
ENDCHAR
STARTCHAR uni052F
ENCODING 1327
SWIDTH 631 0
DWIDTH 5 0
BBX 6 7 0 -3
BITMAP
30
30
D0
DC
10
30
30
ENDCHAR
STARTCHAR Wgrave
ENCODING 7808
SWIDTH 1217 0
DWIDTH 10 0
BBX 10 10 1 0
BITMAP
3000
0800
0000
8980
8A80
8A80
99C0
9900
AA00
6C00
ENDCHAR
STARTCHAR wgrave
ENCODING 7809
SWIDTH 700 0
DWIDTH 6 0
BBX 7 8 0 0
BITMAP
20
20
20
00
AC
AE
D8
50
ENDCHAR
STARTCHAR Wacute
ENCODING 7810
SWIDTH 1217 0
DWIDTH 10 0
BBX 10 10 1 0
BITMAP
0600
0C00
0000
8980
8A80
8A80
99C0
9900
AA00
6C00
ENDCHAR
STARTCHAR wacute
ENCODING 7811
SWIDTH 700 0
DWIDTH 6 0
BBX 7 8 0 0
BITMAP
10
18
10
00
AC
AE
D8
50
ENDCHAR
STARTCHAR Wdieresis
ENCODING 7812
SWIDTH 1217 0
DWIDTH 10 0
BBX 10 9 1 0
BITMAP
1C00
0000
8980
8A80
8A80
99C0
9900
AA00
6C00
ENDCHAR
STARTCHAR wdieresis
ENCODING 7813
SWIDTH 700 0
DWIDTH 6 0
BBX 7 6 0 0
BITMAP
38
00
AC
AE
D8
50
ENDCHAR
STARTCHAR uni1E9E
ENCODING 7838
SWIDTH 843 0
DWIDTH 7 0
BBX 6 7 1 0
BITMAP
78
AC
C8
B8
88
88
B8
ENDCHAR
STARTCHAR uni1EA0
ENCODING 7840
SWIDTH 786 0
DWIDTH 6 0
BBX 7 9 0 -2
BITMAP
1E
24
44
48
C8
4A
7E
00
30
ENDCHAR
STARTCHAR uni1EA1
ENCODING 7841
SWIDTH 470 0
DWIDTH 4 0
BBX 5 6 0 -2
BITMAP
60
60
A8
D0
00
40
ENDCHAR
STARTCHAR uni1EA2
ENCODING 7842
SWIDTH 786 0
DWIDTH 6 0
BBX 7 9 0 0
BITMAP
0C
0C
1E
24
44
48
C8
4A
7E
ENDCHAR
STARTCHAR uni1EA3
ENCODING 7843
SWIDTH 470 0
DWIDTH 4 0
BBX 5 7 0 0
BITMAP
20
10
20
60
60
A8
D0
ENDCHAR
STARTCHAR uni1EA4
ENCODING 7844
SWIDTH 786 0
DWIDTH 6 0
BBX 7 13 0 0
BITMAP
02
04
04
0C
14
00
1E
24
44
48
C8
4A
7E
ENDCHAR
STARTCHAR uni1EA5
ENCODING 7845
SWIDTH 470 0
DWIDTH 4 0
BBX 5 8 0 0
BITMAP
08
30
50
00
60
60
A8
D0
ENDCHAR
STARTCHAR uni1EA6
ENCODING 7846
SWIDTH 786 0
DWIDTH 6 0
BBX 7 13 0 0
BITMAP
10
08
04
0C
14
00
1E
24
44
48
C8
4A
7E
ENDCHAR
STARTCHAR uni1EA7
ENCODING 7847
SWIDTH 470 0
DWIDTH 4 0
BBX 5 8 0 0
BITMAP
80
60
50
00
60
60
A8
D0
ENDCHAR
STARTCHAR uni1EA8
ENCODING 7848
SWIDTH 786 0
DWIDTH 6 0
BBX 7 12 0 0
BITMAP
0C
04
0C
14
00
1E
24
44
48
C8
4A
7E
ENDCHAR
STARTCHAR uni1EA9
ENCODING 7849
SWIDTH 470 0
DWIDTH 4 0
BBX 5 7 0 0
BITMAP
18
28
50
60
60
A8
D0
ENDCHAR
STARTCHAR uni1EAA
ENCODING 7850
SWIDTH 786 0
DWIDTH 6 0
BBX 7 13 0 0
BITMAP
0A
16
04
0C
14
00
1E
24
44
48
C8
4A
7E
ENDCHAR
STARTCHAR uni1EAB
ENCODING 7851
SWIDTH 470 0
DWIDTH 4 0
BBX 5 8 0 0
BITMAP
70
20
50
00
60
60
A8
D0
ENDCHAR
STARTCHAR uni1EAC
ENCODING 7852
SWIDTH 786 0
DWIDTH 6 0
BBX 7 13 0 -2
BITMAP
04
0C
14
00
1E
24
44
48
C8
4A
7E
00
30
ENDCHAR
STARTCHAR uni1EAD
ENCODING 7853
SWIDTH 470 0
DWIDTH 4 0
BBX 5 10 0 -2
BITMAP
20
30
50
00
60
60
A8
D0
00
40
ENDCHAR
STARTCHAR uni1EAE
ENCODING 7854
SWIDTH 786 0
DWIDTH 6 0
BBX 7 10 0 0
BITMAP
04
12
0C
1E
24
44
48
C8
4A
7E
ENDCHAR
STARTCHAR uni1EAF
ENCODING 7855
SWIDTH 470 0
DWIDTH 4 0
BBX 5 7 0 0
BITMAP
10
70
70
60
60
A8
D0
ENDCHAR
STARTCHAR uni1EB0
ENCODING 7856
SWIDTH 786 0
DWIDTH 6 0
BBX 7 10 0 0
BITMAP
08
12
0C
1E
24
44
48
C8
4A
7E
ENDCHAR
STARTCHAR uni1EB1
ENCODING 7857
SWIDTH 470 0
DWIDTH 4 0
BBX 5 7 0 0
BITMAP
60
50
70
60
60
A8
D0
ENDCHAR
STARTCHAR uni1EB2
ENCODING 7858
SWIDTH 786 0
DWIDTH 6 0
BBX 7 10 0 0
BITMAP
0C
0C
1E
1E
24
44
48
C8
4A
7E
ENDCHAR
STARTCHAR uni1EB3
ENCODING 7859
SWIDTH 470 0
DWIDTH 4 0
BBX 5 7 0 0
BITMAP
20
20
70
60
60
A8
D0
ENDCHAR
STARTCHAR uni1EB4
ENCODING 7860
SWIDTH 786 0
DWIDTH 6 0
BBX 7 11 0 0
BITMAP
0A
14
12
0C
1E
24
44
48
C8
4A
7E
ENDCHAR
STARTCHAR uni1EB5
ENCODING 7861
SWIDTH 470 0
DWIDTH 4 0
BBX 5 8 0 0
BITMAP
28
50
50
70
60
60
A8
D0
ENDCHAR
STARTCHAR uni1EB6
ENCODING 7862
SWIDTH 786 0
DWIDTH 6 0
BBX 7 11 0 -2
BITMAP
12
0C
1E
24
44
48
C8
4A
7E
00
30
ENDCHAR
STARTCHAR uni1EB7
ENCODING 7863
SWIDTH 470 0
DWIDTH 4 0
BBX 5 8 0 -2
BITMAP
50
70
60
60
A8
D0
00
40
ENDCHAR
STARTCHAR uni1EB8
ENCODING 7864
SWIDTH 686 0
DWIDTH 5 0
BBX 7 9 0 -2
BITMAP
38
44
44
30
C0
C2
7C
00
30
ENDCHAR
STARTCHAR uni1EB9
ENCODING 7865
SWIDTH 393 0
DWIDTH 3 0
BBX 4 6 0 -2
BITMAP
60
A0
D0
60
00
40
ENDCHAR
STARTCHAR uni1EBA
ENCODING 7866
SWIDTH 686 0
DWIDTH 5 0
BBX 7 9 0 0
BITMAP
18
18
38
44
44
30
C0
C2
7C
ENDCHAR
STARTCHAR uni1EBB
ENCODING 7867
SWIDTH 393 0
DWIDTH 3 0
BBX 4 7 0 0
BITMAP
60
20
20
60
A0
D0
60
ENDCHAR
STARTCHAR uni1EBC
ENCODING 7868
SWIDTH 686 0
DWIDTH 5 0
BBX 7 10 0 0
BITMAP
14
28
00
38
44
44
30
C0
C2
7C
ENDCHAR
STARTCHAR uni1EBD
ENCODING 7869
SWIDTH 393 0
DWIDTH 3 0
BBX 4 7 0 0
BITMAP
50
B0
00
60
A0
D0
60
ENDCHAR
STARTCHAR uni1EBE
ENCODING 7870
SWIDTH 686 0
DWIDTH 5 0
BBX 7 11 0 0
BITMAP
04
18
38
00
38
44
44
30
C0
C2
7C
ENDCHAR
STARTCHAR uni1EBF
ENCODING 7871
SWIDTH 393 0
DWIDTH 3 0
BBX 5 8 0 0
BITMAP
08
30
60
00
60
A0
D0
60
ENDCHAR
STARTCHAR uni1EC0
ENCODING 7872
SWIDTH 686 0
DWIDTH 5 0
BBX 7 11 0 0
BITMAP
20
18
38
00
38
44
44
30
C0
C2
7C
ENDCHAR
STARTCHAR uni1EC1
ENCODING 7873
SWIDTH 393 0
DWIDTH 3 0
BBX 4 8 0 0
BITMAP
80
60
60
00
60
A0
D0
60
ENDCHAR
STARTCHAR uni1EC2
ENCODING 7874
SWIDTH 686 0
DWIDTH 5 0
BBX 7 10 0 0
BITMAP
04
1C
18
38
44
44
30
C0
C2
7C
ENDCHAR
STARTCHAR uni1EC3
ENCODING 7875
SWIDTH 393 0
DWIDTH 3 0
BBX 5 7 0 0
BITMAP
18
38
60
60
A0
D0
60
ENDCHAR
STARTCHAR uni1EC4
ENCODING 7876
SWIDTH 686 0
DWIDTH 5 0
BBX 7 11 0 0
BITMAP
14
18
38
00
38
44
44
30
C0
C2
7C
ENDCHAR
STARTCHAR uni1EC5
ENCODING 7877
SWIDTH 393 0
DWIDTH 3 0
BBX 4 8 0 0
BITMAP
70
20
60
00
60
A0
D0
60
ENDCHAR
STARTCHAR uni1EC6
ENCODING 7878
SWIDTH 686 0
DWIDTH 5 0
BBX 7 13 0 -2
BITMAP
08
18
28
00
38
44
44
30
C0
C2
7C
00
30
ENDCHAR
STARTCHAR uni1EC7
ENCODING 7879
SWIDTH 393 0
DWIDTH 3 0
BBX 4 10 0 -2
BITMAP
20
60
50
00
60
A0
D0
60
00
40
ENDCHAR
STARTCHAR uni1EC8
ENCODING 7880
SWIDTH 495 0
DWIDTH 4 0
BBX 4 9 0 0
BITMAP
30
30
70
20
20
20
60
40
F0
ENDCHAR
STARTCHAR uni1EC9
ENCODING 7881
SWIDTH 246 0
DWIDTH 2 0
BBX 3 7 0 0
BITMAP
40
20
40
40
80
A0
40
ENDCHAR
STARTCHAR uni1ECA
ENCODING 7882
SWIDTH 495 0
DWIDTH 4 0
BBX 4 9 0 -2
BITMAP
70
20
20
20
60
40
F0
00
40
ENDCHAR
STARTCHAR uni1ECB
ENCODING 7883
SWIDTH 246 0
DWIDTH 2 0
BBX 3 8 0 -2
BITMAP
40
00
40
80
A0
40
00
80
ENDCHAR
STARTCHAR uni1ECC
ENCODING 7884
SWIDTH 816 0
DWIDTH 7 0
BBX 5 9 1 -2
BITMAP
70
88
88
88
88
98
70
00
60
ENDCHAR
STARTCHAR uni1ECD
ENCODING 7885
SWIDTH 451 0
DWIDTH 4 0
BBX 5 6 0 -2
BITMAP
60
B8
A0
60
00
40
ENDCHAR
STARTCHAR uni1ECE
ENCODING 7886
SWIDTH 816 0
DWIDTH 7 0
BBX 5 9 1 0
BITMAP
30
10
70
88
88
88
88
98
70
ENDCHAR
STARTCHAR uni1ECF
ENCODING 7887
SWIDTH 451 0
DWIDTH 4 0
BBX 5 7 0 0
BITMAP
60
20
20
60
B8
A0
60
ENDCHAR
STARTCHAR uni1ED0
ENCODING 7888
SWIDTH 816 0
DWIDTH 7 0
BBX 5 11 1 0
BITMAP
08
30
30
00
70
88
88
88
88
98
70
ENDCHAR
STARTCHAR uni1ED1
ENCODING 7889
SWIDTH 451 0
DWIDTH 4 0
BBX 5 8 0 0
BITMAP
08
30
60
00
60
B8
A0
60
ENDCHAR
STARTCHAR uni1ED2
ENCODING 7890
SWIDTH 816 0
DWIDTH 7 0
BBX 5 11 1 0
BITMAP
40
30
30
00
70
88
88
88
88
98
70
ENDCHAR
STARTCHAR uni1ED3
ENCODING 7891
SWIDTH 451 0
DWIDTH 4 0
BBX 5 8 0 0
BITMAP
80
60
60
00
60
B8
A0
60
ENDCHAR
STARTCHAR uni1ED4
ENCODING 7892
SWIDTH 816 0
DWIDTH 7 0
BBX 5 10 1 0
BITMAP
08
38
30
70
88
88
88
88
98
70
ENDCHAR
STARTCHAR uni1ED5
ENCODING 7893
SWIDTH 451 0
DWIDTH 4 0
BBX 5 7 0 0
BITMAP
18
38
60
60
B8
A0
60
ENDCHAR
STARTCHAR uni1ED6
ENCODING 7894
SWIDTH 816 0
DWIDTH 7 0
BBX 5 11 1 0
BITMAP
38
10
30
00
70
88
88
88
88
98
70
ENDCHAR
STARTCHAR uni1ED7
ENCODING 7895
SWIDTH 451 0
DWIDTH 4 0
BBX 5 8 0 0
BITMAP
70
20
60
00
60
B8
A0
60
ENDCHAR
STARTCHAR uni1ED8
ENCODING 7896
SWIDTH 816 0
DWIDTH 7 0
BBX 5 13 1 -2
BITMAP
10
30
30
00
70
88
88
88
88
98
70
00
60
ENDCHAR
STARTCHAR uni1ED9
ENCODING 7897
SWIDTH 451 0
DWIDTH 4 0
BBX 5 10 0 -2
BITMAP
20
60
60
00
60
B8
A0
60
00
40
ENDCHAR
STARTCHAR uni1EDA
ENCODING 7898
SWIDTH 816 0
DWIDTH 7 0
BBX 6 10 1 0
BITMAP
08
14
04
78
88
88
88
88
98
70
ENDCHAR
STARTCHAR uni1EDB
ENCODING 7899
SWIDTH 451 0
DWIDTH 4 0
BBX 5 8 0 0
BITMAP
20
20
20
10
70
B8
A0
60
ENDCHAR
STARTCHAR uni1EDC
ENCODING 7900
SWIDTH 816 0
DWIDTH 7 0
BBX 6 10 1 0
BITMAP
40
24
04
78
88
88
88
88
98
70
ENDCHAR
STARTCHAR uni1EDD
ENCODING 7901
SWIDTH 451 0
DWIDTH 4 0
BBX 5 8 0 0
BITMAP
40
C0
40
10
70
B8
A0
60
ENDCHAR
STARTCHAR uni1EDE
ENCODING 7902
SWIDTH 816 0
DWIDTH 7 0
BBX 6 9 1 0
BITMAP
34
14
78
88
88
88
88
98
70
ENDCHAR
STARTCHAR uni1EDF
ENCODING 7903
SWIDTH 451 0
DWIDTH 4 0
BBX 5 7 0 0
BITMAP
60
20
30
70
B8
A0
60
ENDCHAR
STARTCHAR uni1EE0
ENCODING 7904
SWIDTH 816 0
DWIDTH 7 0
BBX 6 10 1 0
BITMAP
28
58
04
78
88
88
88
88
98
70
ENDCHAR
STARTCHAR uni1EE1
ENCODING 7905
SWIDTH 451 0
DWIDTH 4 0
BBX 5 7 0 0
BITMAP
50
70
90
70
B8
A0
60
ENDCHAR
STARTCHAR uni1EE2
ENCODING 7906
SWIDTH 816 0
DWIDTH 7 0
BBX 6 11 1 -2
BITMAP
04
04
78
88
88
88
88
98
70
00
60
ENDCHAR
STARTCHAR uni1EE3
ENCODING 7907
SWIDTH 451 0
DWIDTH 4 0
BBX 5 7 0 -2
BITMAP
10
70
B8
A0
60
00
40
ENDCHAR
STARTCHAR uni1EE4
ENCODING 7908
SWIDTH 890 0
DWIDTH 7 0
BBX 8 9 0 -2
BITMAP
62
A6
24
24
64
4D
37
00
10
ENDCHAR
STARTCHAR uni1EE5
ENCODING 7909
SWIDTH 462 0
DWIDTH 4 0
BBX 5 6 0 -2
BITMAP
50
A0
A8
70
00
40
ENDCHAR
STARTCHAR uni1EE6
ENCODING 7910
SWIDTH 890 0
DWIDTH 7 0
BBX 8 9 0 0
BITMAP
0C
08
62
A6
24
24
64
4D
37
ENDCHAR
STARTCHAR uni1EE7
ENCODING 7911
SWIDTH 462 0
DWIDTH 4 0
BBX 5 7 0 0
BITMAP
20
10
20
50
A0
A8
70
ENDCHAR
STARTCHAR uni1EE8
ENCODING 7912
SWIDTH 890 0
DWIDTH 7 0
BBX 8 10 0 0
BITMAP
04
09
01
62
A6
24
24
64
4D
37
ENDCHAR
STARTCHAR uni1EE9
ENCODING 7913
SWIDTH 512 0
DWIDTH 4 0
BBX 5 8 0 0
BITMAP
10
10
20
08
50
A0
A8
70
ENDCHAR
STARTCHAR uni1EEA
ENCODING 7914
SWIDTH 890 0
DWIDTH 7 0
BBX 8 10 0 0
BITMAP
20
19
01
62
A6
24
24
64
4D
37
ENDCHAR
STARTCHAR uni1EEB
ENCODING 7915
SWIDTH 512 0
DWIDTH 4 0
BBX 5 8 0 0
BITMAP
40
40
20
08
50
A0
A8
70
ENDCHAR
STARTCHAR uni1EEC
ENCODING 7916
SWIDTH 890 0
DWIDTH 7 0
BBX 8 9 0 0
BITMAP
0D
09
62
A6
24
24
64
4D
37
ENDCHAR
STARTCHAR uni1EED
ENCODING 7917
SWIDTH 512 0
DWIDTH 4 0
BBX 5 7 0 0
BITMAP
20
10
28
50
A0
A8
70
ENDCHAR
STARTCHAR uni1EEE
ENCODING 7918
SWIDTH 890 0
DWIDTH 7 0
BBX 8 10 0 0
BITMAP
14
1D
01
62
A6
24
24
64
4D
37
ENDCHAR
STARTCHAR uni1EEF
ENCODING 7919
SWIDTH 512 0
DWIDTH 4 0
BBX 5 7 0 0
BITMAP
50
70
58
50
A0
A8
70
ENDCHAR
STARTCHAR uni1EF0
ENCODING 7920
SWIDTH 890 0
DWIDTH 7 0
BBX 8 11 0 -2
BITMAP
01
01
62
A6
24
24
64
4D
37
00
10
ENDCHAR
STARTCHAR uni1EF1
ENCODING 7921
SWIDTH 512 0
DWIDTH 4 0
BBX 5 7 0 -2
BITMAP
08
50
A0
A8
70
00
40
ENDCHAR
STARTCHAR Ygrave
ENCODING 7922
SWIDTH 851 0
DWIDTH 7 0
BBX 8 13 0 -3
BITMAP
20
18
00
62
A6
24
24
2C
37
1C
34
28
38
ENDCHAR
STARTCHAR ygrave
ENCODING 7923
SWIDTH 479 0
DWIDTH 4 0
BBX 5 12 0 -4
BITMAP
40
40
20
00
50
A0
A8
70
60
A0
C0
C0
ENDCHAR
STARTCHAR uni1EF4
ENCODING 7924
SWIDTH 851 0
DWIDTH 7 0
BBX 8 10 0 -3
BITMAP
62
A6
24
24
2C
37
1C
34
28
3E
ENDCHAR
STARTCHAR uni1EF5
ENCODING 7925
SWIDTH 479 0
DWIDTH 4 0
BBX 5 8 0 -4
BITMAP
50
A0
A8
70
60
A0
C0
F0
ENDCHAR
STARTCHAR uni1EF6
ENCODING 7926
SWIDTH 851 0
DWIDTH 7 0
BBX 8 12 0 -3
BITMAP
0C
08
62
A6
24
24
2C
37
1C
34
28
38
ENDCHAR
STARTCHAR uni1EF7
ENCODING 7927
SWIDTH 479 0
DWIDTH 4 0
BBX 5 11 0 -4
BITMAP
20
10
20
50
A0
A8
70
60
A0
C0
C0
ENDCHAR
STARTCHAR uni1EF8
ENCODING 7928
SWIDTH 851 0
DWIDTH 7 0
BBX 8 13 0 -3
BITMAP
14
1C
00
62
A6
24
24
2C
37
1C
34
28
38
ENDCHAR
STARTCHAR uni1EF9
ENCODING 7929
SWIDTH 479 0
DWIDTH 4 0
BBX 5 11 0 -4
BITMAP
50
70
00
50
A0
A8
70
60
A0
C0
C0
ENDCHAR
STARTCHAR endash
ENCODING 8211
SWIDTH 484 0
DWIDTH 4 0
BBX 4 1 0 2
BITMAP
F0
ENDCHAR
STARTCHAR emdash
ENCODING 8212
SWIDTH 620 0
DWIDTH 5 0
BBX 5 1 0 2
BITMAP
F8
ENDCHAR
STARTCHAR quoteleft
ENCODING 8216
SWIDTH 237 0
DWIDTH 2 0
BBX 1 3 1 5
BITMAP
80
80
80
ENDCHAR
STARTCHAR quoteright
ENCODING 8217
SWIDTH 236 0
DWIDTH 2 0
BBX 1 3 1 5
BITMAP
80
80
80
ENDCHAR
STARTCHAR quotesinglbase
ENCODING 8218
SWIDTH 257 0
DWIDTH 2 0
BBX 2 3 0 -1
BITMAP
C0
80
80
ENDCHAR
STARTCHAR quotedblleft
ENCODING 8220
SWIDTH 457 0
DWIDTH 4 0
BBX 3 3 1 5
BITMAP
A0
A0
A0
ENDCHAR
STARTCHAR quotedblright
ENCODING 8221
SWIDTH 456 0
DWIDTH 4 0
BBX 3 3 1 5
BITMAP
A0
A0
A0
ENDCHAR
STARTCHAR quotedblbase
ENCODING 8222
SWIDTH 477 0
DWIDTH 4 0
BBX 3 3 0 -1
BITMAP
E0
A0
A0
ENDCHAR
STARTCHAR dagger
ENCODING 8224
SWIDTH 588 0
DWIDTH 5 0
BBX 4 6 1 2
BITMAP
40
F0
40
40
40
40
ENDCHAR
STARTCHAR daggerdbl
ENCODING 8225
SWIDTH 588 0
DWIDTH 5 0
BBX 4 6 1 2
BITMAP
40
F0
40
40
E0
40
ENDCHAR
STARTCHAR bullet
ENCODING 8226
SWIDTH 512 0
DWIDTH 4 0
BBX 2 3 1 1
BITMAP
C0
C0
C0
ENDCHAR
STARTCHAR ellipsis
ENCODING 8230
SWIDTH 777 0
DWIDTH 6 0
BBX 6 2 0 0
BITMAP
F4
FC
ENDCHAR
STARTCHAR perthousand
ENCODING 8240
SWIDTH 1277 0
DWIDTH 10 0
BBX 10 7 0 0
BITMAP
6400
A800
B800
7000
16C0
2B40
26C0
ENDCHAR
STARTCHAR guilsinglleft
ENCODING 8249
SWIDTH 350 0
DWIDTH 3 0
BBX 2 3 0 0
BITMAP
40
80
40
ENDCHAR
STARTCHAR guilsinglright
ENCODING 8250
SWIDTH 350 0
DWIDTH 3 0
BBX 3 3 0 0
BITMAP
C0
60
C0
ENDCHAR
STARTCHAR fraction
ENCODING 8260
SWIDTH 200 0
DWIDTH 2 0
BBX 4 6 -1 1
BITMAP
10
20
20
40
40
80
ENDCHAR
STARTCHAR uni2074
ENCODING 8308
SWIDTH 450 0
DWIDTH 4 0
BBX 3 4 1 3
BITMAP
40
C0
E0
40
ENDCHAR
STARTCHAR colonmonetary
ENCODING 8353
SWIDTH 517 0
DWIDTH 4 0
BBX 5 7 0 -1
BITMAP
18
70
70
E0
F0
70
C0
ENDCHAR
STARTCHAR franc
ENCODING 8355
SWIDTH 750 0
DWIDTH 6 0
BBX 6 5 0 0
BITMAP
78
4C
78
94
90
ENDCHAR
STARTCHAR lira
ENCODING 8356
SWIDTH 525 0
DWIDTH 4 0
BBX 4 5 0 0
BITMAP
30
50
E0
E0
F0
ENDCHAR
STARTCHAR uni20A6
ENCODING 8358
SWIDTH 672 0
DWIDTH 5 0
BBX 5 5 0 0
BITMAP
48
68
F8
F8
50
ENDCHAR
STARTCHAR peseta
ENCODING 8359
SWIDTH 1085 0
DWIDTH 9 0
BBX 9 5 0 0
BITMAP
E800
5D00
6900
CB80
8D00
ENDCHAR
STARTCHAR uni20A9
ENCODING 8361
SWIDTH 775 0
DWIDTH 6 0
BBX 6 5 0 0
BITMAP
54
FC
78
78
50
ENDCHAR
STARTCHAR dong
ENCODING 8363
SWIDTH 463 0
DWIDTH 4 0
BBX 4 7 0 -1
BITMAP
10
70
70
E0
A0
E0
F0
ENDCHAR
STARTCHAR Euro
ENCODING 8364
SWIDTH 552 0
DWIDTH 4 0
BBX 4 5 0 0
BITMAP
30
50
E0
40
70
ENDCHAR
STARTCHAR uni20AD
ENCODING 8365
SWIDTH 590 0
DWIDTH 5 0
BBX 5 5 0 0
BITMAP
48
50
F8
60
98
ENDCHAR
STARTCHAR uni20AE
ENCODING 8366
SWIDTH 513 0
DWIDTH 4 0
BBX 3 5 1 0
BITMAP
E0
40
A0
C0
80
ENDCHAR
STARTCHAR uni20B1
ENCODING 8369
SWIDTH 557 0
DWIDTH 4 0
BBX 5 5 0 0
BITMAP
70
F8
F0
60
40
ENDCHAR
STARTCHAR uni20B2
ENCODING 8370
SWIDTH 599 0
DWIDTH 5 0
BBX 5 7 0 -1
BITMAP
20
70
70
A0
B8
70
50
ENDCHAR
STARTCHAR uni20B4
ENCODING 8372
SWIDTH 570 0
DWIDTH 5 0
BBX 4 5 0 0
BITMAP
70
70
F0
50
70
ENDCHAR
STARTCHAR uni20B5
ENCODING 8373
SWIDTH 517 0
DWIDTH 4 0
BBX 4 7 0 -1
BITMAP
20
70
70
A0
B0
70
40
ENDCHAR
STARTCHAR uni20B8
ENCODING 8376
SWIDTH 522 0
DWIDTH 4 0
BBX 4 5 0 0
BITMAP
70
F0
20
40
40
ENDCHAR
STARTCHAR uni20B9
ENCODING 8377
SWIDTH 511 0
DWIDTH 4 0
BBX 4 5 0 0
BITMAP
F0
F0
C0
20
30
ENDCHAR
STARTCHAR uni20BA
ENCODING 8378
SWIDTH 452 0
DWIDTH 4 0
BBX 4 5 0 0
BITMAP
60
60
C0
D0
60
ENDCHAR
STARTCHAR uni20BC
ENCODING 8380
SWIDTH 673 0
DWIDTH 5 0
BBX 5 6 0 0
BITMAP
10
30
68
68
A8
A8
ENDCHAR
STARTCHAR uni20BD
ENCODING 8381
SWIDTH 505 0
DWIDTH 4 0
BBX 4 5 0 0
BITMAP
60
50
50
E0
E0
ENDCHAR
STARTCHAR uni2116
ENCODING 8470
SWIDTH 1198 0
DWIDTH 10 0
BBX 8 7 1 0
BITMAP
FB
CB
CB
88
9F
90
90
ENDCHAR
STARTCHAR trademark
ENCODING 8482
SWIDTH 1150 0
DWIDTH 9 0
BBX 8 3 1 4
BITMAP
FF
55
95
ENDCHAR
STARTCHAR partialdiff
ENCODING 8706
SWIDTH 451 0
DWIDTH 4 0
BBX 4 7 0 0
BITMAP
40
20
20
70
90
A0
60
ENDCHAR
STARTCHAR product
ENCODING 8719
SWIDTH 700 0
DWIDTH 6 0
BBX 5 7 0 0
BITMAP
78
48
48
48
48
48
88
ENDCHAR
STARTCHAR summation
ENCODING 8721
SWIDTH 700 0
DWIDTH 6 0
BBX 6 7 0 0
BITMAP
7C
20
10
18
30
60
F8
ENDCHAR
STARTCHAR minus
ENCODING 8722
SWIDTH 700 0
DWIDTH 6 0
BBX 4 1 1 2
BITMAP
F0
ENDCHAR
STARTCHAR uni2215
ENCODING 8725
SWIDTH 700 0
DWIDTH 6 0
BBX 4 8 1 0
BITMAP
10
10
30
20
40
40
80
80
ENDCHAR
STARTCHAR uni2219
ENCODING 8729
SWIDTH 700 0
DWIDTH 6 0
BBX 2 1 2 2
BITMAP
C0
ENDCHAR
STARTCHAR radical
ENCODING 8730
SWIDTH 700 0
DWIDTH 6 0
BBX 6 7 0 0
BITMAP
04
08
08
C8
50
30
20
ENDCHAR
STARTCHAR infinity
ENCODING 8734
SWIDTH 700 0
DWIDTH 6 0
BBX 5 3 0 1
BITMAP
78
A8
78
ENDCHAR
STARTCHAR integral
ENCODING 8747
SWIDTH 700 0
DWIDTH 6 0
BBX 5 10 0 -2
BITMAP
18
10
10
10
20
20
20
20
20
E0
ENDCHAR
STARTCHAR approxequal
ENCODING 8776
SWIDTH 700 0
DWIDTH 6 0
BBX 5 4 0 0
BITMAP
68
58
68
90
ENDCHAR
STARTCHAR notequal
ENCODING 8800
SWIDTH 700 0
DWIDTH 6 0
BBX 4 5 1 0
BITMAP
20
F0
40
F0
80
ENDCHAR
STARTCHAR lessequal
ENCODING 8804
SWIDTH 700 0
DWIDTH 6 0
BBX 4 5 1 0
BITMAP
10
E0
E0
10
F0
ENDCHAR
STARTCHAR greaterequal
ENCODING 8805
SWIDTH 700 0
DWIDTH 6 0
BBX 4 5 1 0
BITMAP
80
70
F0
00
F0
ENDCHAR
STARTCHAR lozenge
ENCODING 9674
SWIDTH 700 0
DWIDTH 6 0
BBX 4 8 1 0
BITMAP
20
20
50
90
90
A0
60
40
ENDCHAR
STARTCHAR fi
ENCODING 64257
SWIDTH 633 0
DWIDTH 5 0
BBX 6 11 0 -3
BITMAP
30
30
58
60
F8
68
74
68
60
60
40
ENDCHAR
STARTCHAR fl
ENCODING 64258
SWIDTH 688 0
DWIDTH 6 0
BBX 7 11 0 -3
BITMAP
34
5C
5C
6C
74
58
B2
AC
A0
40
40
ENDCHAR
STARTCHAR .notdef
ENCODING -1
SWIDTH 265 0
DWIDTH 2 0
BBX 1 1 0 0
BITMAP
00
ENDCHAR
STARTCHAR Iacute_J.loclNLD
ENCODING -1
SWIDTH 776 0
DWIDTH 6 0
BBX 7 10 1 0
BITMAP
26
4C
00
88
88
98
98
F8
10
E0
ENDCHAR
STARTCHAR A.ss01
ENCODING -1
SWIDTH 780 0
DWIDTH 6 0
BBX 7 7 0 0
BITMAP
1E
24
44
4C
C8
48
78
ENDCHAR
STARTCHAR Aacute.ss01
ENCODING -1
SWIDTH 780 0
DWIDTH 6 0
BBX 7 10 0 0
BITMAP
02
0C
00
1E
24
44
4C
C8
48
78
ENDCHAR
STARTCHAR Abreve.ss01
ENCODING -1
SWIDTH 780 0
DWIDTH 6 0
BBX 7 9 0 0
BITMAP
12
0C
1E
24
44
4C
C8
48
78
ENDCHAR
STARTCHAR uni1EAE.ss01
ENCODING -1
SWIDTH 780 0
DWIDTH 6 0
BBX 7 10 0 0
BITMAP
04
12
0C
1E
24
44
4C
C8
48
78
ENDCHAR
STARTCHAR uni1EB6.ss01
ENCODING -1
SWIDTH 780 0
DWIDTH 6 0
BBX 7 11 0 -2
BITMAP
12
0C
1E
24
44
4C
C8
48
78
00
30
ENDCHAR
STARTCHAR uni1EB0.ss01
ENCODING -1
SWIDTH 780 0
DWIDTH 6 0
BBX 7 10 0 0
BITMAP
08
12
0C
1E
24
44
4C
C8
48
78
ENDCHAR
STARTCHAR uni1EB2.ss01
ENCODING -1
SWIDTH 780 0
DWIDTH 6 0
BBX 7 10 0 0
BITMAP
0C
0C
1E
1E
24
44
4C
C8
48
78
ENDCHAR
STARTCHAR uni1EB4.ss01
ENCODING -1
SWIDTH 780 0
DWIDTH 6 0
BBX 7 11 0 0
BITMAP
0A
14
12
0C
1E
24
44
4C
C8
48
78
ENDCHAR
STARTCHAR Acircumflex.ss01
ENCODING -1
SWIDTH 780 0
DWIDTH 6 0
BBX 7 11 0 0
BITMAP
04
0C
14
00
1E
24
44
4C
C8
48
78
ENDCHAR
STARTCHAR uni1EA4.ss01
ENCODING -1
SWIDTH 780 0
DWIDTH 6 0
BBX 7 11 0 0
BITMAP
02
0C
1C
00
1E
24
44
4C
C8
48
78
ENDCHAR
STARTCHAR uni1EAC.ss01
ENCODING -1
SWIDTH 780 0
DWIDTH 6 0
BBX 7 13 0 -2
BITMAP
04
0C
14
00
1E
24
44
4C
C8
48
78
00
30
ENDCHAR
STARTCHAR uni1EA6.ss01
ENCODING -1
SWIDTH 780 0
DWIDTH 6 0
BBX 7 11 0 0
BITMAP
10
0C
1C
00
1E
24
44
4C
C8
48
78
ENDCHAR
STARTCHAR uni1EA8.ss01
ENCODING -1
SWIDTH 780 0
DWIDTH 6 0
BBX 7 10 0 0
BITMAP
02
0E
0C
1E
24
44
4C
C8
48
78
ENDCHAR
STARTCHAR uni1EAA.ss01
ENCODING -1
SWIDTH 780 0
DWIDTH 6 0
BBX 7 11 0 0
BITMAP
0A
0C
1C
00
1E
24
44
4C
C8
48
78
ENDCHAR
STARTCHAR uni0200.ss01
ENCODING -1
SWIDTH 780 0
DWIDTH 6 0
BBX 7 10 0 0
BITMAP
14
14
00
1E
24
44
4C
C8
48
78
ENDCHAR
STARTCHAR Adieresis.ss01
ENCODING -1
SWIDTH 780 0
DWIDTH 6 0
BBX 7 9 0 0
BITMAP
1C
00
1E
24
44
4C
C8
48
78
ENDCHAR
STARTCHAR uni1EA0.ss01
ENCODING -1
SWIDTH 780 0
DWIDTH 6 0
BBX 7 9 0 -2
BITMAP
1E
24
44
4C
C8
48
78
00
30
ENDCHAR
STARTCHAR Agrave.ss01
ENCODING -1
SWIDTH 780 0
DWIDTH 6 0
BBX 7 10 0 0
BITMAP
10
08
00
1E
24
44
4C
C8
48
78
ENDCHAR
STARTCHAR uni1EA2.ss01
ENCODING -1
SWIDTH 780 0
DWIDTH 6 0
BBX 7 9 0 0
BITMAP
0C
0C
1E
24
44
4C
C8
48
78
ENDCHAR
STARTCHAR uni0202.ss01
ENCODING -1
SWIDTH 780 0
DWIDTH 6 0
BBX 7 9 0 0
BITMAP
0C
12
1E
24
44
4C
C8
48
78
ENDCHAR
STARTCHAR Amacron.ss01
ENCODING -1
SWIDTH 780 0
DWIDTH 6 0
BBX 7 8 0 0
BITMAP
0C
1E
24
44
4C
C8
48
78
ENDCHAR
STARTCHAR Aogonek.ss01
ENCODING -1
SWIDTH 780 0
DWIDTH 6 0
BBX 7 9 0 -2
BITMAP
1E
24
44
4C
C8
48
78
10
0C
ENDCHAR
STARTCHAR Aring.ss01
ENCODING -1
SWIDTH 780 0
DWIDTH 6 0
BBX 7 10 0 0
BITMAP
0C
0C
0C
1E
24
44
4C
C8
48
78
ENDCHAR
STARTCHAR Aringacute.ss01
ENCODING -1
SWIDTH 780 0
DWIDTH 6 0
BBX 8 11 0 0
BITMAP
01
0E
0C
00
1E
24
44
4C
C8
48
78
ENDCHAR
STARTCHAR Atilde.ss01
ENCODING -1
SWIDTH 780 0
DWIDTH 6 0
BBX 7 10 0 0
BITMAP
0A
14
00
1E
24
44
4C
C8
48
78
ENDCHAR
STARTCHAR AE.ss01
ENCODING -1
SWIDTH 1057 0
DWIDTH 8 0
BBX 9 7 0 0
BITMAP
1F80
6400
4400
4F00
C800
4C00
7700
ENDCHAR
STARTCHAR AEacute.ss01
ENCODING -1
SWIDTH 1057 0
DWIDTH 8 0
BBX 9 10 0 0
BITMAP
0100
0600
0000
1F80
6400
4400
4F00
C800
4C00
7700
ENDCHAR
STARTCHAR B.ss01
ENCODING -1
SWIDTH 826 0
DWIDTH 7 0
BBX 5 7 1 0
BITMAP
F8
08
C8
B0
88
98
F0
ENDCHAR
STARTCHAR C.ss01
ENCODING -1
SWIDTH 704 0
DWIDTH 6 0
BBX 5 7 1 0
BITMAP
70
C8
90
80
80
88
70
ENDCHAR
STARTCHAR Cacute.ss01
ENCODING -1
SWIDTH 704 0
DWIDTH 6 0
BBX 5 10 1 0
BITMAP
08
10
00
70
C8
90
80
80
88
70
ENDCHAR
STARTCHAR Ccaron.ss01
ENCODING -1
SWIDTH 704 0
DWIDTH 6 0
BBX 5 10 1 0
BITMAP
30
30
00
70
C8
90
80
80
88
70
ENDCHAR
STARTCHAR Ccedilla.ss01
ENCODING -1
SWIDTH 704 0
DWIDTH 6 0
BBX 5 9 1 -2
BITMAP
70
C8
90
80
80
88
70
20
60
ENDCHAR
STARTCHAR Ccircumflex.ss01
ENCODING -1
SWIDTH 704 0
DWIDTH 6 0
BBX 5 11 1 0
BITMAP
10
30
30
00
70
C8
90
80
80
88
70
ENDCHAR
STARTCHAR Cdotaccent.ss01
ENCODING -1
SWIDTH 704 0
DWIDTH 6 0
BBX 5 9 1 0
BITMAP
30
00
70
C8
90
80
80
88
70
ENDCHAR
STARTCHAR D.ss01
ENCODING -1
SWIDTH 810 0
DWIDTH 6 0
BBX 5 7 1 0
BITMAP
F0
08
C8
88
88
98
E0
ENDCHAR
STARTCHAR uni01C4.ss01
ENCODING -1
SWIDTH 1455 0
DWIDTH 12 0
BBX 11 10 1 0
BITMAP
00C0
00C0
0000
F3E0
0840
C8C0
8880
8900
9B00
E7C0
ENDCHAR
STARTCHAR Eth.ss01
ENCODING -1
SWIDTH 821 0
DWIDTH 7 0
BBX 6 7 0 0
BITMAP
38
24
64
F4
44
4C
70
ENDCHAR
STARTCHAR Dcaron.ss01
ENCODING -1
SWIDTH 810 0
DWIDTH 6 0
BBX 5 10 1 0
BITMAP
50
20
00
F0
08
C8
88
88
98
E0
ENDCHAR
STARTCHAR Dcroat.ss01
ENCODING -1
SWIDTH 821 0
DWIDTH 7 0
BBX 6 7 0 0
BITMAP
38
24
64
F4
44
4C
70
ENDCHAR
STARTCHAR E.ss01
ENCODING -1
SWIDTH 720 0
DWIDTH 6 0
BBX 6 7 0 0
BITMAP
38
44
44
30
40
C4
78
ENDCHAR
STARTCHAR Eacute.ss01
ENCODING -1
SWIDTH 720 0
DWIDTH 6 0
BBX 6 10 0 0
BITMAP
04
18
00
38
44
44
30
40
C4
78
ENDCHAR
STARTCHAR Ebreve.ss01
ENCODING -1
SWIDTH 720 0
DWIDTH 6 0
BBX 6 9 0 0
BITMAP
24
38
38
44
44
30
40
C4
78
ENDCHAR
STARTCHAR Ecaron.ss01
ENCODING -1
SWIDTH 720 0
DWIDTH 6 0
BBX 6 10 0 0
BITMAP
18
18
00
38
44
44
30
40
C4
78
ENDCHAR
STARTCHAR Ecircumflex.ss01
ENCODING -1
SWIDTH 720 0
DWIDTH 6 0
BBX 6 11 0 0
BITMAP
08
18
28
00
38
44
44
30
40
C4
78
ENDCHAR
STARTCHAR uni1EBE.ss01
ENCODING -1
SWIDTH 720 0
DWIDTH 6 0
BBX 6 11 0 0
BITMAP
04
18
38
00
38
44
44
30
40
C4
78
ENDCHAR
STARTCHAR uni1EC6.ss01
ENCODING -1
SWIDTH 720 0
DWIDTH 6 0
BBX 6 13 0 -2
BITMAP
08
18
28
00
38
44
44
30
40
C4
78
00
20
ENDCHAR
STARTCHAR uni1EC0.ss01
ENCODING -1
SWIDTH 720 0
DWIDTH 6 0
BBX 6 11 0 0
BITMAP
20
18
38
00
38
44
44
30
40
C4
78
ENDCHAR
STARTCHAR uni1EC2.ss01
ENCODING -1
SWIDTH 720 0
DWIDTH 6 0
BBX 6 10 0 0
BITMAP
04
1C
18
38
44
44
30
40
C4
78
ENDCHAR
STARTCHAR uni1EC4.ss01
ENCODING -1
SWIDTH 720 0
DWIDTH 6 0
BBX 6 11 0 0
BITMAP
1C
10
28
00
38
44
44
30
40
C4
78
ENDCHAR
STARTCHAR uni0204.ss01
ENCODING -1
SWIDTH 720 0
DWIDTH 6 0
BBX 6 10 0 0
BITMAP
30
28
00
38
44
44
30
40
C4
78
ENDCHAR
STARTCHAR Edieresis.ss01
ENCODING -1
SWIDTH 720 0
DWIDTH 6 0
BBX 6 9 0 0
BITMAP
38
00
38
44
44
30
40
C4
78
ENDCHAR
STARTCHAR Edotaccent.ss01
ENCODING -1
SWIDTH 720 0
DWIDTH 6 0
BBX 6 9 0 0
BITMAP
18
00
38
44
44
30
40
C4
78
ENDCHAR
STARTCHAR uni1EB8.ss01
ENCODING -1
SWIDTH 720 0
DWIDTH 6 0
BBX 6 9 0 -2
BITMAP
38
44
44
30
40
C4
78
00
20
ENDCHAR
STARTCHAR Egrave.ss01
ENCODING -1
SWIDTH 720 0
DWIDTH 6 0
BBX 6 10 0 0
BITMAP
20
10
00
38
44
44
30
40
C4
78
ENDCHAR
STARTCHAR uni1EBA.ss01
ENCODING -1
SWIDTH 720 0
DWIDTH 6 0
BBX 6 9 0 0
BITMAP
18
18
38
44
44
30
40
C4
78
ENDCHAR
STARTCHAR uni0206.ss01
ENCODING -1
SWIDTH 720 0
DWIDTH 6 0
BBX 6 9 0 0
BITMAP
18
24
38
44
44
30
40
C4
78
ENDCHAR
STARTCHAR Emacron.ss01
ENCODING -1
SWIDTH 720 0
DWIDTH 6 0
BBX 6 8 0 0
BITMAP
38
38
44
44
30
40
C4
78
ENDCHAR
STARTCHAR Eogonek.ss01
ENCODING -1
SWIDTH 720 0
DWIDTH 6 0
BBX 6 9 0 -2
BITMAP
38
44
44
30
40
C4
78
20
18
ENDCHAR
STARTCHAR uni1EBC.ss01
ENCODING -1
SWIDTH 720 0
DWIDTH 6 0
BBX 6 10 0 0
BITMAP
14
38
00
38
44
44
30
40
C4
78
ENDCHAR
STARTCHAR F.ss01
ENCODING -1
SWIDTH 671 0
DWIDTH 5 0
BBX 6 7 0 0
BITMAP
7C
20
20
F8
40
40
40
ENDCHAR
STARTCHAR G.ss01
ENCODING -1
SWIDTH 811 0
DWIDTH 6 0
BBX 5 9 1 -2
BITMAP
70
C8
88
80
98
88
78
08
08
ENDCHAR
STARTCHAR Gbreve.ss01
ENCODING -1
SWIDTH 811 0
DWIDTH 6 0
BBX 5 11 1 -2
BITMAP
48
30
70
C8
88
80
98
88
78
08
08
ENDCHAR
STARTCHAR Gcaron.ss01
ENCODING -1
SWIDTH 811 0
DWIDTH 6 0
BBX 5 12 1 -2
BITMAP
28
30
00
70
C8
88
80
98
88
78
08
08
ENDCHAR
STARTCHAR Gcircumflex.ss01
ENCODING -1
SWIDTH 811 0
DWIDTH 6 0
BBX 5 13 1 -2
BITMAP
10
30
30
00
70
C8
88
80
98
88
78
08
08
ENDCHAR
STARTCHAR uni0122.ss01
ENCODING -1
SWIDTH 811 0
DWIDTH 6 0
BBX 5 9 1 -2
BITMAP
70
C8
88
80
98
88
78
28
28
ENDCHAR
STARTCHAR Gdotaccent.ss01
ENCODING -1
SWIDTH 811 0
DWIDTH 6 0
BBX 5 11 1 -2
BITMAP
30
00
70
C8
88
80
98
88
78
08
08
ENDCHAR
STARTCHAR H.ss01
ENCODING -1
SWIDTH 846 0
DWIDTH 7 0
BBX 7 7 0 0
BITMAP
24
64
44
FE
44
4C
4C
ENDCHAR
STARTCHAR Hbar.ss01
ENCODING -1
SWIDTH 856 0
DWIDTH 7 0
BBX 7 7 0 0
BITMAP
24
7E
44
FE
44
44
4C
ENDCHAR
STARTCHAR Hcircumflex.ss01
ENCODING -1
SWIDTH 846 0
DWIDTH 7 0
BBX 7 11 0 0
BITMAP
08
18
14
00
24
64
44
FE
44
4C
4C
ENDCHAR
STARTCHAR I.ss01
ENCODING -1
SWIDTH 357 0
DWIDTH 3 0
BBX 2 7 1 0
BITMAP
C0
80
80
80
80
80
80
ENDCHAR
STARTCHAR Iacute.ss01
ENCODING -1
SWIDTH 357 0
DWIDTH 3 0
BBX 3 10 1 0
BITMAP
20
40
00
C0
80
80
80
80
80
80
ENDCHAR
STARTCHAR Iacute_J.loclNLD.ss01
ENCODING -1
SWIDTH 776 0
DWIDTH 6 0
BBX 7 10 1 0
BITMAP
26
4C
00
88
88
98
98
F8
10
E0
ENDCHAR
STARTCHAR Ibreve.ss01
ENCODING -1
SWIDTH 357 0
DWIDTH 3 0
BBX 3 9 1 0
BITMAP
A0
E0
C0
80
80
80
80
80
80
ENDCHAR
STARTCHAR Icircumflex.ss01
ENCODING -1
SWIDTH 357 0
DWIDTH 3 0
BBX 3 11 1 0
BITMAP
40
C0
A0
00
C0
80
80
80
80
80
80
ENDCHAR
STARTCHAR uni0208.ss01
ENCODING -1
SWIDTH 357 0
DWIDTH 3 0
BBX 3 10 0 0
BITMAP
A0
60
00
60
40
40
40
40
40
40
ENDCHAR
STARTCHAR Idieresis.ss01
ENCODING -1
SWIDTH 357 0
DWIDTH 3 0
BBX 3 9 1 0
BITMAP
E0
00
C0
80
80
80
80
80
80
ENDCHAR
STARTCHAR Idotaccent.ss01
ENCODING -1
SWIDTH 357 0
DWIDTH 3 0
BBX 2 9 1 0
BITMAP
C0
00
C0
80
80
80
80
80
80
ENDCHAR
STARTCHAR uni1ECA.ss01
ENCODING -1
SWIDTH 357 0
DWIDTH 3 0
BBX 3 9 0 -2
BITMAP
60
40
40
40
40
40
40
00
C0
ENDCHAR
STARTCHAR Igrave.ss01
ENCODING -1
SWIDTH 357 0
DWIDTH 3 0
BBX 3 10 0 0
BITMAP
80
40
00
60
40
40
40
40
40
40
ENDCHAR
STARTCHAR uni1EC8.ss01
ENCODING -1
SWIDTH 357 0
DWIDTH 3 0
BBX 2 9 1 0
BITMAP
C0
40
C0
80
80
80
80
80
80
ENDCHAR
STARTCHAR uni020A.ss01
ENCODING -1
SWIDTH 357 0
DWIDTH 3 0
BBX 3 9 1 0
BITMAP
E0
A0
C0
80
80
80
80
80
80
ENDCHAR
STARTCHAR Imacron.ss01
ENCODING -1
SWIDTH 357 0
DWIDTH 3 0
BBX 2 8 1 0
BITMAP
C0
C0
80
80
80
80
80
80
ENDCHAR
STARTCHAR Iogonek.ss01
ENCODING -1
SWIDTH 357 0
DWIDTH 3 0
BBX 3 9 0 -2
BITMAP
60
40
40
40
40
40
40
80
C0
ENDCHAR
STARTCHAR Itilde.ss01
ENCODING -1
SWIDTH 357 0
DWIDTH 3 0
BBX 4 10 0 0
BITMAP
50
B0
00
60
40
40
40
40
40
40
ENDCHAR
STARTCHAR J.ss01
ENCODING -1
SWIDTH 716 0
DWIDTH 6 0
BBX 5 7 1 0
BITMAP
F8
90
90
10
10
A0
E0
ENDCHAR
STARTCHAR Jcircumflex.ss01
ENCODING -1
SWIDTH 716 0
DWIDTH 6 0
BBX 5 11 1 0
BITMAP
20
30
50
00
F8
90
90
10
10
A0
E0
ENDCHAR
STARTCHAR K.ss01
ENCODING -1
SWIDTH 779 0
DWIDTH 6 0
BBX 5 7 1 0
BITMAP
48
C8
90
E0
A0
B0
98
ENDCHAR
STARTCHAR uni0136.ss01
ENCODING -1
SWIDTH 779 0
DWIDTH 6 0
BBX 5 9 1 -2
BITMAP
48
C8
90
E0
A0
B0
98
40
40
ENDCHAR
STARTCHAR L.ss01
ENCODING -1
SWIDTH 625 0
DWIDTH 5 0
BBX 4 7 1 0
BITMAP
C0
80
80
80
80
80
F0
ENDCHAR
STARTCHAR uni01C7.ss01
ENCODING -1
SWIDTH 1291 0
DWIDTH 10 0
BBX 9 7 1 0
BITMAP
C780
8880
8880
8180
8100
8900
F600
ENDCHAR
STARTCHAR Lacute.ss01
ENCODING -1
SWIDTH 625 0
DWIDTH 5 0
BBX 4 10 1 0
BITMAP
20
40
00
C0
80
80
80
80
80
F0
ENDCHAR
STARTCHAR Lcaron.ss01
ENCODING -1
SWIDTH 625 0
DWIDTH 5 0
BBX 4 7 1 0
BITMAP
D0
90
80
80
80
80
F0
ENDCHAR
STARTCHAR uni013B.ss01
ENCODING -1
SWIDTH 625 0
DWIDTH 5 0
BBX 4 9 1 -2
BITMAP
C0
80
80
80
80
80
F0
40
40
ENDCHAR
STARTCHAR Ldot.ss01
ENCODING -1
SWIDTH 625 0
DWIDTH 5 0
BBX 4 7 1 0
BITMAP
C0
80
80
B0
80
80
F0
ENDCHAR
STARTCHAR uni01C8.ss01
ENCODING -1
SWIDTH 854 0
DWIDTH 7 0
BBX 6 11 1 -4
BITMAP
C0
84
80
84
84
88
F8
08
18
28
30
ENDCHAR
STARTCHAR Lslash.ss01
ENCODING -1
SWIDTH 625 0
DWIDTH 5 0
BBX 5 7 0 0
BITMAP
60
50
70
C0
40
40
78
ENDCHAR
STARTCHAR M.ss01
ENCODING -1
SWIDTH 1139 0
DWIDTH 9 0
BBX 8 7 1 0
BITMAP
F7
D9
DB
92
92
92
92
ENDCHAR
STARTCHAR N.ss01
ENCODING -1
SWIDTH 799 0
DWIDTH 6 0
BBX 5 7 1 0
BITMAP
F8
C8
C8
88
98
90
90
ENDCHAR
STARTCHAR uni01CA.ss01
ENCODING -1
SWIDTH 1515 0
DWIDTH 12 0
BBX 11 7 1 0
BITMAP
F9E0
CA20
CA60
8840
9840
9240
9380
ENDCHAR
STARTCHAR Nacute.ss01
ENCODING -1
SWIDTH 799 0
DWIDTH 6 0
BBX 5 10 1 0
BITMAP
08
10
00
F8
C8
C8
88
98
90
90
ENDCHAR
STARTCHAR Ncaron.ss01
ENCODING -1
SWIDTH 799 0
DWIDTH 6 0
BBX 5 10 1 0
BITMAP
30
30
00
F8
C8
C8
88
98
90
90
ENDCHAR
STARTCHAR uni0145.ss01
ENCODING -1
SWIDTH 799 0
DWIDTH 6 0
BBX 5 9 1 -2
BITMAP
F8
C8
C8
88
98
90
90
40
40
ENDCHAR
STARTCHAR Eng.ss01
ENCODING -1
SWIDTH 792 0
DWIDTH 6 0
BBX 5 10 1 -3
BITMAP
F8
C8
C8
98
90
90
90
10
A0
E0
ENDCHAR
STARTCHAR uni01CB.ss01
ENCODING -1
SWIDTH 1008 0
DWIDTH 8 0
BBX 7 11 1 -4
BITMAP
F8
CA
C8
8A
9A
92
92
04
0C
14
08
ENDCHAR
STARTCHAR Ntilde.ss01
ENCODING -1
SWIDTH 799 0
DWIDTH 6 0
BBX 5 10 1 0
BITMAP
28
50
00
F8
C8
C8
88
98
90
90
ENDCHAR
STARTCHAR OE.ss01
ENCODING -1
SWIDTH 1166 0
DWIDTH 9 0
BBX 9 7 1 0
BITMAP
7780
8C00
8C00
8F00
8800
9800
7700
ENDCHAR
STARTCHAR P.ss01
ENCODING -1
SWIDTH 662 0
DWIDTH 5 0
BBX 5 7 0 0
BITMAP
78
28
68
48
F0
40
40
ENDCHAR
STARTCHAR Thorn.ss01
ENCODING -1
SWIDTH 658 0
DWIDTH 5 0
BBX 5 7 0 0
BITMAP
20
78
48
48
F0
40
40
ENDCHAR
STARTCHAR Q.ss01
ENCODING -1
SWIDTH 816 0
DWIDTH 7 0
BBX 5 9 1 -2
BITMAP
70
88
88
88
88
98
F0
20
10
ENDCHAR
STARTCHAR R.ss01
ENCODING -1
SWIDTH 744 0
DWIDTH 6 0
BBX 5 7 1 0
BITMAP
F0
50
90
E0
A0
B0
98
ENDCHAR
STARTCHAR Racute.ss01
ENCODING -1
SWIDTH 744 0
DWIDTH 6 0
BBX 5 10 1 0
BITMAP
18
20
00
F0
50
90
E0
A0
B0
98
ENDCHAR
STARTCHAR Rcaron.ss01
ENCODING -1
SWIDTH 744 0
DWIDTH 6 0
BBX 5 10 1 0
BITMAP
50
20
00
F0
50
90
E0
A0
B0
98
ENDCHAR
STARTCHAR uni0156.ss01
ENCODING -1
SWIDTH 744 0
DWIDTH 6 0
BBX 5 9 1 -2
BITMAP
F0
50
90
E0
A0
B0
98
40
40
ENDCHAR
STARTCHAR uni0210.ss01
ENCODING -1
SWIDTH 744 0
DWIDTH 6 0
BBX 5 10 1 0
BITMAP
60
50
00
F0
50
90
E0
A0
B0
98
ENDCHAR
STARTCHAR uni0212.ss01
ENCODING -1
SWIDTH 744 0
DWIDTH 6 0
BBX 5 9 1 0
BITMAP
70
50
F0
50
90
E0
A0
B0
98
ENDCHAR
STARTCHAR T.ss01
ENCODING -1
SWIDTH 631 0
DWIDTH 5 0
BBX 5 7 1 0
BITMAP
F8
60
40
40
40
40
40
ENDCHAR
STARTCHAR Tbar.ss01
ENCODING -1
SWIDTH 631 0
DWIDTH 5 0
BBX 5 7 1 0
BITMAP
F8
60
40
F0
40
40
40
ENDCHAR
STARTCHAR Tcaron.ss01
ENCODING -1
SWIDTH 631 0
DWIDTH 5 0
BBX 5 10 1 0
BITMAP
50
20
00
F8
60
40
40
40
40
40
ENDCHAR
STARTCHAR uni0162.ss01
ENCODING -1
SWIDTH 631 0
DWIDTH 5 0
BBX 5 9 1 -2
BITMAP
F8
60
40
40
40
40
40
C0
C0
ENDCHAR
STARTCHAR uni021A.ss01
ENCODING -1
SWIDTH 631 0
DWIDTH 5 0
BBX 5 9 1 -2
BITMAP
F8
60
40
40
40
40
40
40
40
ENDCHAR
STARTCHAR U.ss01
ENCODING -1
SWIDTH 800 0
DWIDTH 6 0
BBX 5 7 1 0
BITMAP
C8
88
88
98
98
B0
D0
ENDCHAR
STARTCHAR Uacute.ss01
ENCODING -1
SWIDTH 800 0
DWIDTH 6 0
BBX 5 10 1 0
BITMAP
08
10
00
C8
88
88
98
98
B0
D0
ENDCHAR
STARTCHAR Ubreve.ss01
ENCODING -1
SWIDTH 800 0
DWIDTH 6 0
BBX 5 9 1 0
BITMAP
48
30
C8
88
88
98
98
B0
D0
ENDCHAR
STARTCHAR Ucircumflex.ss01
ENCODING -1
SWIDTH 800 0
DWIDTH 6 0
BBX 5 11 1 0
BITMAP
10
30
30
00
C8
88
88
98
98
B0
D0
ENDCHAR
STARTCHAR uni0214.ss01
ENCODING -1
SWIDTH 800 0
DWIDTH 6 0
BBX 5 10 1 0
BITMAP
50
30
00
C8
88
88
98
98
B0
D0
ENDCHAR
STARTCHAR Udieresis.ss01
ENCODING -1
SWIDTH 800 0
DWIDTH 6 0
BBX 5 9 1 0
BITMAP
30
00
C8
88
88
98
98
B0
D0
ENDCHAR
STARTCHAR uni1EE4.ss01
ENCODING -1
SWIDTH 800 0
DWIDTH 6 0
BBX 5 9 1 -2
BITMAP
C8
88
88
98
98
B0
D0
00
60
ENDCHAR
STARTCHAR Ugrave.ss01
ENCODING -1
SWIDTH 800 0
DWIDTH 6 0
BBX 5 10 1 0
BITMAP
40
20
00
C8
88
88
98
98
B0
D0
ENDCHAR
STARTCHAR uni1EE6.ss01
ENCODING -1
SWIDTH 800 0
DWIDTH 6 0
BBX 5 9 1 0
BITMAP
30
30
C8
88
88
98
98
B0
D0
ENDCHAR
STARTCHAR Uhorn.ss01
ENCODING -1
SWIDTH 800 0
DWIDTH 6 0
BBX 6 9 1 0
BITMAP
04
04
CC
88
88
98
98
B0
D0
ENDCHAR
STARTCHAR uni1EE8.ss01
ENCODING -1
SWIDTH 800 0
DWIDTH 6 0
BBX 6 10 1 0
BITMAP
08
14
04
CC
88
88
98
98
B0
D0
ENDCHAR
STARTCHAR uni1EF0.ss01
ENCODING -1
SWIDTH 800 0
DWIDTH 6 0
BBX 6 11 1 -2
BITMAP
04
04
CC
88
88
98
98
B0
D0
00
60
ENDCHAR
STARTCHAR uni1EEA.ss01
ENCODING -1
SWIDTH 800 0
DWIDTH 6 0
BBX 6 10 1 0
BITMAP
40
24
04
CC
88
88
98
98
B0
D0
ENDCHAR
STARTCHAR uni1EEC.ss01
ENCODING -1
SWIDTH 800 0
DWIDTH 6 0
BBX 6 9 1 0
BITMAP
34
34
CC
88
88
98
98
B0
D0
ENDCHAR
STARTCHAR uni1EEE.ss01
ENCODING -1
SWIDTH 800 0
DWIDTH 6 0
BBX 6 10 1 0
BITMAP
28
54
04
CC
88
88
98
98
B0
D0
ENDCHAR
STARTCHAR Uhungarumlaut.ss01
ENCODING -1
SWIDTH 800 0
DWIDTH 6 0
BBX 5 10 1 0
BITMAP
28
30
00
C8
88
88
98
98
B0
D0
ENDCHAR
STARTCHAR uni0216.ss01
ENCODING -1
SWIDTH 800 0
DWIDTH 6 0
BBX 5 9 1 0
BITMAP
30
48
C8
88
88
98
98
B0
D0
ENDCHAR
STARTCHAR Umacron.ss01
ENCODING -1
SWIDTH 800 0
DWIDTH 6 0
BBX 5 8 1 0
BITMAP
30
C8
88
88
98
98
B0
D0
ENDCHAR
STARTCHAR Uogonek.ss01
ENCODING -1
SWIDTH 800 0
DWIDTH 6 0
BBX 5 9 1 -2
BITMAP
C8
88
88
98
98
B0
D0
10
18
ENDCHAR
STARTCHAR Uring.ss01
ENCODING -1
SWIDTH 800 0
DWIDTH 6 0
BBX 5 10 1 0
BITMAP
30
30
30
C8
88
88
98
98
B0
D0
ENDCHAR
STARTCHAR Utilde.ss01
ENCODING -1
SWIDTH 800 0
DWIDTH 6 0
BBX 5 10 1 0
BITMAP
28
50
00
C8
88
88
98
98
B0
D0
ENDCHAR
STARTCHAR V.ss01
ENCODING -1
SWIDTH 797 0
DWIDTH 6 0
BBX 6 7 1 0
BITMAP
8C
88
88
88
90
90
60
ENDCHAR
STARTCHAR W.ss01
ENCODING -1
SWIDTH 1236 0
DWIDTH 10 0
BBX 9 7 1 0
BITMAP
8880
8880
8980
9900
9900
AA00
6E00
ENDCHAR
STARTCHAR Wacute.ss01
ENCODING -1
SWIDTH 1236 0
DWIDTH 10 0
BBX 9 10 1 0
BITMAP
0600
0C00
0000
8880
8880
8980
9900
9900
AA00
6E00
ENDCHAR
STARTCHAR Wcircumflex.ss01
ENCODING -1
SWIDTH 1236 0
DWIDTH 10 0
BBX 9 11 1 0
BITMAP
0800
0C00
1400
0000
8880
8880
8980
9900
9900
AA00
6E00
ENDCHAR
STARTCHAR Wdieresis.ss01
ENCODING -1
SWIDTH 1236 0
DWIDTH 10 0
BBX 9 9 1 0
BITMAP
1C00
0000
8880
8880
8980
9900
9900
AA00
6E00
ENDCHAR
STARTCHAR Wgrave.ss01
ENCODING -1
SWIDTH 1236 0
DWIDTH 10 0
BBX 9 10 1 0
BITMAP
3000
0800
0000
8880
8880
8980
9900
9900
AA00
6E00
ENDCHAR
STARTCHAR X.ss01
ENCODING -1
SWIDTH 677 0
DWIDTH 5 0
BBX 6 7 0 0
BITMAP
44
28
30
30
70
58
88
ENDCHAR
STARTCHAR Y.ss01
ENCODING -1
SWIDTH 776 0
DWIDTH 6 0
BBX 5 7 1 0
BITMAP
88
88
98
98
F8
10
E0
ENDCHAR
STARTCHAR Yacute.ss01
ENCODING -1
SWIDTH 776 0
DWIDTH 6 0
BBX 5 10 1 0
BITMAP
08
30
00
88
88
98
98
F8
10
E0
ENDCHAR
STARTCHAR Ycircumflex.ss01
ENCODING -1
SWIDTH 776 0
DWIDTH 6 0
BBX 5 11 1 0
BITMAP
20
30
50
00
88
88
98
98
F8
10
E0
ENDCHAR
STARTCHAR Ydieresis.ss01
ENCODING -1
SWIDTH 776 0
DWIDTH 6 0
BBX 5 9 1 0
BITMAP
70
00
88
88
98
98
F8
10
E0
ENDCHAR
STARTCHAR uni1EF4.ss01
ENCODING -1
SWIDTH 776 0
DWIDTH 6 0
BBX 5 9 1 -2
BITMAP
88
88
98
98
F8
10
E0
00
40
ENDCHAR
STARTCHAR Ygrave.ss01
ENCODING -1
SWIDTH 776 0
DWIDTH 6 0
BBX 5 10 1 0
BITMAP
40
20
00
88
88
98
98
F8
10
E0
ENDCHAR
STARTCHAR uni1EF6.ss01
ENCODING -1
SWIDTH 776 0
DWIDTH 6 0
BBX 5 9 1 0
BITMAP
30
30
88
88
98
98
F8
10
E0
ENDCHAR
STARTCHAR uni0232.ss01
ENCODING -1
SWIDTH 776 0
DWIDTH 6 0
BBX 5 8 1 0
BITMAP
70
88
88
98
98
F8
10
E0
ENDCHAR
STARTCHAR uni1EF8.ss01
ENCODING -1
SWIDTH 776 0
DWIDTH 6 0
BBX 5 10 1 0
BITMAP
28
70
00
88
88
98
98
F8
10
E0
ENDCHAR
STARTCHAR Z.ss01
ENCODING -1
SWIDTH 665 0
DWIDTH 5 0
BBX 6 7 0 0
BITMAP
7C
08
10
30
60
40
F8
ENDCHAR
STARTCHAR Zacute.ss01
ENCODING -1
SWIDTH 665 0
DWIDTH 5 0
BBX 6 10 0 0
BITMAP
0C
10
00
7C
08
10
30
60
40
F8
ENDCHAR
STARTCHAR Zcaron.ss01
ENCODING -1
SWIDTH 665 0
DWIDTH 5 0
BBX 6 10 0 0
BITMAP
28
10
00
7C
08
10
30
60
40
F8
ENDCHAR
STARTCHAR Zdotaccent.ss01
ENCODING -1
SWIDTH 665 0
DWIDTH 5 0
BBX 6 9 0 0
BITMAP
10
00
7C
08
10
30
60
40
F8
ENDCHAR
STARTCHAR i.loclTRK
ENCODING -1
SWIDTH 246 0
DWIDTH 2 0
BBX 3 6 0 0
BITMAP
40
00
40
80
A0
40
ENDCHAR
STARTCHAR a.fina
ENCODING -1
SWIDTH 458 0
DWIDTH 4 0
BBX 3 4 0 0
BITMAP
60
60
A0
E0
ENDCHAR
STARTCHAR aacute.fina
ENCODING -1
SWIDTH 458 0
DWIDTH 4 0
BBX 4 8 0 0
BITMAP
10
10
20
00
60
60
A0
E0
ENDCHAR
STARTCHAR abreve.fina
ENCODING -1
SWIDTH 458 0
DWIDTH 4 0
BBX 4 6 0 0
BITMAP
50
70
60
60
A0
E0
ENDCHAR
STARTCHAR uni1EAF.fina
ENCODING -1
SWIDTH 458 0
DWIDTH 4 0
BBX 4 7 0 0
BITMAP
10
70
70
60
60
A0
E0
ENDCHAR
STARTCHAR uni1EB7.fina
ENCODING -1
SWIDTH 458 0
DWIDTH 4 0
BBX 4 8 0 -2
BITMAP
50
70
60
60
A0
E0
00
40
ENDCHAR
STARTCHAR uni1EB1.fina
ENCODING -1
SWIDTH 458 0
DWIDTH 4 0
BBX 4 7 0 0
BITMAP
60
50
70
60
60
A0
E0
ENDCHAR
STARTCHAR uni1EB3.fina
ENCODING -1
SWIDTH 458 0
DWIDTH 4 0
BBX 4 7 0 0
BITMAP
20
20
70
60
60
A0
E0
ENDCHAR
STARTCHAR uni1EB5.fina
ENCODING -1
SWIDTH 458 0
DWIDTH 4 0
BBX 4 8 0 0
BITMAP
30
50
50
70
60
60
A0
E0
ENDCHAR
STARTCHAR acircumflex.fina
ENCODING -1
SWIDTH 458 0
DWIDTH 4 0
BBX 4 8 0 0
BITMAP
20
30
50
00
60
60
A0
E0
ENDCHAR
STARTCHAR uni1EA5.fina
ENCODING -1
SWIDTH 458 0
DWIDTH 4 0
BBX 5 8 0 0
BITMAP
08
30
50
00
60
60
A0
E0
ENDCHAR
STARTCHAR uni1EAD.fina
ENCODING -1
SWIDTH 458 0
DWIDTH 4 0
BBX 4 10 0 -2
BITMAP
20
30
50
00
60
60
A0
E0
00
40
ENDCHAR
STARTCHAR uni1EA7.fina
ENCODING -1
SWIDTH 458 0
DWIDTH 4 0
BBX 4 8 0 0
BITMAP
80
60
50
00
60
60
A0
E0
ENDCHAR
STARTCHAR uni1EA9.fina
ENCODING -1
SWIDTH 458 0
DWIDTH 4 0
BBX 5 7 0 0
BITMAP
18
28
50
60
60
A0
E0
ENDCHAR
STARTCHAR uni1EAB.fina
ENCODING -1
SWIDTH 458 0
DWIDTH 4 0
BBX 4 8 0 0
BITMAP
70
20
50
00
60
60
A0
E0
ENDCHAR
STARTCHAR uni0201.fina
ENCODING -1
SWIDTH 458 0
DWIDTH 4 0
BBX 4 8 0 0
BITMAP
60
60
50
00
60
60
A0
E0
ENDCHAR
STARTCHAR adieresis.fina
ENCODING -1
SWIDTH 458 0
DWIDTH 4 0
BBX 4 6 0 0
BITMAP
50
00
60
60
A0
E0
ENDCHAR
STARTCHAR uni1EA1.fina
ENCODING -1
SWIDTH 458 0
DWIDTH 4 0
BBX 3 6 0 -2
BITMAP
60
60
A0
E0
00
40
ENDCHAR
STARTCHAR agrave.fina
ENCODING -1
SWIDTH 458 0
DWIDTH 4 0
BBX 3 8 0 0
BITMAP
40
40
20
00
60
60
A0
E0
ENDCHAR
STARTCHAR uni1EA3.fina
ENCODING -1
SWIDTH 458 0
DWIDTH 4 0
BBX 4 7 0 0
BITMAP
20
10
20
60
60
A0
E0
ENDCHAR
STARTCHAR uni0203.fina
ENCODING -1
SWIDTH 458 0
DWIDTH 4 0
BBX 4 7 0 0
BITMAP
70
50
00
60
60
A0
E0
ENDCHAR
STARTCHAR amacron.fina
ENCODING -1
SWIDTH 458 0
DWIDTH 4 0
BBX 4 5 0 0
BITMAP
70
60
60
A0
E0
ENDCHAR
STARTCHAR aogonek.fina
ENCODING -1
SWIDTH 458 0
DWIDTH 4 0
BBX 4 6 0 -2
BITMAP
60
60
A0
E0
20
30
ENDCHAR
STARTCHAR aring.fina
ENCODING -1
SWIDTH 458 0
DWIDTH 4 0
BBX 4 7 0 0
BITMAP
20
50
20
60
60
A0
E0
ENDCHAR
STARTCHAR aringacute.fina
ENCODING -1
SWIDTH 458 0
DWIDTH 4 0
BBX 5 8 0 0
BITMAP
08
28
50
20
60
60
A0
E0
ENDCHAR
STARTCHAR atilde.fina
ENCODING -1
SWIDTH 458 0
DWIDTH 4 0
BBX 4 7 0 0
BITMAP
50
70
00
60
60
A0
E0
ENDCHAR
STARTCHAR ae.fina
ENCODING -1
SWIDTH 671 0
DWIDTH 5 0
BBX 6 4 0 0
BITMAP
78
E8
B4
58
ENDCHAR
STARTCHAR aeacute.fina
ENCODING -1
SWIDTH 671 0
DWIDTH 5 0
BBX 6 8 0 0
BITMAP
08
08
10
00
78
E8
B4
58
ENDCHAR
STARTCHAR b.fina
ENCODING -1
SWIDTH 475 0
DWIDTH 4 0
BBX 4 8 0 0
BITMAP
20
50
60
60
E0
D0
90
60
ENDCHAR
STARTCHAR c.fina
ENCODING -1
SWIDTH 404 0
DWIDTH 3 0
BBX 3 4 0 0
BITMAP
60
A0
A0
60
ENDCHAR
STARTCHAR cacute.fina
ENCODING -1
SWIDTH 404 0
DWIDTH 3 0
BBX 4 8 0 0
BITMAP
10
20
20
00
60
A0
90
60
ENDCHAR
STARTCHAR ccaron.fina
ENCODING -1
SWIDTH 404 0
DWIDTH 3 0
BBX 4 8 0 0
BITMAP
50
60
20
00
60
A0
90
60
ENDCHAR
STARTCHAR ccedilla.fina
ENCODING -1
SWIDTH 404 0
DWIDTH 3 0
BBX 3 6 0 -2
BITMAP
60
A0
A0
60
20
C0
ENDCHAR
STARTCHAR ccircumflex.fina
ENCODING -1
SWIDTH 404 0
DWIDTH 3 0
BBX 3 8 0 0
BITMAP
20
60
60
00
60
A0
A0
60
ENDCHAR
STARTCHAR cdotaccent.fina
ENCODING -1
SWIDTH 404 0
DWIDTH 3 0
BBX 3 6 0 0
BITMAP
60
00
60
A0
A0
60
ENDCHAR
STARTCHAR d.fina
ENCODING -1
SWIDTH 493 0
DWIDTH 4 0
BBX 5 8 0 0
BITMAP
18
18
18
28
70
F0
A0
50
ENDCHAR
STARTCHAR dcaron.fina
ENCODING -1
SWIDTH 458 0
DWIDTH 4 0
BBX 5 8 0 0
BITMAP
08
18
10
10
70
60
A0
E0
ENDCHAR
STARTCHAR dcroat.fina
ENCODING -1
SWIDTH 458 0
DWIDTH 4 0
BBX 4 7 0 0
BITMAP
10
70
10
70
60
A0
E0
ENDCHAR
STARTCHAR uni01C6.fina
ENCODING -1
SWIDTH 876 0
DWIDTH 7 0
BBX 8 10 0 -3
BITMAP
17
16
10
7E
64
A8
D4
0C
14
08
ENDCHAR
STARTCHAR e.fina
ENCODING -1
SWIDTH 411 0
DWIDTH 3 0
BBX 3 4 0 0
BITMAP
60
A0
E0
60
ENDCHAR
STARTCHAR eacute.fina
ENCODING -1
SWIDTH 411 0
DWIDTH 3 0
BBX 4 8 0 0
BITMAP
10
20
20
00
60
A0
D0
60
ENDCHAR
STARTCHAR ebreve.fina
ENCODING -1
SWIDTH 411 0
DWIDTH 3 0
BBX 4 6 0 0
BITMAP
50
60
60
A0
D0
60
ENDCHAR
STARTCHAR ecaron.fina
ENCODING -1
SWIDTH 411 0
DWIDTH 3 0
BBX 4 8 0 0
BITMAP
50
60
20
00
60
A0
D0
60
ENDCHAR
STARTCHAR ecircumflex.fina
ENCODING -1
SWIDTH 411 0
DWIDTH 3 0
BBX 3 8 0 0
BITMAP
20
60
60
00
60
A0
E0
60
ENDCHAR
STARTCHAR uni1EBF.fina
ENCODING -1
SWIDTH 411 0
DWIDTH 3 0
BBX 5 8 0 0
BITMAP
08
30
60
00
60
A0
D0
60
ENDCHAR
STARTCHAR uni1EC7.fina
ENCODING -1
SWIDTH 411 0
DWIDTH 3 0
BBX 3 10 0 -2
BITMAP
20
60
60
00
60
A0
E0
60
00
40
ENDCHAR
STARTCHAR uni1EC1.fina
ENCODING -1
SWIDTH 411 0
DWIDTH 3 0
BBX 3 8 0 0
BITMAP
80
60
60
00
60
A0
E0
60
ENDCHAR
STARTCHAR uni1EC3.fina
ENCODING -1
SWIDTH 411 0
DWIDTH 3 0
BBX 5 7 0 0
BITMAP
18
38
60
60
A0
D0
60
ENDCHAR
STARTCHAR uni1EC5.fina
ENCODING -1
SWIDTH 411 0
DWIDTH 3 0
BBX 4 8 0 0
BITMAP
70
20
60
00
60
A0
D0
60
ENDCHAR
STARTCHAR uni0205.fina
ENCODING -1
SWIDTH 411 0
DWIDTH 3 0
BBX 3 8 0 0
BITMAP
A0
A0
60
00
60
A0
E0
60
ENDCHAR
STARTCHAR edieresis.fina
ENCODING -1
SWIDTH 411 0
DWIDTH 3 0
BBX 4 6 0 0
BITMAP
70
00
60
A0
D0
60
ENDCHAR
STARTCHAR edotaccent.fina
ENCODING -1
SWIDTH 411 0
DWIDTH 3 0
BBX 3 6 0 0
BITMAP
60
00
60
A0
E0
60
ENDCHAR
STARTCHAR uni1EB9.fina
ENCODING -1
SWIDTH 411 0
DWIDTH 3 0
BBX 3 6 0 -2
BITMAP
60
A0
E0
60
00
40
ENDCHAR
STARTCHAR egrave.fina
ENCODING -1
SWIDTH 411 0
DWIDTH 3 0
BBX 3 8 0 0
BITMAP
40
40
40
00
60
A0
E0
60
ENDCHAR
STARTCHAR uni1EBB.fina
ENCODING -1
SWIDTH 411 0
DWIDTH 3 0
BBX 3 7 0 0
BITMAP
60
20
20
60
A0
E0
60
ENDCHAR
STARTCHAR uni0207.fina
ENCODING -1
SWIDTH 411 0
DWIDTH 3 0
BBX 4 7 0 0
BITMAP
60
50
00
60
A0
D0
60
ENDCHAR
STARTCHAR emacron.fina
ENCODING -1
SWIDTH 411 0
DWIDTH 3 0
BBX 3 5 0 0
BITMAP
60
60
A0
E0
60
ENDCHAR
STARTCHAR eogonek.fina
ENCODING -1
SWIDTH 411 0
DWIDTH 3 0
BBX 3 6 0 -2
BITMAP
60
A0
E0
60
40
60
ENDCHAR
STARTCHAR uni1EBD.fina
ENCODING -1
SWIDTH 411 0
DWIDTH 3 0
BBX 4 7 0 0
BITMAP
50
B0
00
60
A0
D0
60
ENDCHAR
STARTCHAR g.fina
ENCODING -1
SWIDTH 449 0
DWIDTH 4 0
BBX 3 8 0 -4
BITMAP
60
60
A0
E0
60
A0
C0
C0
ENDCHAR
STARTCHAR gbreve.fina
ENCODING -1
SWIDTH 449 0
DWIDTH 4 0
BBX 4 10 0 -4
BITMAP
50
70
60
60
A0
E0
60
A0
C0
C0
ENDCHAR
STARTCHAR gcaron.fina
ENCODING -1
SWIDTH 449 0
DWIDTH 4 0
BBX 4 12 0 -4
BITMAP
50
30
20
00
60
60
A0
E0
60
A0
C0
C0
ENDCHAR
STARTCHAR gcircumflex.fina
ENCODING -1
SWIDTH 449 0
DWIDTH 4 0
BBX 4 12 0 -4
BITMAP
20
30
50
00
60
60
A0
E0
60
A0
C0
C0
ENDCHAR
STARTCHAR uni0123.fina
ENCODING -1
SWIDTH 449 0
DWIDTH 4 0
BBX 3 11 0 -4
BITMAP
20
20
00
60
60
A0
E0
60
A0
C0
C0
ENDCHAR
STARTCHAR gdotaccent.fina
ENCODING -1
SWIDTH 449 0
DWIDTH 4 0
BBX 3 10 0 -4
BITMAP
20
00
60
60
A0
E0
60
A0
C0
C0
ENDCHAR
STARTCHAR h.fina
ENCODING -1
SWIDTH 490 0
DWIDTH 4 0
BBX 4 8 0 0
BITMAP
20
50
60
60
70
D0
D0
60
ENDCHAR
STARTCHAR hbar.fina
ENCODING -1
SWIDTH 490 0
DWIDTH 4 0
BBX 4 7 0 0
BITMAP
40
F0
40
70
D0
D0
60
ENDCHAR
STARTCHAR hcircumflex.fina
ENCODING -1
SWIDTH 490 0
DWIDTH 4 0
BBX 4 12 0 0
BITMAP
20
30
50
00
20
50
60
60
70
D0
D0
60
ENDCHAR
STARTCHAR i.fina
ENCODING -1
SWIDTH 222 0
DWIDTH 2 0
BBX 2 6 0 0
BITMAP
40
00
40
40
80
80
ENDCHAR
STARTCHAR dotlessi.fina
ENCODING -1
SWIDTH 222 0
DWIDTH 2 0
BBX 2 4 0 0
BITMAP
40
40
80
80
ENDCHAR
STARTCHAR iacute.fina
ENCODING -1
SWIDTH 222 0
DWIDTH 2 0
BBX 3 8 0 0
BITMAP
20
20
40
00
40
40
80
80
ENDCHAR
STARTCHAR iacute_j.loclNLD.fina
ENCODING -1
SWIDTH 479 0
DWIDTH 4 0
BBX 5 12 0 -4
BITMAP
28
38
50
00
50
A0
A0
60
60
A0
C0
C0
ENDCHAR
STARTCHAR ibreve.fina
ENCODING -1
SWIDTH 222 0
DWIDTH 2 0
BBX 3 6 0 0
BITMAP
A0
E0
40
40
80
80
ENDCHAR
STARTCHAR icircumflex.fina
ENCODING -1
SWIDTH 222 0
DWIDTH 2 0
BBX 3 8 0 0
BITMAP
40
A0
A0
00
40
40
80
80
ENDCHAR
STARTCHAR uni0209.fina
ENCODING -1
SWIDTH 222 0
DWIDTH 2 0
BBX 3 8 -1 0
BITMAP
A0
60
60
00
20
20
40
40
ENDCHAR
STARTCHAR idieresis.fina
ENCODING -1
SWIDTH 222 0
DWIDTH 2 0
BBX 3 6 0 0
BITMAP
A0
00
40
40
80
80
ENDCHAR
STARTCHAR i.loclTRK.fina
ENCODING -1
SWIDTH 222 0
DWIDTH 2 0
BBX 2 6 0 0
BITMAP
40
00
40
40
80
80
ENDCHAR
STARTCHAR uni1ECB.fina
ENCODING -1
SWIDTH 222 0
DWIDTH 2 0
BBX 2 8 0 -2
BITMAP
40
00
40
40
80
80
00
80
ENDCHAR
STARTCHAR igrave.fina
ENCODING -1
SWIDTH 222 0
DWIDTH 2 0
BBX 2 8 0 0
BITMAP
80
80
40
00
40
40
80
80
ENDCHAR
STARTCHAR uni1EC9.fina
ENCODING -1
SWIDTH 222 0
DWIDTH 2 0
BBX 3 7 0 0
BITMAP
40
20
40
40
40
80
80
ENDCHAR
STARTCHAR uni020B.fina
ENCODING -1
SWIDTH 222 0
DWIDTH 2 0
BBX 3 7 0 0
BITMAP
E0
A0
00
40
40
80
80
ENDCHAR
STARTCHAR imacron.fina
ENCODING -1
SWIDTH 222 0
DWIDTH 2 0
BBX 3 5 0 0
BITMAP
E0
40
40
80
80
ENDCHAR
STARTCHAR iogonek.fina
ENCODING -1
SWIDTH 222 0
DWIDTH 2 0
BBX 2 8 0 -2
BITMAP
40
00
40
40
80
80
80
C0
ENDCHAR
STARTCHAR itilde.fina
ENCODING -1
SWIDTH 222 0
DWIDTH 2 0
BBX 3 7 0 0
BITMAP
A0
E0
00
40
40
80
80
ENDCHAR
STARTCHAR j.fina
ENCODING -1
SWIDTH 229 0
DWIDTH 2 0
BBX 4 10 -2 -4
BITMAP
10
00
10
10
20
20
20
60
A0
C0
ENDCHAR
STARTCHAR uni0237.fina
ENCODING -1
SWIDTH 229 0
DWIDTH 2 0
BBX 4 8 -2 -4
BITMAP
10
10
20
20
20
60
A0
C0
ENDCHAR
STARTCHAR jcircumflex.fina
ENCODING -1
SWIDTH 229 0
DWIDTH 2 0
BBX 5 12 -2 -4
BITMAP
10
28
28
00
10
10
20
20
20
60
A0
C0
ENDCHAR
STARTCHAR k.fina
ENCODING -1
SWIDTH 521 0
DWIDTH 4 0
BBX 4 8 0 0
BITMAP
20
50
60
60
70
D0
E0
70
ENDCHAR
STARTCHAR uni0137.fina
ENCODING -1
SWIDTH 521 0
DWIDTH 4 0
BBX 4 11 0 -3
BITMAP
20
50
60
60
70
D0
E0
70
00
40
40
ENDCHAR
STARTCHAR kgreenlandic.fina
ENCODING -1
SWIDTH 541 0
DWIDTH 4 0
BBX 4 4 0 0
BITMAP
70
B0
D0
B0
ENDCHAR
STARTCHAR l.fina
ENCODING -1
SWIDTH 368 0
DWIDTH 3 0
BBX 3 8 0 0
BITMAP
20
60
60
60
A0
C0
80
60
ENDCHAR
STARTCHAR lacute.fina
ENCODING -1
SWIDTH 368 0
DWIDTH 3 0
BBX 5 11 0 0
BITMAP
08
30
00
20
50
60
60
A0
C0
80
60
ENDCHAR
STARTCHAR lcaron.fina
ENCODING -1
SWIDTH 368 0
DWIDTH 3 0
BBX 5 8 0 0
BITMAP
28
50
60
60
A0
C0
80
60
ENDCHAR
STARTCHAR uni013C.fina
ENCODING -1
SWIDTH 368 0
DWIDTH 3 0
BBX 3 11 0 -3
BITMAP
20
60
60
60
A0
C0
80
60
00
40
40
ENDCHAR
STARTCHAR ldot.fina
ENCODING -1
SWIDTH 466 0
DWIDTH 4 0
BBX 4 8 0 0
BITMAP
60
40
40
60
40
80
90
60
ENDCHAR
STARTCHAR uni01C9.fina
ENCODING -1
SWIDTH 555 0
DWIDTH 4 0
BBX 5 12 0 -4
BITMAP
20
50
58
60
B0
D0
90
70
30
50
60
60
ENDCHAR
STARTCHAR lslash.fina
ENCODING -1
SWIDTH 368 0
DWIDTH 3 0
BBX 5 9 0 0
BITMAP
38
40
20
50
60
A0
C0
80
60
ENDCHAR
STARTCHAR m.fina
ENCODING -1
SWIDTH 732 0
DWIDTH 6 0
BBX 6 4 0 0
BITMAP
7C
F4
F8
A8
ENDCHAR
STARTCHAR n.fina
ENCODING -1
SWIDTH 484 0
DWIDTH 4 0
BBX 4 4 0 0
BITMAP
70
D0
E0
A0
ENDCHAR
STARTCHAR nacute.fina
ENCODING -1
SWIDTH 484 0
DWIDTH 4 0
BBX 4 8 0 0
BITMAP
10
10
20
00
70
D0
E0
A0
ENDCHAR
STARTCHAR napostrophe.fina
ENCODING -1
SWIDTH 484 0
DWIDTH 4 0
BBX 4 7 0 0
BITMAP
80
80
00
70
D0
E0
A0
ENDCHAR
STARTCHAR ncaron.fina
ENCODING -1
SWIDTH 484 0
DWIDTH 4 0
BBX 4 8 0 0
BITMAP
50
30
20
00
70
D0
E0
A0
ENDCHAR
STARTCHAR uni0146.fina
ENCODING -1
SWIDTH 484 0
DWIDTH 4 0
BBX 4 7 0 -3
BITMAP
70
D0
E0
A0
00
40
40
ENDCHAR
STARTCHAR eng.fina
ENCODING -1
SWIDTH 484 0
DWIDTH 4 0
BBX 4 7 0 -3
BITMAP
70
D0
E0
A0
20
A0
C0
ENDCHAR
STARTCHAR uni01CC.fina
ENCODING -1
SWIDTH 725 0
DWIDTH 6 0
BBX 6 10 0 -4
BITMAP
04
00
74
D4
E8
B8
08
18
28
30
ENDCHAR
STARTCHAR ntilde.fina
ENCODING -1
SWIDTH 484 0
DWIDTH 4 0
BBX 4 7 0 0
BITMAP
50
70
00
70
D0
E0
A0
ENDCHAR
STARTCHAR o.fina
ENCODING -1
SWIDTH 453 0
DWIDTH 4 0
BBX 3 4 0 0
BITMAP
60
A0
A0
60
ENDCHAR
STARTCHAR oacute.fina
ENCODING -1
SWIDTH 453 0
DWIDTH 4 0
BBX 4 8 0 0
BITMAP
10
20
20
00
60
A0
A0
60
ENDCHAR
STARTCHAR obreve.fina
ENCODING -1
SWIDTH 453 0
DWIDTH 4 0
BBX 4 6 0 0
BITMAP
50
60
60
A0
A0
60
ENDCHAR
STARTCHAR ocircumflex.fina
ENCODING -1
SWIDTH 453 0
DWIDTH 4 0
BBX 3 8 0 0
BITMAP
20
60
60
00
60
A0
A0
60
ENDCHAR
STARTCHAR uni1ED1.fina
ENCODING -1
SWIDTH 453 0
DWIDTH 4 0
BBX 5 8 0 0
BITMAP
08
30
60
00
60
A0
A0
60
ENDCHAR
STARTCHAR uni1ED9.fina
ENCODING -1
SWIDTH 453 0
DWIDTH 4 0
BBX 3 10 0 -2
BITMAP
20
60
60
00
60
A0
A0
60
00
40
ENDCHAR
STARTCHAR uni1ED3.fina
ENCODING -1
SWIDTH 453 0
DWIDTH 4 0
BBX 3 8 0 0
BITMAP
80
60
60
00
60
A0
A0
60
ENDCHAR
STARTCHAR uni1ED5.fina
ENCODING -1
SWIDTH 453 0
DWIDTH 4 0
BBX 5 7 0 0
BITMAP
18
38
60
60
A0
A0
60
ENDCHAR
STARTCHAR uni1ED7.fina
ENCODING -1
SWIDTH 453 0
DWIDTH 4 0
BBX 4 8 0 0
BITMAP
70
20
60
00
60
A0
A0
60
ENDCHAR
STARTCHAR uni020D.fina
ENCODING -1
SWIDTH 453 0
DWIDTH 4 0
BBX 3 8 0 0
BITMAP
A0
A0
60
00
60
A0
A0
60
ENDCHAR
STARTCHAR odieresis.fina
ENCODING -1
SWIDTH 453 0
DWIDTH 4 0
BBX 4 6 0 0
BITMAP
70
00
60
A0
A0
60
ENDCHAR
STARTCHAR uni022B.fina
ENCODING -1
SWIDTH 453 0
DWIDTH 4 0
BBX 4 7 0 0
BITMAP
70
70
00
60
A0
A0
60
ENDCHAR
STARTCHAR uni0231.fina
ENCODING -1
SWIDTH 453 0
DWIDTH 4 0
BBX 4 7 0 0
BITMAP
70
60
00
60
A0
A0
60
ENDCHAR
STARTCHAR uni1ECD.fina
ENCODING -1
SWIDTH 453 0
DWIDTH 4 0
BBX 3 6 0 -2
BITMAP
60
A0
A0
60
00
40
ENDCHAR
STARTCHAR ograve.fina
ENCODING -1
SWIDTH 453 0
DWIDTH 4 0
BBX 3 8 0 0
BITMAP
40
40
40
00
60
A0
A0
60
ENDCHAR
STARTCHAR uni1ECF.fina
ENCODING -1
SWIDTH 453 0
DWIDTH 4 0
BBX 3 7 0 0
BITMAP
60
20
20
60
A0
A0
60
ENDCHAR
STARTCHAR ohorn.fina
ENCODING -1
SWIDTH 453 0
DWIDTH 4 0
BBX 4 5 0 0
BITMAP
10
60
A0
A0
60
ENDCHAR
STARTCHAR uni1EDB.fina
ENCODING -1
SWIDTH 453 0
DWIDTH 4 0
BBX 4 8 0 0
BITMAP
20
20
20
10
60
A0
A0
60
ENDCHAR
STARTCHAR uni1EE3.fina
ENCODING -1
SWIDTH 453 0
DWIDTH 4 0
BBX 4 7 0 -2
BITMAP
10
60
A0
A0
60
00
40
ENDCHAR
STARTCHAR uni1EDD.fina
ENCODING -1
SWIDTH 453 0
DWIDTH 4 0
BBX 4 8 0 0
BITMAP
40
C0
40
10
60
A0
A0
60
ENDCHAR
STARTCHAR uni1EDF.fina
ENCODING -1
SWIDTH 453 0
DWIDTH 4 0
BBX 4 7 0 0
BITMAP
60
20
30
60
A0
A0
60
ENDCHAR
STARTCHAR uni1EE1.fina
ENCODING -1
SWIDTH 453 0
DWIDTH 4 0
BBX 4 7 0 0
BITMAP
50
70
90
60
A0
A0
60
ENDCHAR
STARTCHAR ohungarumlaut.fina
ENCODING -1
SWIDTH 453 0
DWIDTH 4 0
BBX 4 8 0 0
BITMAP
30
50
60
00
60
A0
A0
60
ENDCHAR
STARTCHAR uni020F.fina
ENCODING -1
SWIDTH 453 0
DWIDTH 4 0
BBX 4 7 0 0
BITMAP
60
90
00
60
A0
A0
60
ENDCHAR
STARTCHAR omacron.fina
ENCODING -1
SWIDTH 453 0
DWIDTH 4 0
BBX 3 5 0 0
BITMAP
60
60
A0
A0
60
ENDCHAR
STARTCHAR uni01EB.fina
ENCODING -1
SWIDTH 453 0
DWIDTH 4 0
BBX 3 6 0 -2
BITMAP
60
A0
A0
60
40
60
ENDCHAR
STARTCHAR oslash.fina
ENCODING -1
SWIDTH 463 0
DWIDTH 4 0
BBX 4 6 0 -1
BITMAP
20
60
D0
E0
60
40
ENDCHAR
STARTCHAR oslashacute.fina
ENCODING -1
SWIDTH 463 0
DWIDTH 4 0
BBX 4 9 0 -1
BITMAP
20
20
40
20
60
D0
E0
60
40
ENDCHAR
STARTCHAR otilde.fina
ENCODING -1
SWIDTH 453 0
DWIDTH 4 0
BBX 4 7 0 0
BITMAP
50
B0
00
60
A0
A0
60
ENDCHAR
STARTCHAR uni022D.fina
ENCODING -1
SWIDTH 453 0
DWIDTH 4 0
BBX 4 7 0 0
BITMAP
70
B0
00
60
A0
A0
60
ENDCHAR
STARTCHAR oe.fina
ENCODING -1
SWIDTH 686 0
DWIDTH 5 0
BBX 6 4 0 0
BITMAP
78
B8
B4
78
ENDCHAR
STARTCHAR p.fina
ENCODING -1
SWIDTH 457 0
DWIDTH 4 0
BBX 5 8 -1 -4
BITMAP
70
28
70
70
C0
C0
C0
C0
ENDCHAR
STARTCHAR thorn.fina
ENCODING -1
SWIDTH 483 0
DWIDTH 4 0
BBX 4 9 0 -2
BITMAP
40
40
40
70
D0
A0
C0
80
80
ENDCHAR
STARTCHAR q.fina
ENCODING -1
SWIDTH 449 0
DWIDTH 4 0
BBX 4 8 0 -3
BITMAP
10
70
60
A0
E0
20
20
20
ENDCHAR
STARTCHAR r.fina
ENCODING -1
SWIDTH 495 0
DWIDTH 4 0
BBX 4 4 0 0
BITMAP
70
D0
D0
80
ENDCHAR
STARTCHAR racute.fina
ENCODING -1
SWIDTH 495 0
DWIDTH 4 0
BBX 4 8 0 0
BITMAP
10
10
20
00
70
D0
D0
80
ENDCHAR
STARTCHAR rcaron.fina
ENCODING -1
SWIDTH 495 0
DWIDTH 4 0
BBX 4 8 0 0
BITMAP
50
50
20
00
70
D0
D0
80
ENDCHAR
STARTCHAR uni0157.fina
ENCODING -1
SWIDTH 495 0
DWIDTH 4 0
BBX 4 7 0 -3
BITMAP
70
D0
D0
80
00
80
80
ENDCHAR
STARTCHAR uni0211.fina
ENCODING -1
SWIDTH 495 0
DWIDTH 4 0
BBX 4 8 0 0
BITMAP
A0
60
60
00
70
D0
D0
80
ENDCHAR
STARTCHAR uni0213.fina
ENCODING -1
SWIDTH 495 0
DWIDTH 4 0
BBX 4 7 0 0
BITMAP
70
50
00
70
D0
D0
80
ENDCHAR
STARTCHAR s.fina
ENCODING -1
SWIDTH 394 0
DWIDTH 3 0
BBX 3 4 0 0
BITMAP
60
40
A0
60
ENDCHAR
STARTCHAR sacute.fina
ENCODING -1
SWIDTH 394 0
DWIDTH 3 0
BBX 4 8 0 0
BITMAP
10
20
20
00
60
40
A0
60
ENDCHAR
STARTCHAR scaron.fina
ENCODING -1
SWIDTH 394 0
DWIDTH 3 0
BBX 4 8 0 0
BITMAP
50
60
20
00
60
40
A0
60
ENDCHAR
STARTCHAR scedilla.fina
ENCODING -1
SWIDTH 394 0
DWIDTH 3 0
BBX 3 6 0 -2
BITMAP
60
40
A0
60
20
C0
ENDCHAR
STARTCHAR scircumflex.fina
ENCODING -1
SWIDTH 394 0
DWIDTH 3 0
BBX 3 8 0 0
BITMAP
20
60
60
00
60
40
A0
60
ENDCHAR
STARTCHAR uni0219.fina
ENCODING -1
SWIDTH 394 0
DWIDTH 3 0
BBX 3 7 0 -3
BITMAP
60
40
A0
60
00
40
40
ENDCHAR
STARTCHAR germandbls.fina
ENCODING -1
SWIDTH 580 0
DWIDTH 5 0
BBX 5 9 0 -2
BITMAP
30
48
50
60
B0
B8
B0
80
80
ENDCHAR
STARTCHAR uni01C9.ss01.fina
ENCODING -1
SWIDTH 466 0
DWIDTH 4 0
BBX 4 11 0 -4
BITMAP
40
70
40
50
A0
A0
60
20
60
A0
C0
ENDCHAR
STARTCHAR eng.ss01.fina
ENCODING -1
SWIDTH 484 0
DWIDTH 4 0
BBX 4 8 0 -4
BITMAP
70
D0
E0
A0
20
60
A0
C0
ENDCHAR
STARTCHAR p.ss01.fina
ENCODING -1
SWIDTH 488 0
DWIDTH 4 0
BBX 5 8 -1 -4
BITMAP
38
28
30
70
40
C0
C0
C0
ENDCHAR
STARTCHAR z.ss01.fina
ENCODING -1
SWIDTH 406 0
DWIDTH 3 0
BBX 4 8 0 -3
BITMAP
90
E0
40
C0
60
A0
C0
80
ENDCHAR
STARTCHAR zacute.ss01.fina
ENCODING -1
SWIDTH 406 0
DWIDTH 3 0
BBX 4 11 0 -3
BITMAP
10
20
20
90
E0
40
C0
60
A0
C0
80
ENDCHAR
STARTCHAR zcaron.ss01.fina
ENCODING -1
SWIDTH 406 0
DWIDTH 3 0
BBX 4 11 0 -3
BITMAP
50
60
60
90
E0
40
C0
60
A0
C0
80
ENDCHAR
STARTCHAR zdotaccent.ss01.fina
ENCODING -1
SWIDTH 406 0
DWIDTH 3 0
BBX 4 9 0 -3
BITMAP
60
90
E0
40
C0
60
A0
C0
80
ENDCHAR
STARTCHAR t.fina
ENCODING -1
SWIDTH 413 0
DWIDTH 3 0
BBX 4 8 0 0
BITMAP
20
50
60
60
F0
40
40
60
ENDCHAR
STARTCHAR tbar.fina
ENCODING -1
SWIDTH 387 0
DWIDTH 3 0
BBX 3 7 0 0
BITMAP
40
40
40
E0
E0
40
60
ENDCHAR
STARTCHAR tcaron.fina
ENCODING -1
SWIDTH 413 0
DWIDTH 3 0
BBX 5 8 0 0
BITMAP
28
58
60
60
F0
40
40
60
ENDCHAR
STARTCHAR uni0163.fina
ENCODING -1
SWIDTH 413 0
DWIDTH 3 0
BBX 4 9 0 -2
BITMAP
20
50
60
F0
40
40
60
20
40
ENDCHAR
STARTCHAR uni021B.fina
ENCODING -1
SWIDTH 413 0
DWIDTH 3 0
BBX 4 11 0 -3
BITMAP
20
50
60
60
F0
40
40
60
00
40
40
ENDCHAR
STARTCHAR u.fina
ENCODING -1
SWIDTH 460 0
DWIDTH 4 0
BBX 4 4 0 0
BITMAP
50
A0
A0
60
ENDCHAR
STARTCHAR uacute.fina
ENCODING -1
SWIDTH 460 0
DWIDTH 4 0
BBX 4 8 0 0
BITMAP
10
10
20
00
50
A0
A0
60
ENDCHAR
STARTCHAR ubreve.fina
ENCODING -1
SWIDTH 460 0
DWIDTH 4 0
BBX 4 6 0 0
BITMAP
50
70
50
A0
A0
60
ENDCHAR
STARTCHAR ucircumflex.fina
ENCODING -1
SWIDTH 460 0
DWIDTH 4 0
BBX 4 8 0 0
BITMAP
20
50
50
00
50
A0
A0
60
ENDCHAR
STARTCHAR uni0215.fina
ENCODING -1
SWIDTH 460 0
DWIDTH 4 0
BBX 4 8 0 0
BITMAP
A0
60
60
00
50
A0
A0
60
ENDCHAR
STARTCHAR udieresis.fina
ENCODING -1
SWIDTH 460 0
DWIDTH 4 0
BBX 4 6 0 0
BITMAP
50
00
50
A0
A0
60
ENDCHAR
STARTCHAR uni1EE5.fina
ENCODING -1
SWIDTH 460 0
DWIDTH 4 0
BBX 4 6 0 -2
BITMAP
50
A0
A0
60
00
40
ENDCHAR
STARTCHAR ugrave.fina
ENCODING -1
SWIDTH 460 0
DWIDTH 4 0
BBX 4 8 0 0
BITMAP
40
40
20
00
50
A0
A0
60
ENDCHAR
STARTCHAR uni1EE7.fina
ENCODING -1
SWIDTH 460 0
DWIDTH 4 0
BBX 4 7 0 0
BITMAP
20
10
20
50
A0
A0
60
ENDCHAR
STARTCHAR uhorn.fina
ENCODING -1
SWIDTH 472 0
DWIDTH 4 0
BBX 5 5 0 0
BITMAP
08
50
A0
A0
60
ENDCHAR
STARTCHAR uni1EE9.fina
ENCODING -1
SWIDTH 472 0
DWIDTH 4 0
BBX 5 8 0 0
BITMAP
10
10
20
08
50
A0
A0
60
ENDCHAR
STARTCHAR uni1EF1.fina
ENCODING -1
SWIDTH 472 0
DWIDTH 4 0
BBX 5 7 0 -2
BITMAP
08
50
A0
A0
60
00
40
ENDCHAR
STARTCHAR uni1EEB.fina
ENCODING -1
SWIDTH 472 0
DWIDTH 4 0
BBX 5 8 0 0
BITMAP
40
40
20
08
50
A0
A0
60
ENDCHAR
STARTCHAR uni1EED.fina
ENCODING -1
SWIDTH 472 0
DWIDTH 4 0
BBX 5 7 0 0
BITMAP
20
10
28
50
A0
A0
60
ENDCHAR
STARTCHAR uni1EEF.fina
ENCODING -1
SWIDTH 472 0
DWIDTH 4 0
BBX 5 7 0 0
BITMAP
50
70
58
50
A0
A0
60
ENDCHAR
STARTCHAR uhungarumlaut.fina
ENCODING -1
SWIDTH 460 0
DWIDTH 4 0
BBX 4 8 0 0
BITMAP
30
30
50
00
50
A0
A0
60
ENDCHAR
STARTCHAR uni0217.fina
ENCODING -1
SWIDTH 460 0
DWIDTH 4 0
BBX 4 7 0 0
BITMAP
70
50
00
50
A0
A0
60
ENDCHAR
STARTCHAR umacron.fina
ENCODING -1
SWIDTH 460 0
DWIDTH 4 0
BBX 4 5 0 0
BITMAP
70
50
A0
A0
60
ENDCHAR
STARTCHAR uogonek.fina
ENCODING -1
SWIDTH 460 0
DWIDTH 4 0
BBX 4 6 0 -2
BITMAP
50
A0
A0
60
20
30
ENDCHAR
STARTCHAR uring.fina
ENCODING -1
SWIDTH 460 0
DWIDTH 4 0
BBX 4 7 0 0
BITMAP
20
50
20
50
A0
A0
60
ENDCHAR
STARTCHAR utilde.fina
ENCODING -1
SWIDTH 460 0
DWIDTH 4 0
BBX 4 7 0 0
BITMAP
50
70
00
50
A0
A0
60
ENDCHAR
STARTCHAR v.fina
ENCODING -1
SWIDTH 420 0
DWIDTH 3 0
BBX 4 4 0 0
BITMAP
90
A0
A0
40
ENDCHAR
STARTCHAR w.fina
ENCODING -1
SWIDTH 666 0
DWIDTH 5 0
BBX 6 4 0 0
BITMAP
A4
A8
A8
50
ENDCHAR
STARTCHAR wacute.fina
ENCODING -1
SWIDTH 666 0
DWIDTH 5 0
BBX 6 8 0 0
BITMAP
08
10
10
00
A4
A8
A8
50
ENDCHAR
STARTCHAR wcircumflex.fina
ENCODING -1
SWIDTH 666 0
DWIDTH 5 0
BBX 6 8 0 0
BITMAP
10
30
30
00
A4
A8
A8
50
ENDCHAR
STARTCHAR wdieresis.fina
ENCODING -1
SWIDTH 666 0
DWIDTH 5 0
BBX 6 6 0 0
BITMAP
38
00
A4
A8
A8
50
ENDCHAR
STARTCHAR wgrave.fina
ENCODING -1
SWIDTH 666 0
DWIDTH 5 0
BBX 6 8 0 0
BITMAP
20
20
20
00
A4
A8
A8
50
ENDCHAR
STARTCHAR x.fina
ENCODING -1
SWIDTH 580 0
DWIDTH 5 0
BBX 5 4 0 0
BITMAP
70
20
A8
F0
ENDCHAR
STARTCHAR y.fina
ENCODING -1
SWIDTH 449 0
DWIDTH 4 0
BBX 4 8 0 -4
BITMAP
50
A0
A0
60
60
A0
C0
C0
ENDCHAR
STARTCHAR yacute.fina
ENCODING -1
SWIDTH 449 0
DWIDTH 4 0
BBX 4 12 0 -4
BITMAP
10
10
20
00
50
A0
A0
60
60
A0
C0
C0
ENDCHAR
STARTCHAR ycircumflex.fina
ENCODING -1
SWIDTH 449 0
DWIDTH 4 0
BBX 4 12 0 -4
BITMAP
20
50
50
00
50
A0
A0
60
60
A0
C0
C0
ENDCHAR
STARTCHAR ydieresis.fina
ENCODING -1
SWIDTH 449 0
DWIDTH 4 0
BBX 4 10 0 -4
BITMAP
50
00
50
A0
A0
60
60
A0
C0
C0
ENDCHAR
STARTCHAR uni1EF5.fina
ENCODING -1
SWIDTH 449 0
DWIDTH 4 0
BBX 4 8 0 -4
BITMAP
50
A0
A0
60
60
A0
C0
F0
ENDCHAR
STARTCHAR ygrave.fina
ENCODING -1
SWIDTH 449 0
DWIDTH 4 0
BBX 4 12 0 -4
BITMAP
40
40
20
00
50
A0
A0
60
60
A0
C0
C0
ENDCHAR
STARTCHAR uni1EF7.fina
ENCODING -1
SWIDTH 449 0
DWIDTH 4 0
BBX 4 11 0 -4
BITMAP
20
10
20
50
A0
A0
60
60
A0
C0
C0
ENDCHAR
STARTCHAR uni0233.fina
ENCODING -1
SWIDTH 449 0
DWIDTH 4 0
BBX 4 9 0 -4
BITMAP
70
50
A0
A0
60
60
A0
C0
C0
ENDCHAR
STARTCHAR uni1EF9.fina
ENCODING -1
SWIDTH 449 0
DWIDTH 4 0
BBX 4 11 0 -4
BITMAP
50
70
00
50
A0
A0
60
60
A0
C0
C0
ENDCHAR
STARTCHAR z.fina
ENCODING -1
SWIDTH 412 0
DWIDTH 3 0
BBX 3 4 0 0
BITMAP
E0
40
80
E0
ENDCHAR
STARTCHAR zacute.fina
ENCODING -1
SWIDTH 412 0
DWIDTH 3 0
BBX 4 8 0 0
BITMAP
10
20
20
00
E0
40
80
E0
ENDCHAR
STARTCHAR zcaron.fina
ENCODING -1
SWIDTH 412 0
DWIDTH 3 0
BBX 4 8 0 0
BITMAP
50
60
20
00
E0
40
80
E0
ENDCHAR
STARTCHAR zdotaccent.fina
ENCODING -1
SWIDTH 412 0
DWIDTH 3 0
BBX 3 6 0 0
BITMAP
20
00
E0
40
80
E0
ENDCHAR
STARTCHAR iacute_j.loclNLD
ENCODING -1
SWIDTH 479 0
DWIDTH 4 0
BBX 5 12 0 -4
BITMAP
28
38
50
00
50
A0
A8
70
60
A0
C0
C0
ENDCHAR
STARTCHAR b.ss01
ENCODING -1
SWIDTH 449 0
DWIDTH 4 0
BBX 5 8 0 0
BITMAP
20
50
60
60
E0
B8
60
60
ENDCHAR
STARTCHAR d.ss01
ENCODING -1
SWIDTH 470 0
DWIDTH 4 0
BBX 5 7 0 0
BITMAP
10
10
10
70
60
A8
D0
ENDCHAR
STARTCHAR f.ss01
ENCODING -1
SWIDTH 323 0
DWIDTH 3 0
BBX 5 12 -1 -4
BITMAP
10
28
30
30
30
50
78
40
40
C0
C0
C0
ENDCHAR
STARTCHAR l.ss01
ENCODING -1
SWIDTH 237 0
DWIDTH 2 0
BBX 3 7 0 0
BITMAP
40
40
40
40
80
A0
40
ENDCHAR
STARTCHAR lacute.ss01
ENCODING -1
SWIDTH 237 0
DWIDTH 2 0
BBX 4 10 0 0
BITMAP
10
20
00
40
40
40
40
80
A0
40
ENDCHAR
STARTCHAR uni013C.ss01
ENCODING -1
SWIDTH 237 0
DWIDTH 2 0
BBX 3 10 0 -3
BITMAP
40
40
40
40
80
A0
40
00
40
80
ENDCHAR
STARTCHAR uni01C9.ss01
ENCODING -1
SWIDTH 491 0
DWIDTH 4 0
BBX 5 11 0 -4
BITMAP
40
70
40
50
A0
A8
70
20
60
A0
C0
ENDCHAR
STARTCHAR lslash.ss01
ENCODING -1
SWIDTH 324 0
DWIDTH 3 0
BBX 4 8 0 0
BITMAP
60
40
60
40
C0
80
90
60
ENDCHAR
STARTCHAR eng.ss01
ENCODING -1
SWIDTH 508 0
DWIDTH 4 0
BBX 5 8 0 -4
BITMAP
70
D0
E8
B0
20
60
A0
C0
ENDCHAR
STARTCHAR o.ss01
ENCODING -1
SWIDTH 451 0
DWIDTH 4 0
BBX 4 4 0 0
BITMAP
70
B0
A0
60
ENDCHAR
STARTCHAR oacute.ss01
ENCODING -1
SWIDTH 451 0
DWIDTH 4 0
BBX 4 8 0 0
BITMAP
10
20
20
00
70
B0
A0
60
ENDCHAR
STARTCHAR obreve.ss01
ENCODING -1
SWIDTH 451 0
DWIDTH 4 0
BBX 4 6 0 0
BITMAP
50
60
70
B0
A0
60
ENDCHAR
STARTCHAR ocircumflex.ss01
ENCODING -1
SWIDTH 451 0
DWIDTH 4 0
BBX 4 8 0 0
BITMAP
20
60
60
00
70
B0
A0
60
ENDCHAR
STARTCHAR uni1ED1.ss01
ENCODING -1
SWIDTH 451 0
DWIDTH 4 0
BBX 5 8 0 0
BITMAP
08
30
60
00
70
A8
A0
60
ENDCHAR
STARTCHAR uni1ED9.ss01
ENCODING -1
SWIDTH 451 0
DWIDTH 4 0
BBX 4 10 0 -2
BITMAP
20
60
60
00
70
B0
A0
60
00
40
ENDCHAR
STARTCHAR uni1ED3.ss01
ENCODING -1
SWIDTH 451 0
DWIDTH 4 0
BBX 4 8 0 0
BITMAP
80
60
60
00
70
B0
A0
60
ENDCHAR
STARTCHAR uni1ED5.ss01
ENCODING -1
SWIDTH 451 0
DWIDTH 4 0
BBX 5 7 0 0
BITMAP
18
38
60
70
A8
A0
60
ENDCHAR
STARTCHAR uni1ED7.ss01
ENCODING -1
SWIDTH 451 0
DWIDTH 4 0
BBX 4 8 0 0
BITMAP
70
20
60
00
70
B0
A0
60
ENDCHAR
STARTCHAR uni020D.ss01
ENCODING -1
SWIDTH 451 0
DWIDTH 4 0
BBX 4 8 0 0
BITMAP
A0
A0
60
00
70
B0
A0
60
ENDCHAR
STARTCHAR odieresis.ss01
ENCODING -1
SWIDTH 451 0
DWIDTH 4 0
BBX 4 6 0 0
BITMAP
70
00
70
B0
A0
60
ENDCHAR
STARTCHAR uni022B.ss01
ENCODING -1
SWIDTH 451 0
DWIDTH 4 0
BBX 4 7 0 0
BITMAP
70
70
00
70
B0
A0
60
ENDCHAR
STARTCHAR uni0231.ss01
ENCODING -1
SWIDTH 451 0
DWIDTH 4 0
BBX 4 7 0 0
BITMAP
70
60
00
70
B0
A0
60
ENDCHAR
STARTCHAR uni1ECD.ss01
ENCODING -1
SWIDTH 451 0
DWIDTH 4 0
BBX 4 6 0 -2
BITMAP
70
B0
A0
60
00
40
ENDCHAR
STARTCHAR ograve.ss01
ENCODING -1
SWIDTH 451 0
DWIDTH 4 0
BBX 4 8 0 0
BITMAP
40
40
40
00
70
B0
A0
60
ENDCHAR
STARTCHAR uni1ECF.ss01
ENCODING -1
SWIDTH 451 0
DWIDTH 4 0
BBX 4 7 0 0
BITMAP
60
20
20
70
B0
A0
60
ENDCHAR
STARTCHAR ohorn.ss01
ENCODING -1
SWIDTH 451 0
DWIDTH 4 0
BBX 4 5 0 0
BITMAP
10
70
B0
A0
60
ENDCHAR
STARTCHAR uni1EDB.ss01
ENCODING -1
SWIDTH 451 0
DWIDTH 4 0
BBX 4 8 0 0
BITMAP
20
20
20
10
70
B0
A0
60
ENDCHAR
STARTCHAR uni1EE3.ss01
ENCODING -1
SWIDTH 451 0
DWIDTH 4 0
BBX 4 7 0 -2
BITMAP
10
70
B0
A0
60
00
40
ENDCHAR
STARTCHAR uni1EDD.ss01
ENCODING -1
SWIDTH 451 0
DWIDTH 4 0
BBX 4 8 0 0
BITMAP
40
C0
40
10
70
B0
A0
60
ENDCHAR
STARTCHAR uni1EDF.ss01
ENCODING -1
SWIDTH 451 0
DWIDTH 4 0
BBX 4 7 0 0
BITMAP
60
20
30
70
B0
A0
60
ENDCHAR
STARTCHAR uni1EE1.ss01
ENCODING -1
SWIDTH 451 0
DWIDTH 4 0
BBX 4 7 0 0
BITMAP
50
70
90
70
B0
A0
60
ENDCHAR
STARTCHAR ohungarumlaut.ss01
ENCODING -1
SWIDTH 451 0
DWIDTH 4 0
BBX 4 8 0 0
BITMAP
30
50
60
00
70
B0
A0
60
ENDCHAR
STARTCHAR uni020F.ss01
ENCODING -1
SWIDTH 451 0
DWIDTH 4 0
BBX 4 7 0 0
BITMAP
60
90
00
70
B0
A0
60
ENDCHAR
STARTCHAR omacron.ss01
ENCODING -1
SWIDTH 451 0
DWIDTH 4 0
BBX 4 5 0 0
BITMAP
60
70
B0
A0
60
ENDCHAR
STARTCHAR uni01EB.ss01
ENCODING -1
SWIDTH 451 0
DWIDTH 4 0
BBX 4 6 0 -2
BITMAP
70
B0
A0
60
40
60
ENDCHAR
STARTCHAR oslash.ss01
ENCODING -1
SWIDTH 451 0
DWIDTH 4 0
BBX 4 6 0 -1
BITMAP
20
70
B0
A0
60
40
ENDCHAR
STARTCHAR oslashacute.ss01
ENCODING -1
SWIDTH 451 0
DWIDTH 4 0
BBX 4 9 0 -1
BITMAP
20
20
40
20
70
B0
A0
60
40
ENDCHAR
STARTCHAR otilde.ss01
ENCODING -1
SWIDTH 451 0
DWIDTH 4 0
BBX 4 7 0 0
BITMAP
50
B0
00
70
B0
A0
60
ENDCHAR
STARTCHAR uni022D.ss01
ENCODING -1
SWIDTH 451 0
DWIDTH 4 0
BBX 4 7 0 0
BITMAP
70
B0
00
70
B0
A0
60
ENDCHAR
STARTCHAR p.ss01
ENCODING -1
SWIDTH 500 0
DWIDTH 4 0
BBX 6 8 -1 -4
BITMAP
38
28
34
78
40
C0
C0
C0
ENDCHAR
STARTCHAR t.ss01
ENCODING -1
SWIDTH 343 0
DWIDTH 3 0
BBX 4 7 0 0
BITMAP
40
40
40
E0
40
50
60
ENDCHAR
STARTCHAR uni0163.ss01
ENCODING -1
SWIDTH 343 0
DWIDTH 3 0
BBX 4 9 0 -2
BITMAP
40
40
40
E0
40
50
60
20
C0
ENDCHAR
STARTCHAR uni021B.ss01
ENCODING -1
SWIDTH 343 0
DWIDTH 3 0
BBX 4 10 0 -3
BITMAP
40
40
40
E0
40
50
60
00
40
40
ENDCHAR
STARTCHAR z.ss01
ENCODING -1
SWIDTH 432 0
DWIDTH 3 0
BBX 4 8 0 -3
BITMAP
90
60
40
D0
60
A0
C0
80
ENDCHAR
STARTCHAR zacute.ss01
ENCODING -1
SWIDTH 432 0
DWIDTH 3 0
BBX 4 11 0 -3
BITMAP
10
20
20
90
60
40
D0
60
A0
C0
80
ENDCHAR
STARTCHAR zcaron.ss01
ENCODING -1
SWIDTH 432 0
DWIDTH 3 0
BBX 4 11 0 -3
BITMAP
50
60
60
90
60
40
D0
60
A0
C0
80
ENDCHAR
STARTCHAR zdotaccent.ss01
ENCODING -1
SWIDTH 432 0
DWIDTH 3 0
BBX 4 9 0 -3
BITMAP
60
90
60
40
D0
60
A0
C0
80
ENDCHAR
STARTCHAR f_f
ENCODING -1
SWIDTH 684 0
DWIDTH 5 0
BBX 6 11 0 -3
BITMAP
24
5C
5C
74
78
78
BC
B8
B8
58
58
ENDCHAR
STARTCHAR f_j
ENCODING -1
SWIDTH 633 0
DWIDTH 5 0
BBX 6 11 0 -3
BITMAP
30
30
58
60
F8
48
6C
78
70
50
10
ENDCHAR
STARTCHAR lslash_lslash
ENCODING -1
SWIDTH 654 0
DWIDTH 5 0
BBX 7 9 0 0
BITMAP
3E
40
2C
5C
74
B4
D8
94
6C
ENDCHAR
STARTCHAR t_t
ENCODING -1
SWIDTH 706 0
DWIDTH 6 0
BBX 7 8 0 0
BITMAP
24
5C
6C
74
FC
50
52
6C
ENDCHAR
STARTCHAR f_j.fina
ENCODING -1
SWIDTH 624 0
DWIDTH 5 0
BBX 5 11 0 -3
BITMAP
30
30
58
60
F8
48
68
70
70
50
10
ENDCHAR
STARTCHAR fi.fina
ENCODING -1
SWIDTH 603 0
DWIDTH 5 0
BBX 5 11 0 -3
BITMAP
30
30
58
60
F8
68
70
70
60
60
40
ENDCHAR
STARTCHAR fl.fina
ENCODING -1
SWIDTH 730 0
DWIDTH 6 0
BBX 6 11 0 -3
BITMAP
34
5C
5C
6C
74
58
B0
AC
A0
40
40
ENDCHAR
STARTCHAR f_ij.loclNLD.fina
ENCODING -1
SWIDTH 837 0
DWIDTH 7 0
BBX 7 12 0 -4
BITMAP
30
30
5A
60
FA
4C
74
6C
64
6C
58
18
ENDCHAR
STARTCHAR i_j.loclNLD.fina
ENCODING -1
SWIDTH 451 0
DWIDTH 4 0
BBX 4 10 0 -4
BITMAP
50
00
50
A0
A0
60
60
A0
C0
C0
ENDCHAR
STARTCHAR t_t.ss01.fina
ENCODING -1
SWIDTH 666 0
DWIDTH 5 0
BBX 6 7 0 0
BITMAP
48
58
50
FC
50
50
78
ENDCHAR
STARTCHAR I_J.loclNLD
ENCODING -1
SWIDTH 776 0
DWIDTH 6 0
BBX 5 7 1 0
BITMAP
88
88
98
98
F8
10
E0
ENDCHAR
STARTCHAR f_ij.loclNLD
ENCODING -1
SWIDTH 865 0
DWIDTH 7 0
BBX 8 12 0 -4
BITMAP
30
30
5A
60
FA
4C
75
6E
64
6C
54
18
ENDCHAR
STARTCHAR i_j.loclNLD
ENCODING -1
SWIDTH 479 0
DWIDTH 4 0
BBX 5 10 0 -4
BITMAP
50
00
50
A0
A8
70
60
A0
C0
C0
ENDCHAR
STARTCHAR t_t.ss01
ENCODING -1
SWIDTH 632 0
DWIDTH 5 0
BBX 6 7 0 0
BITMAP
48
58
50
FC
50
54
78
ENDCHAR
STARTCHAR uni0410.ss01
ENCODING -1
SWIDTH 780 0
DWIDTH 6 0
BBX 7 7 0 0
BITMAP
1E
24
44
4C
C8
48
78
ENDCHAR
STARTCHAR uni0411.ss01
ENCODING -1
SWIDTH 881 0
DWIDTH 7 0
BBX 6 7 1 0
BITMAP
7C
20
40
78
C4
44
78
ENDCHAR
STARTCHAR uni0412.ss01
ENCODING -1
SWIDTH 826 0
DWIDTH 7 0
BBX 5 7 1 0
BITMAP
F8
08
C8
B0
88
98
F0
ENDCHAR
STARTCHAR uni0413.ss01
ENCODING -1
SWIDTH 634 0
DWIDTH 5 0
BBX 5 7 2 0
BITMAP
F8
C0
80
80
80
80
80
ENDCHAR
STARTCHAR uni0403.ss01
ENCODING -1
SWIDTH 634 0
DWIDTH 5 0
BBX 5 10 2 0
BITMAP
10
20
00
F8
C0
80
80
80
80
80
ENDCHAR
STARTCHAR uni0490.ss01
ENCODING -1
SWIDTH 639 0
DWIDTH 5 0
BBX 5 9 2 0
BITMAP
08
08
F8
40
80
80
80
80
80
ENDCHAR
STARTCHAR uni0414.ss01
ENCODING -1
SWIDTH 836 0
DWIDTH 7 0
BBX 7 7 0 0
BITMAP
78
84
26
46
44
4C
78
ENDCHAR
STARTCHAR uni0415.ss01
ENCODING -1
SWIDTH 720 0
DWIDTH 6 0
BBX 6 7 0 0
BITMAP
38
44
44
30
40
C4
78
ENDCHAR
STARTCHAR uni0400.ss01
ENCODING -1
SWIDTH 720 0
DWIDTH 6 0
BBX 6 10 0 0
BITMAP
20
10
00
38
44
44
30
40
C4
78
ENDCHAR
STARTCHAR uni0401.ss01
ENCODING -1
SWIDTH 720 0
DWIDTH 6 0
BBX 6 9 0 0
BITMAP
38
00
38
44
44
30
40
C4
78
ENDCHAR
STARTCHAR uni0416.ss01
ENCODING -1
SWIDTH 1196 0
DWIDTH 10 0
BBX 10 7 0 0
BITMAP
64C0
3500
1700
1C00
2A00
2900
C980
ENDCHAR
STARTCHAR uni0417.ss01
ENCODING -1
SWIDTH 725 0
DWIDTH 6 0
BBX 6 7 0 0
BITMAP
38
48
08
38
4C
C8
70
ENDCHAR
STARTCHAR uni0418.ss01
ENCODING -1
SWIDTH 800 0
DWIDTH 6 0
BBX 5 7 1 0
BITMAP
C8
88
88
98
98
B0
D0
ENDCHAR
STARTCHAR uni0419.ss01
ENCODING -1
SWIDTH 800 0
DWIDTH 6 0
BBX 5 9 1 0
BITMAP
28
30
C8
88
88
98
98
B0
D0
ENDCHAR
STARTCHAR uni040D.ss01
ENCODING -1
SWIDTH 800 0
DWIDTH 6 0
BBX 5 10 1 0
BITMAP
40
20
00
C8
88
88
98
98
B0
D0
ENDCHAR
STARTCHAR uni048A.ss01
ENCODING -1
SWIDTH 815 0
DWIDTH 7 0
BBX 5 9 1 -2
BITMAP
C8
88
88
98
98
B0
D8
18
10
ENDCHAR
STARTCHAR uni041A.ss01
ENCODING -1
SWIDTH 779 0
DWIDTH 6 0
BBX 5 7 1 0
BITMAP
48
C8
90
E0
A0
B0
98
ENDCHAR
STARTCHAR uni040C.ss01
ENCODING -1
SWIDTH 779 0
DWIDTH 6 0
BBX 5 10 1 0
BITMAP
08
10
00
48
C8
90
E0
A0
B0
98
ENDCHAR
STARTCHAR uni041B.ss01
ENCODING -1
SWIDTH 706 0
DWIDTH 6 0
BBX 5 7 0 0
BITMAP
10
10
30
30
30
58
C8
ENDCHAR
STARTCHAR uni041C.ss01
ENCODING -1
SWIDTH 967 0
DWIDTH 8 0
BBX 8 7 0 0
BITMAP
32
36
36
3A
5A
5A
D3
ENDCHAR
STARTCHAR uni041D.ss01
ENCODING -1
SWIDTH 846 0
DWIDTH 7 0
BBX 7 7 0 0
BITMAP
24
64
44
FE
44
4C
4C
ENDCHAR
STARTCHAR uni041E.ss01
ENCODING -1
SWIDTH 816 0
DWIDTH 7 0
BBX 5 7 1 0
BITMAP
70
88
88
88
88
98
70
ENDCHAR
STARTCHAR uni041F.ss01
ENCODING -1
SWIDTH 847 0
DWIDTH 7 0
BBX 6 7 1 0
BITMAP
FC
C8
88
88
88
98
90
ENDCHAR
STARTCHAR uni0420.ss01
ENCODING -1
SWIDTH 662 0
DWIDTH 5 0
BBX 5 7 0 0
BITMAP
78
28
68
48
F0
40
40
ENDCHAR
STARTCHAR uni0421.ss01
ENCODING -1
SWIDTH 704 0
DWIDTH 6 0
BBX 5 7 1 0
BITMAP
70
C8
90
80
80
88
70
ENDCHAR
STARTCHAR uni0422.ss01
ENCODING -1
SWIDTH 631 0
DWIDTH 5 0
BBX 5 7 1 0
BITMAP
F8
60
40
40
40
40
40
ENDCHAR
STARTCHAR uni0423.ss01
ENCODING -1
SWIDTH 776 0
DWIDTH 6 0
BBX 5 7 1 0
BITMAP
88
88
98
98
F8
10
E0
ENDCHAR
STARTCHAR uni040E.ss01
ENCODING -1
SWIDTH 776 0
DWIDTH 6 0
BBX 5 9 1 0
BITMAP
48
30
88
88
98
98
F8
10
E0
ENDCHAR
STARTCHAR uni0424.ss01
ENCODING -1
SWIDTH 978 0
DWIDTH 8 0
BBX 8 8 0 -1
BITMAP
08
3E
49
49
D3
52
7E
10
ENDCHAR
STARTCHAR uni0425.ss01
ENCODING -1
SWIDTH 677 0
DWIDTH 5 0
BBX 6 7 0 0
BITMAP
44
28
30
30
70
58
88
ENDCHAR
STARTCHAR uni0427.ss01
ENCODING -1
SWIDTH 773 0
DWIDTH 6 0
BBX 5 7 1 0
BITMAP
88
88
98
98
F0
10
10
ENDCHAR
STARTCHAR uni0426.ss01
ENCODING -1
SWIDTH 822 0
DWIDTH 7 0
BBX 5 10 1 -3
BITMAP
C8
88
88
98
98
B8
C8
18
28
30
ENDCHAR
STARTCHAR uni0428.ss01
ENCODING -1
SWIDTH 1174 0
DWIDTH 9 0
BBX 8 7 1 0
BITMAP
C9
89
99
93
93
B6
DA
ENDCHAR
STARTCHAR uni0429.ss01
ENCODING -1
SWIDTH 1194 0
DWIDTH 10 0
BBX 8 10 1 -3
BITMAP
C9
89
99
93
93
B7
DB
03
05
06
ENDCHAR
STARTCHAR uni040F.ss01
ENCODING -1
SWIDTH 800 0
DWIDTH 6 0
BBX 5 8 1 -1
BITMAP
C8
88
88
98
98
B0
D0
40
ENDCHAR
STARTCHAR uni042C.ss01
ENCODING -1
SWIDTH 721 0
DWIDTH 6 0
BBX 6 7 0 0
BITMAP
20
40
78
CC
4C
48
70
ENDCHAR
STARTCHAR uni042A.ss01
ENCODING -1
SWIDTH 863 0
DWIDTH 7 0
BBX 6 7 1 0
BITMAP
E0
20
78
C4
44
48
38
ENDCHAR
STARTCHAR uni042B.ss01
ENCODING -1
SWIDTH 1078 0
DWIDTH 9 0
BBX 8 7 0 0
BITMAP
21
41
79
CD
4D
4B
73
ENDCHAR
STARTCHAR uni0409.ss01
ENCODING -1
SWIDTH 998 0
DWIDTH 8 0
BBX 8 7 0 0
BITMAP
10
10
30
3E
31
59
CE
ENDCHAR
STARTCHAR uni040A.ss01
ENCODING -1
SWIDTH 1102 0
DWIDTH 9 0
BBX 9 7 0 0
BITMAP
2400
6800
4F00
F980
4880
4900
4700
ENDCHAR
STARTCHAR uni0405.ss01
ENCODING -1
SWIDTH 693 0
DWIDTH 6 0
BBX 6 7 0 0
BITMAP
38
4C
48
30
88
88
78
ENDCHAR
STARTCHAR uni0404.ss01
ENCODING -1
SWIDTH 704 0
DWIDTH 6 0
BBX 5 7 1 0
BITMAP
70
88
90
E0
80
88
70
ENDCHAR
STARTCHAR uni042D.ss01
ENCODING -1
SWIDTH 755 0
DWIDTH 6 0
BBX 6 7 0 0
BITMAP
78
4C
04
3C
04
88
70
ENDCHAR
STARTCHAR uni0406.ss01
ENCODING -1
SWIDTH 357 0
DWIDTH 3 0
BBX 2 7 1 0
BITMAP
C0
80
80
80
80
80
80
ENDCHAR
STARTCHAR uni0407.ss01
ENCODING -1
SWIDTH 357 0
DWIDTH 3 0
BBX 3 9 1 0
BITMAP
E0
00
C0
80
80
80
80
80
80
ENDCHAR
STARTCHAR uni0408.ss01
ENCODING -1
SWIDTH 716 0
DWIDTH 6 0
BBX 5 7 1 0
BITMAP
F8
90
90
10
10
A0
E0
ENDCHAR
STARTCHAR uni040B.ss01
ENCODING -1
SWIDTH 884 0
DWIDTH 7 0
BBX 6 7 1 0
BITMAP
F8
60
40
58
6C
4C
4C
ENDCHAR
STARTCHAR uni042E.ss01
ENCODING -1
SWIDTH 1166 0
DWIDTH 9 0
BBX 9 7 0 0
BITMAP
2700
6880
4880
F880
5880
4900
4F00
ENDCHAR
STARTCHAR uni042F.ss01
ENCODING -1
SWIDTH 827 0
DWIDTH 7 0
BBX 5 7 1 0
BITMAP
78
48
C8
78
18
28
C8
ENDCHAR
STARTCHAR uni0402.ss01
ENCODING -1
SWIDTH 843 0
DWIDTH 7 0
BBX 6 11 1 -4
BITMAP
F8
60
40
58
6C
4C
48
18
38
28
30
ENDCHAR
STARTCHAR uni0462.ss01
ENCODING -1
SWIDTH 721 0
DWIDTH 6 0
BBX 6 7 0 0
BITMAP
20
F0
78
CC
4C
48
70
ENDCHAR
STARTCHAR uni046A.ss01
ENCODING -1
SWIDTH 1196 0
DWIDTH 10 0
BBX 10 7 0 0
BITMAP
7FC0
1100
1300
1C00
2A00
2B00
C980
ENDCHAR
STARTCHAR uni0472.ss01
ENCODING -1
SWIDTH 816 0
DWIDTH 7 0
BBX 5 7 1 0
BITMAP
70
C8
88
F8
88
98
70
ENDCHAR
STARTCHAR uni0474.ss01
ENCODING -1
SWIDTH 797 0
DWIDTH 6 0
BBX 7 7 1 0
BITMAP
8E
88
88
88
90
90
60
ENDCHAR
STARTCHAR uni0492.ss01
ENCODING -1
SWIDTH 634 0
DWIDTH 5 0
BBX 6 7 1 0
BITMAP
7C
60
40
E0
40
40
40
ENDCHAR
STARTCHAR uni0494.ss01
ENCODING -1
SWIDTH 889 0
DWIDTH 7 0
BBX 5 11 2 -4
BITMAP
F8
C0
80
B0
D8
98
90
30
70
50
60
ENDCHAR
STARTCHAR uni0496.ss01
ENCODING -1
SWIDTH 1186 0
DWIDTH 9 0
BBX 10 10 0 -3
BITMAP
64C0
3500
1700
1C00
2A00
2900
C980
0180
0280
0300
ENDCHAR
STARTCHAR uni0498.ss01
ENCODING -1
SWIDTH 725 0
DWIDTH 6 0
BBX 6 10 0 -3
BITMAP
38
48
08
38
4C
C8
78
30
50
60
ENDCHAR
STARTCHAR uni049A.ss01
ENCODING -1
SWIDTH 779 0
DWIDTH 6 0
BBX 5 10 1 -3
BITMAP
48
C8
90
E0
A0
B0
98
38
30
30
ENDCHAR
STARTCHAR uni049C.ss01
ENCODING -1
SWIDTH 779 0
DWIDTH 6 0
BBX 5 7 1 0
BITMAP
48
C8
B0
E0
E0
F0
98
ENDCHAR
STARTCHAR uni049E.ss01
ENCODING -1
SWIDTH 779 0
DWIDTH 6 0
BBX 5 7 1 0
BITMAP
C8
E8
90
E0
A0
B0
98
ENDCHAR
STARTCHAR uni04A0.ss01
ENCODING -1
SWIDTH 964 0
DWIDTH 8 0
BBX 7 7 1 0
BITMAP
E6
24
2C
70
68
48
46
ENDCHAR
STARTCHAR uni04A2.ss01
ENCODING -1
SWIDTH 846 0
DWIDTH 7 0
BBX 7 10 0 -3
BITMAP
24
64
44
FE
44
4C
46
0C
1C
0C
ENDCHAR
STARTCHAR uni04A4.ss01
ENCODING -1
SWIDTH 1026 0
DWIDTH 8 0
BBX 9 7 0 0
BITMAP
2780
6400
4400
FE00
4400
4C00
4C00
ENDCHAR
STARTCHAR uni0524.ss01
ENCODING -1
SWIDTH 892 0
DWIDTH 7 0
BBX 6 10 1 -3
BITMAP
FC
C8
88
88
98
98
88
18
28
10
ENDCHAR
STARTCHAR uni04A8.ss01
ENCODING -1
SWIDTH 997 0
DWIDTH 8 0
BBX 8 7 1 0
BITMAP
6C
D2
B2
A2
B2
95
7E
ENDCHAR
STARTCHAR uni04AA.ss01
ENCODING -1
SWIDTH 704 0
DWIDTH 6 0
BBX 5 11 1 -4
BITMAP
70
C8
90
80
80
88
70
10
30
50
20
ENDCHAR
STARTCHAR uni04AC.ss01
ENCODING -1
SWIDTH 697 0
DWIDTH 6 0
BBX 6 10 1 -3
BITMAP
FC
20
20
20
20
20
60
60
A0
C0
ENDCHAR
STARTCHAR uni04AE.ss01
ENCODING -1
SWIDTH 677 0
DWIDTH 5 0
BBX 5 7 1 0
BITMAP
88
D0
70
60
20
20
60
ENDCHAR
STARTCHAR uni04B0.ss01
ENCODING -1
SWIDTH 677 0
DWIDTH 5 0
BBX 5 7 1 0
BITMAP
88
D0
70
60
70
20
60
ENDCHAR
STARTCHAR uni04B2.ss01
ENCODING -1
SWIDTH 677 0
DWIDTH 5 0
BBX 6 10 0 -3
BITMAP
44
28
30
30
70
D8
8C
18
18
18
ENDCHAR
STARTCHAR uni04B4.ss01
ENCODING -1
SWIDTH 965 0
DWIDTH 8 0
BBX 6 10 1 -3
BITMAP
F4
64
44
44
4C
54
74
04
0C
1C
ENDCHAR
STARTCHAR uni04B6.ss01
ENCODING -1
SWIDTH 804 0
DWIDTH 6 0
BBX 5 10 1 -3
BITMAP
88
88
98
98
F0
10
18
18
28
30
ENDCHAR
STARTCHAR uni04B8.ss01
ENCODING -1
SWIDTH 773 0
DWIDTH 6 0
BBX 5 7 1 0
BITMAP
88
88
B8
B8
F0
50
10
ENDCHAR
STARTCHAR uni04BA.ss01
ENCODING -1
SWIDTH 744 0
DWIDTH 6 0
BBX 5 7 1 0
BITMAP
C0
80
80
B0
D8
90
90
ENDCHAR
STARTCHAR uni0526.ss01
ENCODING -1
SWIDTH 818 0
DWIDTH 7 0
BBX 5 10 1 -3
BITMAP
40
C0
80
B0
D8
90
98
18
28
30
ENDCHAR
STARTCHAR uni0528.ss01
ENCODING -1
SWIDTH 846 0
DWIDTH 7 0
BBX 8 10 -1 -3
BITMAP
12
32
22
7F
22
26
26
20
C0
C0
ENDCHAR
STARTCHAR uni052E.ss01
ENCODING -1
SWIDTH 706 0
DWIDTH 6 0
BBX 6 10 0 -3
BITMAP
10
10
30
30
30
50
CC
18
18
18
ENDCHAR
STARTCHAR uni04BC.ss01
ENCODING -1
SWIDTH 824 0
DWIDTH 7 0
BBX 7 7 0 0
BITMAP
1C
26
A6
7C
20
20
1E
ENDCHAR
STARTCHAR uni04BE.ss01
ENCODING -1
SWIDTH 824 0
DWIDTH 7 0
BBX 7 9 0 -2
BITMAP
1C
26
A6
7C
20
20
1E
10
18
ENDCHAR
STARTCHAR uni04C0.ss01
ENCODING -1
SWIDTH 357 0
DWIDTH 3 0
BBX 2 7 1 0
BITMAP
C0
80
80
80
80
80
80
ENDCHAR
STARTCHAR uni04C1.ss01
ENCODING -1
SWIDTH 1196 0
DWIDTH 10 0
BBX 10 9 0 0
BITMAP
0A00
0E00
64C0
3500
1700
1C00
2A00
2900
C980
ENDCHAR
STARTCHAR uni04C3.ss01
ENCODING -1
SWIDTH 779 0
DWIDTH 6 0
BBX 5 10 1 -3
BITMAP
48
C8
90
E0
A0
B0
98
38
30
30
ENDCHAR
STARTCHAR uni04C5.ss01
ENCODING -1
SWIDTH 706 0
DWIDTH 6 0
BBX 6 9 0 -2
BITMAP
10
10
30
30
30
58
CC
08
10
ENDCHAR
STARTCHAR uni04C7.ss01
ENCODING -1
SWIDTH 846 0
DWIDTH 7 0
BBX 7 10 0 -3
BITMAP
24
64
44
FE
44
4C
46
0C
1C
0C
ENDCHAR
STARTCHAR uni04C9.ss01
ENCODING -1
SWIDTH 873 0
DWIDTH 7 0
BBX 7 9 0 -2
BITMAP
24
64
44
FE
44
4C
4E
04
08
ENDCHAR
STARTCHAR uni04CB.ss01
ENCODING -1
SWIDTH 773 0
DWIDTH 6 0
BBX 5 10 1 -3
BITMAP
88
88
98
98
F0
10
10
60
E0
60
ENDCHAR
STARTCHAR uni04CD.ss01
ENCODING -1
SWIDTH 967 0
DWIDTH 8 0
BBX 8 9 0 -2
BITMAP
32
36
36
3A
5A
5A
D3
02
04
ENDCHAR
STARTCHAR uni04D0.ss01
ENCODING -1
SWIDTH 780 0
DWIDTH 6 0
BBX 7 9 0 0
BITMAP
12
0C
1E
24
44
4C
C8
48
78
ENDCHAR
STARTCHAR uni04D2.ss01
ENCODING -1
SWIDTH 780 0
DWIDTH 6 0
BBX 7 9 0 0
BITMAP
1C
00
1E
24
44
4C
C8
48
78
ENDCHAR
STARTCHAR uni04D4.ss01
ENCODING -1
SWIDTH 1057 0
DWIDTH 8 0
BBX 9 7 0 0
BITMAP
1F80
6400
4400
4F00
C800
4C00
7700
ENDCHAR
STARTCHAR uni04D6.ss01
ENCODING -1
SWIDTH 720 0
DWIDTH 6 0
BBX 6 9 0 0
BITMAP
24
18
38
44
44
30
40
C4
78
ENDCHAR
STARTCHAR uni04D8.ss01
ENCODING -1
SWIDTH 792 0
DWIDTH 6 0
BBX 6 7 0 0
BITMAP
38
44
04
7C
C4
4C
78
ENDCHAR
STARTCHAR uni04DA.ss01
ENCODING -1
SWIDTH 792 0
DWIDTH 6 0
BBX 6 9 0 0
BITMAP
38
00
38
44
04
7C
C4
4C
78
ENDCHAR
STARTCHAR uni04DC.ss01
ENCODING -1
SWIDTH 1196 0
DWIDTH 10 0
BBX 10 9 0 0
BITMAP
0A00
0000
64C0
3500
1700
1C00
2A00
2900
C980
ENDCHAR
STARTCHAR uni04DE.ss01
ENCODING -1
SWIDTH 725 0
DWIDTH 6 0
BBX 6 9 0 0
BITMAP
28
00
38
48
08
38
4C
C8
70
ENDCHAR
STARTCHAR uni04E0.ss01
ENCODING -1
SWIDTH 744 0
DWIDTH 6 0
BBX 6 7 0 0
BITMAP
3C
4C
08
38
4C
C8
70
ENDCHAR
STARTCHAR uni04E2.ss01
ENCODING -1
SWIDTH 800 0
DWIDTH 6 0
BBX 5 8 1 0
BITMAP
30
C8
88
88
98
98
B0
D0
ENDCHAR
STARTCHAR uni04E4.ss01
ENCODING -1
SWIDTH 800 0
DWIDTH 6 0
BBX 5 9 1 0
BITMAP
30
00
C8
88
88
98
98
B0
D0
ENDCHAR
STARTCHAR uni04E6.ss01
ENCODING -1
SWIDTH 816 0
DWIDTH 7 0
BBX 5 9 1 0
BITMAP
30
00
70
88
88
88
88
98
70
ENDCHAR
STARTCHAR uni04E8.ss01
ENCODING -1
SWIDTH 816 0
DWIDTH 7 0
BBX 5 7 1 0
BITMAP
70
88
88
F8
88
98
70
ENDCHAR
STARTCHAR uni04EA.ss01
ENCODING -1
SWIDTH 816 0
DWIDTH 7 0
BBX 5 9 1 0
BITMAP
30
00
70
88
88
F8
88
98
70
ENDCHAR
STARTCHAR uni04EC.ss01
ENCODING -1
SWIDTH 755 0
DWIDTH 6 0
BBX 6 9 0 0
BITMAP
28
00
78
4C
04
3C
04
88
70
ENDCHAR
STARTCHAR uni04EE.ss01
ENCODING -1
SWIDTH 776 0
DWIDTH 6 0
BBX 5 8 1 0
BITMAP
70
88
88
98
98
F8
10
E0
ENDCHAR
STARTCHAR uni04F0.ss01
ENCODING -1
SWIDTH 776 0
DWIDTH 6 0
BBX 5 9 1 0
BITMAP
70
00
88
88
98
98
F8
10
E0
ENDCHAR
STARTCHAR uni04F2.ss01
ENCODING -1
SWIDTH 776 0
DWIDTH 6 0
BBX 5 10 1 0
BITMAP
30
30
00
88
88
98
98
F8
10
E0
ENDCHAR
STARTCHAR uni04F4.ss01
ENCODING -1
SWIDTH 773 0
DWIDTH 6 0
BBX 5 9 1 0
BITMAP
50
00
88
88
98
98
F0
10
10
ENDCHAR
STARTCHAR uni04F6.ss01
ENCODING -1
SWIDTH 600 0
DWIDTH 5 0
BBX 6 10 1 -3
BITMAP
7C
60
40
40
40
40
60
C0
C0
C0
ENDCHAR
STARTCHAR uni04F8.ss01
ENCODING -1
SWIDTH 1078 0
DWIDTH 9 0
BBX 8 9 0 0
BITMAP
0E
00
21
41
79
CD
4D
4B
73
ENDCHAR
STARTCHAR uni04FA.ss01
ENCODING -1
SWIDTH 634 0
DWIDTH 5 0
BBX 8 10 -1 -3
BITMAP
1F
18
10
38
10
10
10
30
E0
60
ENDCHAR
STARTCHAR uni04FC.ss01
ENCODING -1
SWIDTH 846 0
DWIDTH 7 0
BBX 7 10 0 -3
BITMAP
24
64
44
FE
44
4C
46
0C
1C
0C
ENDCHAR
STARTCHAR uni04FE.ss01
ENCODING -1
SWIDTH 677 0
DWIDTH 5 0
BBX 6 7 0 0
BITMAP
44
68
30
78
70
58
88
ENDCHAR
STARTCHAR uni0510.ss01
ENCODING -1
SWIDTH 706 0
DWIDTH 6 0
BBX 5 7 0 0
BITMAP
38
48
40
70
C8
C8
78
ENDCHAR
STARTCHAR uni0512.ss01
ENCODING -1
SWIDTH 706 0
DWIDTH 6 0
BBX 6 10 0 -3
BITMAP
10
10
30
30
30
50
CC
18
18
18
ENDCHAR
STARTCHAR uni051A.ss01
ENCODING -1
SWIDTH 816 0
DWIDTH 7 0
BBX 5 9 1 -2
BITMAP
70
88
88
88
88
98
F0
20
10
ENDCHAR
STARTCHAR uni051C.ss01
ENCODING -1
SWIDTH 1236 0
DWIDTH 10 0
BBX 9 7 1 0
BITMAP
8880
8880
8980
9900
9900
AA00
6E00
ENDCHAR
STARTCHAR uni048C.ss01
ENCODING -1
SWIDTH 721 0
DWIDTH 6 0
BBX 6 7 0 0
BITMAP
20
F0
78
CC
4C
48
70
ENDCHAR
STARTCHAR uni048E.ss01
ENCODING -1
SWIDTH 662 0
DWIDTH 5 0
BBX 6 7 0 0
BITMAP
78
28
78
4C
F0
40
40
ENDCHAR
STARTCHAR uni0430.fina
ENCODING -1
SWIDTH 458 0
DWIDTH 4 0
BBX 3 4 0 0
BITMAP
60
60
A0
E0
ENDCHAR
STARTCHAR uni0431.fina
ENCODING -1
SWIDTH 473 0
DWIDTH 4 0
BBX 4 8 0 0
BITMAP
30
40
40
20
70
90
A0
60
ENDCHAR
STARTCHAR uni0432.fina
ENCODING -1
SWIDTH 475 0
DWIDTH 4 0
BBX 4 8 0 0
BITMAP
20
50
60
60
E0
D0
90
60
ENDCHAR
STARTCHAR uni0433.fina
ENCODING -1
SWIDTH 382 0
DWIDTH 3 0
BBX 3 4 0 0
BITMAP
E0
20
E0
E0
ENDCHAR
STARTCHAR uni0453.fina
ENCODING -1
SWIDTH 382 0
DWIDTH 3 0
BBX 3 8 0 0
BITMAP
20
20
40
00
E0
20
E0
E0
ENDCHAR
STARTCHAR uni0491.fina
ENCODING -1
SWIDTH 394 0
DWIDTH 3 0
BBX 3 6 0 0
BITMAP
20
20
60
80
80
80
ENDCHAR
STARTCHAR uni0434.fina
ENCODING -1
SWIDTH 449 0
DWIDTH 4 0
BBX 3 8 0 -4
BITMAP
60
60
A0
E0
60
A0
C0
C0
ENDCHAR
STARTCHAR uni0435.fina
ENCODING -1
SWIDTH 411 0
DWIDTH 3 0
BBX 3 4 0 0
BITMAP
60
A0
E0
60
ENDCHAR
STARTCHAR uni0450.fina
ENCODING -1
SWIDTH 411 0
DWIDTH 3 0
BBX 3 8 0 0
BITMAP
40
40
40
00
60
A0
E0
60
ENDCHAR
STARTCHAR uni0451.fina
ENCODING -1
SWIDTH 411 0
DWIDTH 3 0
BBX 4 6 0 0
BITMAP
70
00
60
A0
D0
60
ENDCHAR
STARTCHAR uni0436.fina
ENCODING -1
SWIDTH 783 0
DWIDTH 6 0
BBX 6 4 0 0
BITMAP
5C
2C
B4
DC
ENDCHAR
STARTCHAR uni0437.fina
ENCODING -1
SWIDTH 395 0
DWIDTH 3 0
BBX 3 8 0 -4
BITMAP
60
20
40
C0
60
A0
C0
C0
ENDCHAR
STARTCHAR uni0438.fina
ENCODING -1
SWIDTH 460 0
DWIDTH 4 0
BBX 4 4 0 0
BITMAP
50
A0
A0
60
ENDCHAR
STARTCHAR uni0439.fina
ENCODING -1
SWIDTH 460 0
DWIDTH 4 0
BBX 4 6 0 0
BITMAP
50
60
50
A0
A0
60
ENDCHAR
STARTCHAR uni045D.fina
ENCODING -1
SWIDTH 460 0
DWIDTH 4 0
BBX 4 8 0 0
BITMAP
40
40
20
00
50
A0
A0
60
ENDCHAR
STARTCHAR uni048B.fina
ENCODING -1
SWIDTH 460 0
DWIDTH 4 0
BBX 4 8 0 -1
BITMAP
10
50
60
50
A0
A0
70
20
ENDCHAR
STARTCHAR uni043A.fina
ENCODING -1
SWIDTH 541 0
DWIDTH 4 0
BBX 4 4 0 0
BITMAP
70
B0
D0
B0
ENDCHAR
STARTCHAR uni045C.fina
ENCODING -1
SWIDTH 541 0
DWIDTH 4 0
BBX 4 8 0 0
BITMAP
10
10
20
00
70
B0
D0
B0
ENDCHAR
STARTCHAR uni043B.fina
ENCODING -1
SWIDTH 463 0
DWIDTH 4 0
BBX 4 4 0 0
BITMAP
20
60
60
B0
ENDCHAR
STARTCHAR uni043C.fina
ENCODING -1
SWIDTH 669 0
DWIDTH 5 0
BBX 5 4 0 0
BITMAP
78
78
68
A8
ENDCHAR
STARTCHAR uni043D.fina
ENCODING -1
SWIDTH 462 0
DWIDTH 4 0
BBX 4 4 0 0
BITMAP
50
E0
A0
A0
ENDCHAR
STARTCHAR uni043E.fina
ENCODING -1
SWIDTH 453 0
DWIDTH 4 0
BBX 3 4 0 0
BITMAP
60
A0
A0
60
ENDCHAR
STARTCHAR uni043F.fina
ENCODING -1
SWIDTH 484 0
DWIDTH 4 0
BBX 4 4 0 0
BITMAP
70
D0
E0
A0
ENDCHAR
STARTCHAR uni0440.fina
ENCODING -1
SWIDTH 457 0
DWIDTH 4 0
BBX 5 8 -1 -4
BITMAP
70
28
70
70
C0
C0
C0
C0
ENDCHAR
STARTCHAR uni0441.fina
ENCODING -1
SWIDTH 404 0
DWIDTH 3 0
BBX 3 4 0 0
BITMAP
60
A0
A0
60
ENDCHAR
STARTCHAR uni0442.fina
ENCODING -1
SWIDTH 732 0
DWIDTH 6 0
BBX 6 4 0 0
BITMAP
7C
F4
F8
A8
ENDCHAR
STARTCHAR uni0443.fina
ENCODING -1
SWIDTH 449 0
DWIDTH 4 0
BBX 4 8 0 -4
BITMAP
50
A0
A0
60
60
A0
C0
C0
ENDCHAR
STARTCHAR uni045E.fina
ENCODING -1
SWIDTH 449 0
DWIDTH 4 0
BBX 4 10 0 -4
BITMAP
50
60
50
A0
A0
60
60
A0
C0
C0
ENDCHAR
STARTCHAR uni0444.fina
ENCODING -1
SWIDTH 721 0
DWIDTH 6 0
BBX 5 10 0 -3
BITMAP
10
10
10
68
78
A8
F8
20
20
20
ENDCHAR
STARTCHAR uni0445.fina
ENCODING -1
SWIDTH 580 0
DWIDTH 5 0
BBX 5 4 0 0
BITMAP
70
20
A8
F0
ENDCHAR
STARTCHAR uni0447.fina
ENCODING -1
SWIDTH 422 0
DWIDTH 3 0
BBX 4 5 0 0
BITMAP
80
60
40
D0
60
ENDCHAR
STARTCHAR uni0446.fina
ENCODING -1
SWIDTH 468 0
DWIDTH 4 0
BBX 4 7 0 -3
BITMAP
50
A0
A0
70
20
60
60
ENDCHAR
STARTCHAR uni0448.fina
ENCODING -1
SWIDTH 693 0
DWIDTH 6 0
BBX 5 4 0 0
BITMAP
58
A8
A8
78
ENDCHAR
STARTCHAR uni0449.fina
ENCODING -1
SWIDTH 699 0
DWIDTH 6 0
BBX 5 7 0 -3
BITMAP
58
A8
A8
78
08
18
10
ENDCHAR
STARTCHAR uni045F.fina
ENCODING -1
SWIDTH 462 0
DWIDTH 4 0
BBX 4 5 0 -1
BITMAP
50
A0
A0
60
40
ENDCHAR
STARTCHAR uni044C.fina
ENCODING -1
SWIDTH 517 0
DWIDTH 4 0
BBX 4 4 0 0
BITMAP
40
E0
90
60
ENDCHAR
STARTCHAR uni044A.fina
ENCODING -1
SWIDTH 543 0
DWIDTH 4 0
BBX 4 4 0 0
BITMAP
E0
70
50
60
ENDCHAR
STARTCHAR uni044B.fina
ENCODING -1
SWIDTH 683 0
DWIDTH 5 0
BBX 5 4 0 0
BITMAP
48
E8
98
68
ENDCHAR
STARTCHAR uni0459.fina
ENCODING -1
SWIDTH 709 0
DWIDTH 6 0
BBX 5 4 0 0
BITMAP
20
78
68
B8
ENDCHAR
STARTCHAR uni045A.fina
ENCODING -1
SWIDTH 751 0
DWIDTH 6 0
BBX 6 4 0 0
BITMAP
50
F8
A4
98
ENDCHAR
STARTCHAR uni0455.fina
ENCODING -1
SWIDTH 394 0
DWIDTH 3 0
BBX 3 4 0 0
BITMAP
60
40
A0
60
ENDCHAR
STARTCHAR uni0454.fina
ENCODING -1
SWIDTH 426 0
DWIDTH 3 0
BBX 4 4 0 0
BITMAP
60
C0
90
60
ENDCHAR
STARTCHAR uni044D.fina
ENCODING -1
SWIDTH 476 0
DWIDTH 4 0
BBX 4 4 0 0
BITMAP
60
70
90
60
ENDCHAR
STARTCHAR uni0456.fina
ENCODING -1
SWIDTH 222 0
DWIDTH 2 0
BBX 2 6 0 0
BITMAP
40
00
40
40
80
80
ENDCHAR
STARTCHAR uni0457.fina
ENCODING -1
SWIDTH 222 0
DWIDTH 2 0
BBX 3 6 0 0
BITMAP
A0
00
40
40
80
80
ENDCHAR
STARTCHAR uni0458.fina
ENCODING -1
SWIDTH 229 0
DWIDTH 2 0
BBX 4 10 -2 -4
BITMAP
10
00
10
10
20
20
20
60
A0
C0
ENDCHAR
STARTCHAR uni045B.fina
ENCODING -1
SWIDTH 490 0
DWIDTH 4 0
BBX 4 7 0 0
BITMAP
40
F0
40
70
D0
D0
60
ENDCHAR
STARTCHAR uni044E.fina
ENCODING -1
SWIDTH 676 0
DWIDTH 5 0
BBX 5 4 0 0
BITMAP
78
E8
A8
98
ENDCHAR
STARTCHAR uni044F.fina
ENCODING -1
SWIDTH 496 0
DWIDTH 4 0
BBX 4 4 0 0
BITMAP
70
60
60
E0
ENDCHAR
STARTCHAR uni0452.fina
ENCODING -1
SWIDTH 493 0
DWIDTH 4 0
BBX 4 11 0 -4
BITMAP
40
F0
40
70
D0
D0
60
20
60
A0
C0
ENDCHAR
STARTCHAR uni0463.fina
ENCODING -1
SWIDTH 517 0
DWIDTH 4 0
BBX 4 6 0 0
BITMAP
40
40
E0
E0
90
60
ENDCHAR
STARTCHAR uni046B.fina
ENCODING -1
SWIDTH 878 0
DWIDTH 7 0
BBX 7 7 0 0
BITMAP
08
08
18
3C
18
BA
D6
ENDCHAR
STARTCHAR uni0473.fina
ENCODING -1
SWIDTH 453 0
DWIDTH 4 0
BBX 3 4 0 0
BITMAP
60
A0
E0
60
ENDCHAR
STARTCHAR uni0475.fina
ENCODING -1
SWIDTH 420 0
DWIDTH 3 0
BBX 4 4 0 0
BITMAP
90
A0
A0
40
ENDCHAR
STARTCHAR uni0493.fina
ENCODING -1
SWIDTH 407 0
DWIDTH 3 0
BBX 3 4 0 0
BITMAP
60
20
E0
60
ENDCHAR
STARTCHAR uni0495.fina
ENCODING -1
SWIDTH 442 0
DWIDTH 4 0
BBX 3 7 0 -3
BITMAP
E0
20
C0
E0
60
A0
40
ENDCHAR
STARTCHAR uni0497.fina
ENCODING -1
SWIDTH 784 0
DWIDTH 6 0
BBX 6 7 0 -3
BITMAP
5C
2C
B0
DC
0C
14
08
ENDCHAR
STARTCHAR uni0499.fina
ENCODING -1
SWIDTH 405 0
DWIDTH 3 0
BBX 3 7 0 -3
BITMAP
60
A0
60
A0
60
C0
C0
ENDCHAR
STARTCHAR uni049B.fina
ENCODING -1
SWIDTH 533 0
DWIDTH 4 0
BBX 4 7 0 -3
BITMAP
70
B0
C0
B0
30
50
60
ENDCHAR
STARTCHAR uni049D.fina
ENCODING -1
SWIDTH 567 0
DWIDTH 5 0
BBX 5 4 0 0
BITMAP
70
F0
E8
B0
ENDCHAR
STARTCHAR uni049F.fina
ENCODING -1
SWIDTH 541 0
DWIDTH 4 0
BBX 4 4 0 0
BITMAP
F0
D0
D0
B0
ENDCHAR
STARTCHAR uni04A1.fina
ENCODING -1
SWIDTH 639 0
DWIDTH 5 0
BBX 5 4 0 0
BITMAP
D8
68
68
58
ENDCHAR
STARTCHAR uni04A3.fina
ENCODING -1
SWIDTH 482 0
DWIDTH 4 0
BBX 4 7 0 -3
BITMAP
50
E0
A0
90
20
60
60
ENDCHAR
STARTCHAR uni04A5.fina
ENCODING -1
SWIDTH 462 0
DWIDTH 4 0
BBX 4 4 0 0
BITMAP
50
E0
A0
A0
ENDCHAR
STARTCHAR uni0525.fina
ENCODING -1
SWIDTH 503 0
DWIDTH 4 0
BBX 4 7 0 -3
BITMAP
70
D0
E0
90
30
50
60
ENDCHAR
STARTCHAR uni04A9.fina
ENCODING -1
SWIDTH 644 0
DWIDTH 5 0
BBX 5 4 0 0
BITMAP
50
A8
B8
78
ENDCHAR
STARTCHAR uni04AB.fina
ENCODING -1
SWIDTH 404 0
DWIDTH 3 0
BBX 3 7 0 -3
BITMAP
60
A0
80
60
60
A0
40
ENDCHAR
STARTCHAR uni04AD.fina
ENCODING -1
SWIDTH 751 0
DWIDTH 6 0
BBX 6 7 0 -3
BITMAP
7C
F4
F8
A4
0C
14
18
ENDCHAR
STARTCHAR uni04AF.fina
ENCODING -1
SWIDTH 450 0
DWIDTH 4 0
BBX 4 7 0 -3
BITMAP
90
60
60
40
40
40
40
ENDCHAR
STARTCHAR uni04B1.fina
ENCODING -1
SWIDTH 450 0
DWIDTH 4 0
BBX 4 7 0 -3
BITMAP
90
60
60
60
E0
40
40
ENDCHAR
STARTCHAR uni04B3.fina
ENCODING -1
SWIDTH 580 0
DWIDTH 5 0
BBX 4 7 0 -3
BITMAP
70
20
A0
F0
10
30
20
ENDCHAR
STARTCHAR uni04B5.fina
ENCODING -1
SWIDTH 468 0
DWIDTH 4 0
BBX 4 9 0 -3
BITMAP
70
00
50
A0
A0
70
20
60
60
ENDCHAR
STARTCHAR uni04B7.fina
ENCODING -1
SWIDTH 461 0
DWIDTH 4 0
BBX 3 8 0 -3
BITMAP
80
60
40
C0
60
60
60
40
ENDCHAR
STARTCHAR uni04B9.fina
ENCODING -1
SWIDTH 473 0
DWIDTH 4 0
BBX 3 5 1 0
BITMAP
80
E0
40
A0
E0
ENDCHAR
STARTCHAR uni0527.fina
ENCODING -1
SWIDTH 519 0
DWIDTH 4 0
BBX 4 11 0 -3
BITMAP
20
50
60
60
70
D0
F0
50
30
50
60
ENDCHAR
STARTCHAR uni04BB.fina
ENCODING -1
SWIDTH 490 0
DWIDTH 4 0
BBX 4 8 0 0
BITMAP
20
50
60
60
70
D0
D0
60
ENDCHAR
STARTCHAR uni0529.fina
ENCODING -1
SWIDTH 462 0
DWIDTH 4 0
BBX 5 7 -1 -3
BITMAP
28
70
50
50
40
C0
C0
ENDCHAR
STARTCHAR uni052F.fina
ENCODING -1
SWIDTH 530 0
DWIDTH 4 0
BBX 4 7 0 -3
BITMAP
20
60
60
B0
30
50
60
ENDCHAR
STARTCHAR uni04BD.fina
ENCODING -1
SWIDTH 501 0
DWIDTH 4 0
BBX 4 4 0 0
BITMAP
30
50
F0
70
ENDCHAR
STARTCHAR uni04BF.fina
ENCODING -1
SWIDTH 501 0
DWIDTH 4 0
BBX 4 6 0 -2
BITMAP
30
50
F0
70
20
30
ENDCHAR
STARTCHAR uni04CF.fina
ENCODING -1
SWIDTH 222 0
DWIDTH 2 0
BBX 2 7 0 0
BITMAP
40
40
40
40
40
80
80
ENDCHAR
STARTCHAR uni04C2.fina
ENCODING -1
SWIDTH 783 0
DWIDTH 6 0
BBX 6 6 0 0
BITMAP
28
30
5C
2C
B4
DC
ENDCHAR
STARTCHAR uni04C4.fina
ENCODING -1
SWIDTH 533 0
DWIDTH 4 0
BBX 4 7 0 -3
BITMAP
70
B0
C0
B0
30
50
60
ENDCHAR
STARTCHAR uni04C6.fina
ENCODING -1
SWIDTH 463 0
DWIDTH 4 0
BBX 4 6 0 -2
BITMAP
20
60
60
B0
20
20
ENDCHAR
STARTCHAR uni04C8.fina
ENCODING -1
SWIDTH 482 0
DWIDTH 4 0
BBX 4 7 0 -3
BITMAP
50
E0
A0
90
20
60
60
ENDCHAR
STARTCHAR uni04CA.fina
ENCODING -1
SWIDTH 462 0
DWIDTH 4 0
BBX 4 5 0 -1
BITMAP
50
E0
A0
B0
20
ENDCHAR
STARTCHAR uni04CC.fina
ENCODING -1
SWIDTH 422 0
DWIDTH 3 0
BBX 4 6 0 -1
BITMAP
80
60
40
D0
60
20
ENDCHAR
STARTCHAR uni04CE.fina
ENCODING -1
SWIDTH 669 0
DWIDTH 5 0
BBX 5 6 0 -2
BITMAP
78
78
68
A8
08
10
ENDCHAR
STARTCHAR uni04D1.fina
ENCODING -1
SWIDTH 458 0
DWIDTH 4 0
BBX 4 6 0 0
BITMAP
50
60
60
60
A0
E0
ENDCHAR
STARTCHAR uni04D3.fina
ENCODING -1
SWIDTH 458 0
DWIDTH 4 0
BBX 4 6 0 0
BITMAP
50
00
60
60
A0
E0
ENDCHAR
STARTCHAR uni04D5.fina
ENCODING -1
SWIDTH 671 0
DWIDTH 5 0
BBX 6 4 0 0
BITMAP
78
E8
B4
58
ENDCHAR
STARTCHAR uni04D7.fina
ENCODING -1
SWIDTH 411 0
DWIDTH 3 0
BBX 4 6 0 0
BITMAP
50
60
60
A0
D0
60
ENDCHAR
STARTCHAR uni04D9.fina
ENCODING -1
SWIDTH 458 0
DWIDTH 4 0
BBX 4 4 0 0
BITMAP
E0
30
E0
60
ENDCHAR
STARTCHAR uni04DB.fina
ENCODING -1
SWIDTH 458 0
DWIDTH 4 0
BBX 4 6 0 0
BITMAP
70
00
E0
30
E0
60
ENDCHAR
STARTCHAR uni04DD.fina
ENCODING -1
SWIDTH 783 0
DWIDTH 6 0
BBX 6 6 0 0
BITMAP
28
00
5C
2C
B4
DC
ENDCHAR
STARTCHAR uni04DF.fina
ENCODING -1
SWIDTH 395 0
DWIDTH 3 0
BBX 4 10 0 -4
BITMAP
70
00
60
20
40
C0
60
A0
C0
C0
ENDCHAR
STARTCHAR uni04E1.fina
ENCODING -1
SWIDTH 456 0
DWIDTH 4 0
BBX 4 8 0 -4
BITMAP
F0
60
C0
40
60
A0
C0
C0
ENDCHAR
STARTCHAR uni04E3.fina
ENCODING -1
SWIDTH 460 0
DWIDTH 4 0
BBX 4 5 0 0
BITMAP
70
50
A0
A0
60
ENDCHAR
STARTCHAR uni04E5.fina
ENCODING -1
SWIDTH 460 0
DWIDTH 4 0
BBX 4 6 0 0
BITMAP
50
00
50
A0
A0
60
ENDCHAR
STARTCHAR uni04E7.fina
ENCODING -1
SWIDTH 453 0
DWIDTH 4 0
BBX 4 6 0 0
BITMAP
70
00
60
A0
A0
60
ENDCHAR
STARTCHAR uni04E9.fina
ENCODING -1
SWIDTH 453 0
DWIDTH 4 0
BBX 3 4 0 0
BITMAP
60
A0
E0
60
ENDCHAR
STARTCHAR uni04EB.fina
ENCODING -1
SWIDTH 453 0
DWIDTH 4 0
BBX 4 6 0 0
BITMAP
70
00
60
A0
E0
60
ENDCHAR
STARTCHAR uni04ED.fina
ENCODING -1
SWIDTH 466 0
DWIDTH 4 0
BBX 4 6 0 0
BITMAP
50
00
60
70
90
60
ENDCHAR
STARTCHAR uni04EF.fina
ENCODING -1
SWIDTH 449 0
DWIDTH 4 0
BBX 4 9 0 -4
BITMAP
70
50
A0
A0
60
60
A0
C0
C0
ENDCHAR
STARTCHAR uni04F1.fina
ENCODING -1
SWIDTH 449 0
DWIDTH 4 0
BBX 4 10 0 -4
BITMAP
50
00
50
A0
A0
60
60
A0
C0
C0
ENDCHAR
STARTCHAR uni04F3.fina
ENCODING -1
SWIDTH 449 0
DWIDTH 4 0
BBX 4 12 0 -4
BITMAP
30
30
50
00
50
A0
A0
60
60
A0
C0
C0
ENDCHAR
STARTCHAR uni04F5.fina
ENCODING -1
SWIDTH 422 0
DWIDTH 3 0
BBX 4 6 0 0
BITMAP
70
80
60
40
D0
60
ENDCHAR
STARTCHAR uni04F7.fina
ENCODING -1
SWIDTH 442 0
DWIDTH 4 0
BBX 3 7 0 -3
BITMAP
E0
20
C0
E0
60
A0
40
ENDCHAR
STARTCHAR uni04F9.fina
ENCODING -1
SWIDTH 683 0
DWIDTH 5 0
BBX 5 6 0 0
BITMAP
38
00
48
E8
98
68
ENDCHAR
STARTCHAR uni04FB.fina
ENCODING -1
SWIDTH 442 0
DWIDTH 4 0
BBX 3 7 0 -3
BITMAP
E0
20
E0
E0
60
A0
40
ENDCHAR
STARTCHAR uni04FD.fina
ENCODING -1
SWIDTH 580 0
DWIDTH 5 0
BBX 4 7 0 -3
BITMAP
70
20
A0
F0
10
30
20
ENDCHAR
STARTCHAR uni04FF.fina
ENCODING -1
SWIDTH 580 0
DWIDTH 5 0
BBX 5 4 0 0
BITMAP
70
70
A8
F0
ENDCHAR
STARTCHAR uni0511.fina
ENCODING -1
SWIDTH 387 0
DWIDTH 3 0
BBX 3 4 0 0
BITMAP
60
40
A0
E0
ENDCHAR
STARTCHAR uni0513.fina
ENCODING -1
SWIDTH 530 0
DWIDTH 4 0
BBX 4 7 0 -3
BITMAP
20
60
60
B0
30
50
60
ENDCHAR
STARTCHAR uni051B.fina
ENCODING -1
SWIDTH 449 0
DWIDTH 4 0
BBX 4 8 0 -3
BITMAP
10
70
60
A0
E0
20
20
20
ENDCHAR
STARTCHAR uni051D.fina
ENCODING -1
SWIDTH 666 0
DWIDTH 5 0
BBX 6 4 0 0
BITMAP
A4
A8
A8
50
ENDCHAR
STARTCHAR uni048D.fina
ENCODING -1
SWIDTH 517 0
DWIDTH 4 0
BBX 4 6 0 0
BITMAP
40
40
E0
E0
90
60
ENDCHAR
STARTCHAR uni048F.fina
ENCODING -1
SWIDTH 457 0
DWIDTH 4 0
BBX 5 8 -1 -4
BITMAP
70
28
78
70
C0
C0
C0
C0
ENDCHAR
STARTCHAR uni030C.alt
ENCODING -1
SWIDTH 0 0
DWIDTH 0 0
BBX 1 2 -3 2
BITMAP
80
80
ENDCHAR
STARTCHAR uni0308.case
ENCODING -1
SWIDTH 0 0
DWIDTH 0 0
BBX 3 1 -4 5
BITMAP
A0
ENDCHAR
STARTCHAR uni0307.case
ENCODING -1
SWIDTH 0 0
DWIDTH 0 0
BBX 1 1 -3 5
BITMAP
80
ENDCHAR
STARTCHAR gravecomb.case
ENCODING -1
SWIDTH 0 0
DWIDTH 0 0
BBX 3 2 -5 5
BITMAP
C0
20
ENDCHAR
STARTCHAR acutecomb.case
ENCODING -1
SWIDTH 0 0
DWIDTH 0 0
BBX 3 2 -3 5
BITMAP
60
C0
ENDCHAR
STARTCHAR uni030B.case
ENCODING -1
SWIDTH 0 0
DWIDTH 0 0
BBX 2 2 -3 5
BITMAP
C0
C0
ENDCHAR
STARTCHAR uni0302.case
ENCODING -1
SWIDTH 0 0
DWIDTH 0 0
BBX 3 3 -4 5
BITMAP
40
60
A0
ENDCHAR
STARTCHAR uni030C.case
ENCODING -1
SWIDTH 0 0
DWIDTH 0 0
BBX 3 2 -4 5
BITMAP
A0
40
ENDCHAR
STARTCHAR uni0306.case
ENCODING -1
SWIDTH 0 0
DWIDTH 0 0
BBX 3 2 -4 4
BITMAP
A0
E0
ENDCHAR
STARTCHAR uni030A.case
ENCODING -1
SWIDTH 0 0
DWIDTH 0 0
BBX 2 3 -3 4
BITMAP
C0
C0
C0
ENDCHAR
STARTCHAR tildecomb.case
ENCODING -1
SWIDTH 0 0
DWIDTH 0 0
BBX 4 2 -4 5
BITMAP
50
E0
ENDCHAR
STARTCHAR uni0304.case
ENCODING -1
SWIDTH 0 0
DWIDTH 0 0
BBX 3 1 -4 4
BITMAP
E0
ENDCHAR
STARTCHAR hookabovecomb.case
ENCODING -1
SWIDTH 0 0
DWIDTH 0 0
BBX 2 2 -3 4
BITMAP
C0
C0
ENDCHAR
STARTCHAR uni030F.case
ENCODING -1
SWIDTH 0 0
DWIDTH 0 0
BBX 3 2 -4 5
BITMAP
C0
A0
ENDCHAR
STARTCHAR uni0311.case
ENCODING -1
SWIDTH 0 0
DWIDTH 0 0
BBX 3 2 -4 4
BITMAP
60
A0
ENDCHAR
STARTCHAR uni0312.case
ENCODING -1
SWIDTH 0 0
DWIDTH 0 0
BBX 1 2 -3 5
BITMAP
80
80
ENDCHAR
STARTCHAR uni031B.case
ENCODING -1
SWIDTH 0 0
DWIDTH 0 0
BBX 2 3 -3 3
BITMAP
40
40
C0
ENDCHAR
STARTCHAR dotbelowcomb.case
ENCODING -1
SWIDTH 0 0
DWIDTH 0 0
BBX 2 1 -4 -2
BITMAP
C0
ENDCHAR
STARTCHAR uni0324.case
ENCODING -1
SWIDTH 0 0
DWIDTH 0 0
BBX 2 1 -4 -2
BITMAP
C0
ENDCHAR
STARTCHAR uni0326.case
ENCODING -1
SWIDTH 0 0
DWIDTH 0 0
BBX 1 2 -4 -2
BITMAP
80
80
ENDCHAR
STARTCHAR uni0327.case
ENCODING -1
SWIDTH 0 0
DWIDTH 0 0
BBX 2 3 -4 -2
BITMAP
C0
40
C0
ENDCHAR
STARTCHAR uni0328.case
ENCODING -1
SWIDTH 0 0
DWIDTH 0 0
BBX 2 3 -4 -2
BITMAP
40
80
C0
ENDCHAR
STARTCHAR uni032E.case
ENCODING -1
SWIDTH 0 0
DWIDTH 0 0
BBX 4 2 -5 -2
BITMAP
90
60
ENDCHAR
STARTCHAR uni0331.case
ENCODING -1
SWIDTH 0 0
DWIDTH 0 0
BBX 2 1 -4 -2
BITMAP
C0
ENDCHAR
STARTCHAR brevecombcy
ENCODING -1
SWIDTH 0 0
DWIDTH 0 0
BBX 3 2 -4 4
BITMAP
A0
E0
ENDCHAR
STARTCHAR brevecombcy.case
ENCODING -1
SWIDTH 0 0
DWIDTH 0 0
BBX 3 2 -4 4
BITMAP
A0
E0
ENDCHAR
STARTCHAR uni03060301
ENCODING -1
SWIDTH 0 0
DWIDTH 0 0
BBX 3 3 -4 4
BITMAP
20
A0
E0
ENDCHAR
STARTCHAR uni03060300
ENCODING -1
SWIDTH 0 0
DWIDTH 0 0
BBX 3 3 -4 4
BITMAP
40
A0
E0
ENDCHAR
STARTCHAR uni03060309
ENCODING -1
SWIDTH 0 0
DWIDTH 0 0
BBX 3 3 -4 4
BITMAP
60
40
E0
ENDCHAR
STARTCHAR uni03060303
ENCODING -1
SWIDTH 0 0
DWIDTH 0 0
BBX 3 4 -4 4
BITMAP
60
A0
A0
E0
ENDCHAR
STARTCHAR uni03020301
ENCODING -1
SWIDTH 0 0
DWIDTH 0 0
BBX 4 3 -4 5
BITMAP
10
60
A0
ENDCHAR
STARTCHAR uni03020300
ENCODING -1
SWIDTH 0 0
DWIDTH 0 0
BBX 3 3 -4 5
BITMAP
80
60
A0
ENDCHAR
STARTCHAR uni03020309
ENCODING -1
SWIDTH 0 0
DWIDTH 0 0
BBX 4 3 -4 4
BITMAP
10
70
A0
ENDCHAR
STARTCHAR uni03020303
ENCODING -1
SWIDTH 0 0
DWIDTH 0 0
BBX 3 3 -4 5
BITMAP
E0
40
A0
ENDCHAR
STARTCHAR uni03060301.case
ENCODING -1
SWIDTH 0 0
DWIDTH 0 0
BBX 3 3 -4 4
BITMAP
20
A0
E0
ENDCHAR
STARTCHAR uni03060300.case
ENCODING -1
SWIDTH 0 0
DWIDTH 0 0
BBX 3 3 -4 4
BITMAP
40
A0
E0
ENDCHAR
STARTCHAR uni03060309.case
ENCODING -1
SWIDTH 0 0
DWIDTH 0 0
BBX 3 3 -4 4
BITMAP
60
40
E0
ENDCHAR
STARTCHAR uni03060303.case
ENCODING -1
SWIDTH 0 0
DWIDTH 0 0
BBX 3 4 -4 4
BITMAP
60
A0
A0
E0
ENDCHAR
STARTCHAR uni03020301.case
ENCODING -1
SWIDTH 0 0
DWIDTH 0 0
BBX 4 3 -4 5
BITMAP
10
60
A0
ENDCHAR
STARTCHAR uni03020300.case
ENCODING -1
SWIDTH 0 0
DWIDTH 0 0
BBX 3 3 -4 5
BITMAP
80
60
A0
ENDCHAR
STARTCHAR uni03020309.case
ENCODING -1
SWIDTH 0 0
DWIDTH 0 0
BBX 4 3 -4 4
BITMAP
10
70
A0
ENDCHAR
STARTCHAR uni03020303.case
ENCODING -1
SWIDTH 0 0
DWIDTH 0 0
BBX 3 3 -4 5
BITMAP
E0
40
A0
ENDCHAR
ENDFONT
